<svg width="233" height="82" viewBox="0 0 233 82" fill="none" xmlns="http://www.w3.org/2000/svg">
<path d="M238.276 95.0695L-10.8294 89.123L-8.13857 -23.6144L240.967 -17.6683L238.276 95.0695Z" fill="#E6D7CC"/>
<path d="M222.376 25.2584C222.319 25.2731 222.25 25.2798 222.172 25.2757C222.065 25.2698 221.931 25.231 221.869 25.1945C221.618 25.0443 221.679 24.8752 221.608 24.7142C221.594 24.6817 221.679 24.6425 221.787 24.6145C221.884 24.5895 221.999 24.5733 222.078 24.5769C222.273 24.5865 222.332 24.6479 222.408 24.6988C222.555 24.7983 222.526 24.9059 222.571 25.049C222.563 25.0693 222.553 25.1274 222.514 25.1815C222.49 25.2139 222.442 25.2414 222.376 25.2584Z" fill="#AFA59B"/>
<path d="M76.6939 69.0101C76.6397 69.0241 76.57 69.0298 76.4979 69.0324C75.9926 69.0532 75.5446 68.9725 75.1081 68.8845C74.972 68.857 74.9814 68.8043 75.0613 68.7617C75.1013 68.7401 75.1467 68.7231 75.1993 68.7094C75.3549 68.6693 75.5742 68.6602 75.9052 68.6652C76.1036 68.6707 76.4349 68.7162 76.6899 68.8265C76.7785 68.8651 76.8165 68.9104 76.7837 68.9596C76.7679 68.9835 76.7356 68.9993 76.6939 69.0101Z" fill="#C2B0A2"/>
<path d="M84.9185 39.7716C84.8537 39.7883 84.7725 39.797 84.6758 39.7979C84.3459 39.8012 84.0326 39.6787 83.997 39.5327C83.979 39.4587 84.057 39.3978 84.2 39.3609C84.3008 39.3348 84.4342 39.3207 84.5892 39.3219C84.9225 39.3252 85.0876 39.3944 85.1096 39.5375C85.1278 39.6559 85.064 39.734 84.9185 39.7716Z" fill="#AAA096"/>
<path d="M213.419 77.782C213.33 77.7754 213.236 77.7595 213.165 77.7378L213.097 77.672C212.994 77.3431 212.888 77.0151 212.563 76.6981C212.544 76.6784 212.581 76.6533 212.61 76.5928C212.838 76.6887 213.01 76.762 213.186 76.8342C213.303 76.8827 213.37 76.9371 213.346 76.9983C213.273 77.1885 213.393 77.3738 213.529 77.5603C213.57 77.6156 213.544 77.6773 213.529 77.7352L213.419 77.782Z" fill="#B4A89F"/>
<path d="M190.443 61.265C190.316 61.2977 190.068 61.257 189.872 61.1706C189.77 61.1247 189.679 61.0731 189.608 61.0204C189.52 60.9558 189.465 60.8872 189.581 60.8218C189.594 60.8146 189.611 60.8082 189.629 60.8034C189.739 60.775 189.942 60.7891 190.186 60.8475C190.322 60.8803 190.457 60.9166 190.573 60.9584C190.638 60.9813 190.662 61.0194 190.696 61.0444C190.677 61.1355 190.632 61.214 190.445 61.2644C190.444 61.2646 190.444 61.2647 190.443 61.265Z" fill="#AA9A8C"/>
<path d="M158.074 73.5829C157.952 73.5862 157.841 73.5844 157.747 73.5544C157.685 73.5348 157.703 73.4868 157.792 73.4449C157.838 73.4233 157.894 73.4037 157.953 73.3861C157.958 73.3849 157.962 73.3838 157.967 73.3826C158.037 73.3645 158.117 73.3519 158.213 73.3671C158.294 73.3795 158.315 73.4211 158.264 73.4771L158.172 73.5545L158.074 73.5829Z" fill="#AA9A8C"/>
<path d="M29.0475 70.2788C28.9136 70.3134 28.7648 70.3176 28.6051 70.2716C28.4253 70.2201 28.2478 70.1669 28.0786 70.1105C27.9491 70.0674 27.8781 70.0141 27.9599 69.9538C27.9865 69.9346 28.0219 69.9202 28.0645 69.9091C28.1443 69.8885 28.2492 69.8802 28.3632 69.8737C28.6919 69.8926 28.9302 69.9719 29.1274 70.0719C29.2564 70.1381 29.2774 70.2028 29.1141 70.2589C29.0926 70.2666 29.0701 70.273 29.0475 70.2788Z" fill="#AAA096"/>
<path d="M230.53 24.6351C230.468 24.599 230.419 24.5605 230.366 24.5222C230.31 24.482 230.302 24.4461 230.328 24.4136C230.399 24.4825 230.466 24.5562 230.53 24.6351Z" fill="#BCAD9D"/>
<path d="M148.032 18.3421C147.874 18.3829 147.694 18.4106 147.474 18.4133C147.357 18.4154 147.2 18.3617 147.218 18.3233C147.271 18.2128 147.418 18.1229 147.625 18.0692C147.766 18.0329 147.935 18.0134 148.121 18.0145C148.251 18.026 148.413 18.0467 148.477 18.1099C148.526 18.1599 148.442 18.1993 148.356 18.2332C148.255 18.2738 148.149 18.3117 148.032 18.3421Z" fill="#B3A497"/>
<path d="M33.3112 25.1226C33.1411 25.1665 32.8518 25.2011 32.5417 25.2336C32.2676 25.2621 31.8996 25.2303 31.5982 25.2033C31.2865 25.1757 31.0307 25.1427 31.0812 25.0874C31.1411 25.0232 31.3018 24.9678 31.5131 24.9132C31.6536 24.8769 31.8161 24.8408 31.9858 24.8034C32.1559 24.7658 32.333 24.726 32.5021 24.6823C32.5849 24.6609 32.6658 24.6384 32.7432 24.6146C33.0286 24.7727 33.1525 24.8649 33.3657 24.9543C33.5338 25.0249 33.4823 25.0784 33.3112 25.1226Z" fill="#B1A69C"/>
<path d="M131.252 5.69608C131.006 5.47575 130.669 5.33448 130.603 5.15172C130.589 5.11098 130.633 5.0856 130.702 5.06784C130.731 5.06032 130.764 5.05392 130.799 5.04861C130.914 5.03061 131.055 5.00927 131.161 5.04779C131.401 5.13566 131.609 5.22917 131.483 5.36428C131.403 5.45026 131.357 5.54138 131.252 5.69608Z" fill="#B1A69C"/>
<path d="M57.3159 10.1987C56.8188 9.7538 56.1347 9.46803 56.0031 9.09736C55.9735 9.01399 56.0631 8.96302 56.2032 8.92685C56.2614 8.91181 56.3288 8.89921 56.3998 8.88835C56.6329 8.8517 56.9174 8.80923 57.1313 8.88725C57.6182 9.06444 58.0386 9.25399 57.7848 9.52725C57.6228 9.70187 57.5307 9.88624 57.3159 10.1987Z" fill="#B1A69C"/>
<path d="M159.658 9.51536C159.568 9.53869 159.476 9.55073 159.402 9.54264C159.075 9.50724 159.109 9.39872 159.086 9.30726C159.068 9.23852 159.03 9.16591 159.17 9.1046C159.483 9.08693 159.626 9.23693 159.934 9.23325L160.024 9.28923C160.039 9.3619 159.853 9.46519 159.658 9.51536Z" fill="#ACA097"/>
<path d="M79.2235 39.5192C79.1874 39.5286 79.1448 39.5358 79.0956 39.54C78.9759 39.5511 78.8482 39.5563 78.7232 39.5554C78.4394 39.5527 78.2523 39.4586 78.3456 39.3596C78.3943 39.3079 78.4795 39.2586 78.5747 39.2169C78.5824 39.2133 78.5918 39.2103 78.6018 39.2077C78.6575 39.1933 78.7437 39.1893 78.7983 39.181C79.0602 39.2103 79.1994 39.2749 79.3074 39.3509C79.4003 39.4163 79.362 39.4835 79.2235 39.5192Z" fill="#A59B93"/>
<path d="M144.71 14.1776C144.618 14.2013 144.508 14.2158 144.399 14.2141C144.185 14.212 144.001 14.1398 143.97 14.0481C143.95 13.9875 144.004 13.9381 144.109 13.911C144.168 13.8959 144.242 13.8879 144.328 13.8887C144.66 13.8914 144.915 13.9485 144.935 14.0251C144.95 14.0818 144.852 14.1409 144.71 14.1776Z" fill="#AD9E92"/>
<path d="M97.5332 33.5015C97.4845 33.5141 97.4287 33.5199 97.3535 33.504C97.2331 33.4773 97.0795 33.4238 97.1624 33.3944C97.4516 33.2913 97.4501 33.1177 97.7908 33.0297C97.7923 33.0293 97.7938 33.0289 97.7953 33.0285C97.9702 33.084 98.1484 33.1621 98.0256 33.2153C97.8372 33.2961 97.8128 33.4089 97.6015 33.4801C97.5798 33.4873 97.5573 33.4953 97.5332 33.5015Z" fill="#9C9289"/>
<path d="M207.268 51.5662C207.132 51.6013 206.941 51.6085 206.745 51.576C206.604 51.553 206.565 51.4604 206.675 51.4235C206.706 51.4127 206.739 51.4026 206.773 51.3939C206.919 51.3562 207.087 51.3373 207.276 51.3357C207.396 51.3345 207.434 51.3704 207.464 51.406C207.473 51.4769 207.394 51.5336 207.268 51.5662Z" fill="#B0A49A"/>
<path d="M115.717 54.7397C115.66 54.7544 115.591 54.7614 115.513 54.757C115.406 54.7511 115.272 54.7123 115.21 54.6752C114.959 54.5261 115.02 54.3565 114.95 54.196C114.935 54.1628 115.02 54.1242 115.129 54.0962C115.225 54.0713 115.34 54.0549 115.419 54.0586C115.614 54.0678 115.673 54.1295 115.749 54.1801C115.897 54.2795 115.867 54.3877 115.912 54.5303C115.904 54.5506 115.895 54.6091 115.855 54.6628C115.831 54.6952 115.783 54.7227 115.717 54.7397Z" fill="#AFA59B"/>
<path d="M124.427 54.1885C124.395 54.1967 124.356 54.2024 124.309 54.205C124.142 54.2144 123.993 54.1844 123.894 54.1301C123.823 54.0903 123.766 54.047 123.707 54.004C123.602 53.9279 123.666 53.8674 123.814 53.8168C123.864 53.8001 123.915 53.7816 123.971 53.7672C124.065 53.7428 124.172 53.7302 124.305 53.7546C124.501 53.7908 124.538 53.8659 124.556 53.9377L124.557 53.9733L124.553 53.9728L124.553 54.0781C124.547 54.1236 124.515 54.1656 124.427 54.1885Z" fill="#BCAD9D"/>
<path d="M53 38.9965C52.9097 39.0198 52.8175 39.0319 52.7426 39.0239C52.4162 38.9889 52.4508 38.8804 52.4272 38.7891C52.4093 38.7198 52.3714 38.6477 52.5112 38.5859C52.8242 38.5687 52.9668 38.7187 53.2756 38.7144L53.365 38.7705C53.38 38.8432 53.1942 38.9463 53 38.9965Z" fill="#ACA097"/>
<path d="M86.4135 65.8925C86.3959 65.897 86.3772 65.9013 86.3585 65.9056C86.2526 65.9287 86.1198 65.9282 86.0335 65.8927C85.978 65.8706 85.9515 65.8261 85.9642 65.7966C86.0166 65.6739 86.2788 65.597 86.4509 65.5006C86.4575 65.4973 86.4658 65.4941 86.4753 65.4916C86.5727 65.4665 86.8295 65.4826 86.9087 65.5135C87.0104 65.5531 86.9631 65.5958 86.9397 65.6356C86.8935 65.7139 86.7328 65.765 86.5688 65.847C86.5428 65.8543 86.4847 65.8741 86.4135 65.8925Z" fill="#AFA59B"/>
<path d="M92.1717 67.1793C92.0964 67.1987 92.009 67.2063 91.9139 67.1843C91.8042 67.1597 91.7572 67.1167 91.7722 67.0711L91.8306 66.9719C91.8488 66.9447 91.8837 66.9266 91.9314 66.9143C91.9866 66.9001 92.0589 66.8942 92.1419 66.8942C92.2823 66.8948 92.4409 66.8913 92.5128 66.9499C92.5787 67.004 92.5 67.0495 92.4147 67.0903L92.3686 67.1086L92.3662 67.1076C92.3202 67.1265 92.2757 67.1449 92.2267 67.1624C92.2091 67.1686 92.1907 67.1744 92.1717 67.1793Z" fill="#BCAD9D"/>
<path d="M70.9266 46.4665C70.754 46.5111 70.3683 46.5187 70.2753 46.4694C70.1313 46.3926 70.2964 46.3419 70.4036 46.2906C70.4556 46.266 70.5043 46.2389 70.5741 46.2209C70.6152 46.2103 70.6635 46.2026 70.724 46.2004C70.9294 46.2474 70.8138 46.3511 70.9992 46.4038L70.9774 46.4497C70.964 46.4558 70.9467 46.4613 70.9266 46.4665Z" fill="#ACA097"/>
<path d="M42.5368 76.8392C42.3491 76.8876 42.0853 76.8611 41.9647 76.7734C41.9272 76.7461 41.9693 76.7101 42.0385 76.6922C42.0651 76.6853 42.0956 76.6812 42.1272 76.6811C42.3008 76.6817 42.4572 76.7029 42.5956 76.7437C42.6675 76.7647 42.6409 76.7903 42.6112 76.8141C42.5885 76.8237 42.5634 76.8323 42.5368 76.8392Z" fill="#B0A49A"/>
<path d="M157.08 42.7146C156.875 42.7674 156.502 42.7579 156.371 42.6818C156.299 42.638 156.294 42.5878 156.363 42.548C156.379 42.5391 156.401 42.5319 156.425 42.5255C156.471 42.5137 156.526 42.5055 156.562 42.496C156.808 42.4979 157.051 42.5416 157.171 42.6081L157.183 42.6723C157.159 42.6894 157.123 42.7033 157.08 42.7146Z" fill="#ADA299"/>
<path d="M189.247 37.9232C189.165 37.9445 189.058 37.9457 188.941 37.9325C188.809 37.9181 188.721 37.8841 188.686 37.8353C188.67 37.8127 188.691 37.7938 188.744 37.7802C188.807 37.7637 188.917 37.7553 189.061 37.7597C189.106 37.7658 189.205 37.7729 189.279 37.7922C189.361 37.8139 189.391 37.8507 189.34 37.8843C189.313 37.9012 189.282 37.914 189.247 37.9232Z" fill="#A29890"/>
<path d="M211.466 15.2707C211.413 15.2844 211.358 15.289 211.316 15.2724C211.02 15.1567 210.542 15.1427 210.287 15.0078C210.339 14.9862 210.4 14.9648 210.462 14.9485C210.572 14.9202 210.689 14.9076 210.785 14.9396C211.016 15.0159 211.326 15.0344 211.529 15.1183C211.593 15.1451 211.666 15.1728 211.605 15.2116C211.572 15.2331 211.52 15.2567 211.466 15.2707Z" fill="#9C9289"/>
<path d="M141.331 64.7859C141.177 64.8256 140.961 64.7965 140.768 64.7826C140.581 64.7699 140.382 64.7629 140.238 64.6952C140.24 64.5785 140.66 64.569 140.696 64.4575C140.696 64.4558 140.701 64.4536 140.708 64.4518C140.738 64.444 140.816 64.4377 140.859 64.4406C141.146 64.4627 141.544 64.6585 141.442 64.7359C141.411 64.7589 141.373 64.775 141.331 64.7859Z" fill="#ACA097"/>
<path d="M63.1364 17.1917C62.9828 17.2314 62.7664 17.2017 62.5734 17.1884C62.386 17.1758 62.1872 17.1687 62.0439 17.1009C62.0453 16.9838 62.4658 16.9747 62.5016 16.8627C62.5022 16.8609 62.5061 16.8594 62.5131 16.8576C62.5428 16.8499 62.6213 16.843 62.6644 16.8464C62.9518 16.869 63.3501 17.0637 63.2475 17.1411C63.2166 17.1646 63.179 17.1807 63.1364 17.1917Z" fill="#ACA097"/>
<path d="M169.822 64.1355C169.711 64.1642 169.563 64.1774 169.395 64.1698C169.144 64.1585 168.985 64.0473 169.014 63.9037C169.034 63.806 169.133 63.7278 169.269 63.6928C169.326 63.678 169.39 63.6713 169.457 63.6738C169.75 63.6852 170.048 63.8534 170.026 63.9961C170.017 64.0558 169.941 64.1048 169.822 64.1355Z" fill="#AD9E92"/>
<path d="M214.182 43.6783C213.928 43.7438 213.617 43.7611 213.318 43.7169C213.205 43.6892 213.07 43.6481 213.073 43.582C213.074 43.5501 213.122 43.5287 213.185 43.5124C213.223 43.5025 213.268 43.4943 213.311 43.4873C213.632 43.4332 213.961 43.396 214.334 43.4421C214.448 43.4564 214.544 43.5263 214.488 43.5584C214.403 43.6077 214.299 43.6481 214.182 43.6783Z" fill="#B3A497"/>
<path d="M213.17 47.9549C213.076 47.9793 212.951 47.9841 212.821 47.9647C212.507 47.918 212.32 47.8313 212.378 47.7597C212.401 47.7301 212.457 47.7049 212.532 47.6856C212.681 47.6471 212.903 47.633 213.079 47.6598C213.281 47.6913 213.385 47.781 213.323 47.8688C213.295 47.907 213.241 47.9366 213.17 47.9549Z" fill="#AD9E92"/>
<path d="M221.486 62.1752C221.432 62.1892 221.365 62.1956 221.289 62.1951C221.15 62.1939 221.082 62.1317 221.142 62.0387C221.166 62.0245 221.199 61.9913 221.263 61.97C221.269 61.9678 221.276 61.9655 221.283 61.9637C221.351 61.9462 221.442 61.9484 221.516 61.9741C221.655 62.0211 221.66 62.0757 221.586 62.1305C221.561 62.1493 221.527 62.1646 221.486 62.1752Z" fill="#A29890"/>
</svg>
