<svg width="536" height="360" viewBox="0 0 536 360" fill="none" xmlns="http://www.w3.org/2000/svg">
<path d="M535.18 50.9932L521.324 46.6697L269.538 134.542V276.023C269.026 275.999 268.516 275.987 268.001 275.987C267.484 275.987 266.972 275.999 266.462 276.023V134.542L14.6754 46.6697L0.819824 50.9932L7.11756 353.165C7.11756 353.165 5.85815 360.579 14.046 359.964C22.1988 359.346 107.813 326.98 242.467 346.049C249.099 353.04 258.094 357.336 268.001 357.336C277.906 357.336 286.903 353.04 293.532 346.049C428.187 326.98 513.801 359.346 521.953 359.964C530.142 360.579 528.882 353.165 528.882 353.165L535.18 50.9932Z" fill="#522323"/>
<path d="M535.18 46.6956L521.324 42.3687L269.538 130.245V271.726C269.026 271.701 268.516 271.688 268.001 271.688C267.484 271.688 266.972 271.701 266.462 271.726V130.245L14.6754 42.3687L0.819824 46.6956L7.11756 348.868C7.11756 348.868 5.85815 356.283 14.046 355.666C22.1988 355.049 107.813 322.682 242.467 341.751C249.099 348.74 258.094 353.038 268.001 353.038C277.906 353.038 286.903 348.74 293.532 341.751C428.187 322.682 513.801 355.049 521.953 355.666C530.142 356.283 528.882 348.868 528.882 348.868L535.18 46.6956Z" fill="#A95252"/>
<path d="M242.837 342.135C242.835 342.135 242.834 342.133 242.834 342.132C242.835 342.133 242.835 342.133 242.837 342.135ZM242.727 342.024C242.723 342.02 242.722 342.016 242.718 342.015C242.722 342.016 242.725 342.02 242.727 342.024ZM242.691 341.984C242.687 341.981 242.684 341.979 242.68 341.975C242.684 341.976 242.687 341.981 242.691 341.984ZM242.467 341.751C242.131 341.703 241.796 341.656 241.462 341.612C241.462 341.61 241.462 341.61 241.462 341.61C241.798 341.656 242.129 341.703 242.467 341.751Z" fill="#2B1313"/>
<path d="M253.526 349.794C249.573 347.937 245.975 345.346 242.871 342.172C242.859 342.16 242.849 342.148 242.837 342.135C242.835 342.133 242.835 342.133 242.834 342.132C242.823 342.121 242.811 342.11 242.801 342.098C242.799 342.098 242.797 342.094 242.796 342.092C242.785 342.082 242.775 342.071 242.763 342.061C242.761 342.058 242.759 342.056 242.758 342.055C242.747 342.044 242.737 342.034 242.727 342.024C242.725 342.02 242.722 342.016 242.718 342.015C242.71 342.004 242.699 341.994 242.691 341.984C242.687 341.981 242.684 341.977 242.68 341.975C242.672 341.964 242.661 341.956 242.653 341.946C242.649 341.942 242.646 341.939 242.642 341.933C242.634 341.925 242.625 341.917 242.616 341.908C242.611 341.903 242.608 341.899 242.603 341.894C242.596 341.886 242.587 341.877 242.579 341.868C242.573 341.863 242.568 341.858 242.565 341.853C242.556 341.846 242.549 341.837 242.541 341.828C242.535 341.824 242.529 341.816 242.523 341.81C242.517 341.803 242.51 341.797 242.504 341.791C242.491 341.777 242.479 341.763 242.467 341.751C242.129 341.703 241.798 341.656 241.462 341.61C241.558 340.892 241.664 340.178 241.781 339.468C241.813 339.268 241.846 339.071 241.881 338.874C242.117 338.961 242.351 339.053 242.587 339.142V341.874C242.601 341.887 242.615 341.903 242.629 341.917C242.632 341.921 242.635 341.925 242.639 341.929C242.649 341.939 242.66 341.949 242.67 341.96C242.675 341.964 242.678 341.97 242.684 341.975C242.694 341.984 242.703 341.994 242.711 342.003C242.716 342.008 242.722 342.013 242.727 342.018C242.735 342.028 242.744 342.037 242.754 342.047C242.759 342.053 242.763 342.058 242.768 342.061C242.778 342.071 242.787 342.082 242.796 342.09C242.801 342.096 242.806 342.101 242.811 342.106C242.82 342.115 242.83 342.127 242.84 342.135C242.844 342.141 242.847 342.144 242.853 342.148C242.863 342.16 242.875 342.172 242.887 342.184C242.889 342.185 242.892 342.189 242.894 342.191C242.937 342.234 242.98 342.278 243.023 342.321C243.025 342.323 243.027 342.327 243.03 342.329C243.042 342.341 243.052 342.352 243.064 342.364C243.068 342.368 243.071 342.372 243.075 342.375C243.087 342.385 243.097 342.397 243.108 342.407C243.111 342.411 243.114 342.415 243.118 342.418C243.13 342.43 243.14 342.44 243.151 342.45C243.154 342.455 243.158 342.458 243.161 342.461C243.173 342.473 243.183 342.483 243.195 342.496C243.199 342.499 243.201 342.501 243.204 342.504C243.216 342.516 243.228 342.529 243.24 342.541C243.242 342.542 243.245 342.545 243.247 342.547C243.29 342.59 243.335 342.634 243.378 342.677C243.38 342.678 243.382 342.68 243.383 342.681C243.395 342.694 243.409 342.706 243.421 342.72C243.425 342.721 243.428 342.724 243.432 342.729C243.442 342.74 243.452 342.749 243.464 342.761C243.468 342.764 243.471 342.77 243.476 342.773C243.487 342.783 243.495 342.792 243.507 342.803C243.511 342.807 243.516 342.811 243.519 342.816C243.53 342.826 243.54 342.835 243.55 342.846C243.554 342.85 243.559 342.854 243.562 342.858C243.573 342.868 243.585 342.878 243.595 342.889C243.599 342.892 243.602 342.897 243.606 342.899C243.618 342.911 243.63 342.923 243.642 342.933C243.643 342.936 243.647 342.938 243.649 342.942C243.678 342.969 243.707 342.998 243.737 343.026C243.74 343.03 243.743 343.031 243.747 343.035C243.757 343.046 243.769 343.056 243.78 343.068C243.785 343.071 243.79 343.076 243.795 343.081C243.804 343.09 243.812 343.099 243.823 343.107C243.828 343.114 243.833 343.12 243.84 343.124C243.849 343.132 243.857 343.14 243.866 343.148C243.871 343.154 243.878 343.161 243.883 343.166C243.892 343.175 243.9 343.181 243.909 343.19C243.914 343.195 243.921 343.202 243.928 343.207C243.935 343.216 243.943 343.223 243.95 343.23C243.957 343.237 243.964 343.243 243.971 343.249C243.98 343.256 243.986 343.264 243.993 343.271C244 343.278 244.007 343.283 244.014 343.29C244.023 343.297 244.029 343.305 244.038 343.312C244.045 343.317 244.052 343.324 244.057 343.332C244.067 343.34 244.078 343.348 244.086 343.357C244.098 343.369 244.112 343.381 244.124 343.391C244.129 343.398 244.136 343.404 244.141 343.409C244.15 343.418 244.159 343.424 244.167 343.433C244.172 343.438 244.179 343.443 244.185 343.449C244.193 343.457 244.202 343.466 244.21 343.474C244.216 343.48 244.221 343.483 244.226 343.488C244.236 343.496 244.245 343.505 244.255 343.514C244.26 343.519 244.264 343.523 244.269 343.527C244.278 343.536 244.288 343.545 244.298 343.555C244.302 343.558 244.307 343.562 244.31 343.566C244.321 343.575 244.331 343.585 244.341 343.595C244.345 343.597 244.348 343.6 244.35 343.604C244.362 343.614 244.374 343.624 244.384 343.634C244.386 343.634 244.386 343.634 244.386 343.634C244.453 343.698 244.522 343.76 244.591 343.821C244.591 343.822 244.591 343.822 244.591 343.822C244.605 343.834 244.619 343.847 244.633 343.859C244.633 343.859 244.633 343.86 244.634 343.86C246.399 345.451 248.3 346.865 250.316 348.078C250.317 348.08 250.321 348.08 250.323 348.082C250.331 348.087 250.34 348.093 250.347 348.098C250.357 348.103 250.366 348.108 250.376 348.115C250.381 348.118 250.388 348.122 250.393 348.125C250.405 348.132 250.417 348.139 250.428 348.146C250.433 348.148 250.436 348.151 250.441 348.152C250.455 348.161 250.469 348.17 250.485 348.179C250.485 348.18 250.488 348.18 250.49 348.182C251.475 348.768 252.489 349.308 253.526 349.794Z" fill="#5F2626"/>
<path d="M527.812 353.691C526.587 353.086 525.35 352.499 524.099 351.93C521.788 344.176 520.808 335.973 520.804 327.905C520.804 327.709 520.804 327.512 520.806 327.317C520.832 322.765 521.006 318.114 522.105 313.675C522.572 311.786 523.217 309.929 523.987 308.14C524.18 307.692 524.43 307.074 524.757 306.51C524.755 306.51 524.752 306.512 524.75 306.514C524.897 306.26 525.059 306.019 525.24 305.809C525.393 305.931 525.47 305.995 525.47 305.995L526.179 261.292L526.732 233.2L529.927 71.0236C529.684 70.9081 529.439 70.7927 529.196 70.6772L529.603 44.9551L535.181 46.6955L528.882 348.868C528.891 348.912 529.344 351.694 527.812 353.691ZM523.478 351.653C523.399 351.616 523.32 351.582 523.241 351.546C515.24 347.998 507.029 344.941 498.687 342.299C481.989 337.01 464.752 333.552 447.381 331.402C430.769 329.346 414.078 328.543 397.373 328.543C378.346 328.543 359.299 329.584 340.334 331C331.778 331.641 323.231 332.489 314.786 334.059C310.45 334.867 305.953 335.739 301.793 337.231C299.456 338.07 297.135 338.953 294.828 339.87C294.824 339.09 294.812 338.311 294.787 337.535C310.518 331.483 332.173 325.277 364.366 321.278C378.429 319.531 391.558 318.771 403.741 318.771C477.729 318.771 517.166 346.773 523.478 351.653ZM15.0647 351.484C14.9206 351.484 14.817 351.146 14.7416 350.65C24.7495 343.398 63.8304 318.781 133.055 318.781C145.193 318.781 158.253 319.537 172.25 321.278C204.433 325.276 226.081 331.477 241.81 337.527C241.755 337.805 241.704 338.083 241.654 338.36C232.974 335.084 223.67 333.19 214.574 331.771C203.635 330.061 192.563 329.306 181.507 328.891C169.917 328.455 158.368 327.79 146.765 327.79C146.159 327.79 145.551 327.792 144.945 327.795C120.591 327.941 96.2755 330.12 72.2142 333.828C61.1897 335.527 49.9466 336.492 39.2223 339.711C34.3396 341.176 29.5752 343.216 25.2067 345.847C23.1206 347.103 21.112 348.478 18.9903 349.672C17.743 350.379 16.4405 350.968 15.101 351.477C15.0889 351.482 15.0768 351.484 15.0647 351.484ZM14.5053 345.499C14.2414 334.748 14.3034 323.997 14.5073 313.246C14.6958 314.152 14.854 315.064 14.988 315.979C14.9873 315.979 14.9873 315.981 14.9866 315.981C15.064 316.508 15.134 317.039 15.1973 317.57C15.7062 321.898 15.9875 326.275 15.9862 330.636C15.9855 331.046 15.9835 331.457 15.9781 331.865C15.9189 336.471 15.4719 341.046 14.5053 345.499ZM293.846 340.262V339.919V333.578C293.873 333.75 293.901 333.921 293.927 334.092C294.108 335.287 294.237 336.49 294.376 337.691C294.411 337.679 294.444 337.665 294.478 337.653C294.502 338.434 294.513 339.215 294.514 339.995C294.292 340.085 294.068 340.173 293.846 340.262ZM242.588 338.718C242.376 338.636 242.164 338.553 241.952 338.472C242.002 338.196 242.053 337.919 242.107 337.641C242.196 337.677 242.289 337.712 242.379 337.748C242.443 337.433 242.512 337.119 242.588 336.809V338.718Z" fill="#5F2626"/>
<path d="M293.37 341.921C293.372 341.92 293.373 341.917 293.375 341.915C293.377 341.915 293.377 341.913 293.379 341.911C293.382 341.91 293.384 341.906 293.387 341.904C293.38 341.91 293.375 341.915 293.37 341.921ZM293.411 341.878C293.411 341.877 293.413 341.877 293.413 341.875C293.417 341.874 293.418 341.87 293.42 341.868C293.423 341.865 293.425 341.863 293.429 341.859C293.422 341.867 293.417 341.872 293.411 341.878ZM293.451 341.835C293.451 341.835 293.453 341.835 293.453 341.834C293.458 341.831 293.461 341.825 293.465 341.822C293.468 341.818 293.47 341.816 293.473 341.813C293.465 341.822 293.458 341.828 293.451 341.835ZM293.492 341.794C293.492 341.793 293.492 341.793 293.492 341.793C293.506 341.779 293.518 341.765 293.532 341.751C293.518 341.765 293.504 341.779 293.492 341.794ZM293.532 341.751L293.827 341.71C293.728 341.724 293.63 341.738 293.532 341.751ZM293.846 341.706C294.009 341.684 294.178 341.66 294.344 341.636C294.176 341.66 294.011 341.684 293.846 341.706Z" fill="#2B1313"/>
<path d="M293.845 341.706V340.609C294.068 340.519 294.292 340.43 294.514 340.339C294.514 340.766 294.514 341.191 294.509 341.613C294.453 341.62 294.397 341.629 294.343 341.636C294.178 341.66 294.009 341.684 293.845 341.706Z" fill="#5F2626"/>
<path d="M293.846 121.761L269.538 130.245V271.725C269.026 271.701 268.516 271.688 268.001 271.688C267.484 271.688 266.972 271.701 266.462 271.725V130.245L242.587 121.911V341.874C249.208 348.792 258.153 353.038 268.001 353.038C277.906 353.038 286.903 348.74 293.532 341.751L293.846 341.706V121.761Z" fill="#632C2C"/>
<path d="M280.313 350.722C282.828 349.743 285.216 348.474 287.446 346.948H287.448C287.461 346.938 287.473 346.929 287.487 346.921C287.489 346.919 287.492 346.917 287.494 346.915C287.504 346.909 287.515 346.902 287.525 346.895C287.53 346.89 287.535 346.886 287.542 346.883C287.549 346.878 287.558 346.872 287.566 346.867C287.573 346.86 287.58 346.855 287.589 346.85C287.594 346.847 287.601 346.843 287.606 346.838C287.616 346.831 287.627 346.824 287.637 346.817C287.639 346.816 287.642 346.814 287.646 346.812C287.658 346.804 287.67 346.793 287.684 346.785C287.685 346.785 287.685 346.783 287.687 346.783C289.607 345.447 291.406 343.924 293.065 342.235C289.419 345.949 285.09 348.861 280.313 350.722Z" fill="#200E0E"/>
<path d="M287.645 346.812C287.657 346.804 287.671 346.793 287.683 346.785C287.669 346.793 287.657 346.804 287.645 346.812ZM287.687 346.783C289.727 345.364 291.631 343.733 293.375 341.915C293.373 341.917 293.371 341.92 293.37 341.921C293.361 341.93 293.352 341.939 293.344 341.948C293.339 341.953 293.335 341.958 293.33 341.961C293.321 341.972 293.311 341.982 293.302 341.991C293.299 341.994 293.296 341.998 293.292 342.001C293.216 342.078 293.14 342.158 293.065 342.235C291.405 343.924 289.606 345.447 287.687 346.783Z" fill="#120808"/>
<path d="M280.313 347.017V311.499C281.106 311.952 281.856 312.463 282.54 313.039C284.213 314.444 285.583 316.15 286.912 317.871C288.175 319.503 289.46 321.104 290.453 322.92C292.266 326.237 293.246 329.87 293.846 333.578V339.919C290.198 342.8 286.041 345.051 281.654 346.576C281.208 346.729 280.762 346.878 280.313 347.017Z" fill="#261111"/>
<path d="M293.378 341.911C293.39 341.899 293.402 341.887 293.413 341.875C293.413 341.877 293.411 341.877 293.411 341.879C293.402 341.887 293.394 341.896 293.387 341.904C293.384 341.906 293.382 341.91 293.378 341.911Z" fill="#120808"/>
<path d="M293.42 341.868C293.43 341.858 293.442 341.846 293.452 341.834C293.452 341.835 293.451 341.835 293.451 341.835C293.444 341.844 293.435 341.853 293.428 341.86C293.425 341.863 293.423 341.865 293.42 341.868Z" fill="#120808"/>
<path d="M293.473 341.813C293.478 341.807 293.483 341.802 293.489 341.797C293.483 341.803 293.478 341.807 293.473 341.813Z" fill="#200E0E"/>
<path d="M293.465 341.822C293.473 341.812 293.484 341.803 293.492 341.793C293.492 341.793 293.492 341.793 293.492 341.794C293.486 341.8 293.479 341.806 293.473 341.813C293.47 341.816 293.468 341.818 293.465 341.822Z" fill="#120808"/>
<path d="M250.49 348.182C250.488 348.18 250.485 348.18 250.485 348.179C250.486 348.18 250.488 348.18 250.49 348.182ZM250.393 348.125C250.388 348.122 250.381 348.118 250.376 348.115C250.381 348.118 250.386 348.122 250.393 348.125Z" fill="#111427"/>
<path d="M255.639 346.89C251.002 345.423 246.449 343.268 242.587 340.31V341.874V336.809C243.278 333.928 244.416 331.162 245.174 328.295C245.706 326.272 246.266 324.235 247.154 322.329C248.026 320.459 249.175 318.781 250.531 317.225C252.049 315.484 253.759 313.823 255.639 312.407V346.89Z" fill="#261111"/>
<path d="M244.342 343.595C244.331 343.585 244.321 343.575 244.311 343.566C244.321 343.576 244.331 343.585 244.342 343.595ZM244.168 343.433C244.159 343.424 244.15 343.418 244.142 343.409C244.15 343.418 244.159 343.426 244.168 343.433ZM244.125 343.391C244.113 343.381 244.099 343.369 244.087 343.357C244.099 343.369 244.111 343.381 244.125 343.391ZM243.883 343.166C243.878 343.161 243.871 343.154 243.866 343.148C243.871 343.155 243.878 343.161 243.883 343.166ZM243.477 342.773C243.472 342.769 243.468 342.764 243.465 342.761C243.468 342.764 243.473 342.769 243.477 342.773ZM243.248 342.547C243.246 342.545 243.242 342.542 243.241 342.541C243.244 342.544 243.246 342.544 243.248 342.547ZM243.204 342.504C243.201 342.501 243.199 342.499 243.196 342.495C243.198 342.498 243.203 342.501 243.204 342.504ZM242.768 342.061C242.763 342.058 242.76 342.053 242.755 342.047C242.758 342.051 242.765 342.058 242.768 342.061ZM242.639 341.929C242.636 341.925 242.632 341.921 242.629 341.917C242.632 341.92 242.636 341.925 242.639 341.929Z" fill="#111427"/>
<path d="M268.001 353.038C261.663 353.038 255.701 351.278 250.49 348.182C252.135 349.161 253.855 350.004 255.639 350.702V346.89C256.783 347.252 257.93 347.57 259.075 347.851C262.047 348.576 265.056 348.927 268.059 348.927C272.193 348.927 276.315 348.265 280.313 347.017V350.722C276.462 352.221 272.317 353.038 268.001 353.038Z" fill="#B45C5C"/>
<path d="M244.267 343.527C244.263 343.523 244.26 343.52 244.255 343.516C244.258 343.52 244.263 343.523 244.267 343.527Z" fill="#B45C5C"/>
<path d="M244.224 343.488C244.22 343.484 244.215 343.481 244.211 343.476C244.215 343.479 244.22 343.484 244.224 343.488Z" fill="#B45C5C"/>
<path d="M244.038 343.312C244.029 343.305 244.023 343.297 244.014 343.29C244.023 343.297 244.029 343.304 244.038 343.312Z" fill="#B45C5C"/>
<path d="M243.865 343.148C243.857 343.14 243.849 343.132 243.84 343.125C243.849 343.134 243.857 343.14 243.865 343.148Z" fill="#B45C5C"/>
<path d="M243.736 343.026C243.707 342.999 243.678 342.97 243.649 342.943C243.678 342.97 243.707 342.997 243.736 343.026Z" fill="#B45C5C"/>
<path d="M243.508 342.802C243.496 342.792 243.487 342.783 243.477 342.773C243.487 342.783 243.497 342.794 243.508 342.802Z" fill="#B45C5C"/>
<path d="M243.464 342.761C243.452 342.749 243.442 342.74 243.432 342.729C243.442 342.74 243.452 342.751 243.464 342.761Z" fill="#B45C5C"/>
<path d="M243.151 342.45C243.14 342.44 243.13 342.43 243.118 342.418C243.13 342.428 243.14 342.44 243.151 342.45Z" fill="#B45C5C"/>
<path d="M243.022 342.321C242.98 342.278 242.937 342.234 242.894 342.191C242.937 342.235 242.98 342.278 243.022 342.321Z" fill="#B45C5C"/>
<path d="M242.841 342.135C242.83 342.127 242.82 342.114 242.812 342.106C242.82 342.114 242.83 342.125 242.841 342.135Z" fill="#B45C5C"/>
<path d="M293.453 341.834C293.456 341.831 293.46 341.826 293.463 341.823C293.46 341.826 293.457 341.831 293.453 341.834Z" fill="#B45C5C"/>
<path d="M293.492 341.793C293.506 341.779 293.52 341.765 293.532 341.751C293.518 341.765 293.506 341.779 293.492 341.793Z" fill="#B45C5C"/>
<path d="M280.313 350.722V347.017C280.762 346.878 281.208 346.729 281.654 346.576C286.041 345.051 290.198 342.8 293.846 339.919V341.706L293.532 341.751C293.52 341.765 293.506 341.779 293.492 341.793C293.484 341.803 293.474 341.812 293.465 341.822C293.461 341.825 293.456 341.831 293.453 341.834C293.442 341.846 293.43 341.858 293.42 341.868C293.418 341.87 293.417 341.874 293.413 341.875C293.403 341.887 293.391 341.899 293.379 341.911C293.377 341.913 293.377 341.915 293.375 341.915C289.667 345.78 285.23 348.807 280.313 350.722Z" fill="#A44B4B"/>
<path d="M255.639 350.702C253.855 350.004 252.136 349.161 250.49 348.182C250.488 348.18 250.487 348.18 250.485 348.179C250.469 348.17 250.455 348.161 250.442 348.152C250.437 348.151 250.433 348.148 250.428 348.146C250.418 348.139 250.406 348.132 250.393 348.125C250.387 348.122 250.381 348.118 250.376 348.115C250.366 348.108 250.357 348.103 250.347 348.098C250.34 348.093 250.331 348.087 250.323 348.082C250.321 348.08 250.318 348.08 250.316 348.078C248.3 346.865 246.399 345.451 244.635 343.86C244.633 343.86 244.633 343.859 244.633 343.859C244.619 343.847 244.605 343.834 244.591 343.822C244.591 343.822 244.591 343.822 244.591 343.821C244.523 343.76 244.454 343.698 244.386 343.634C244.386 343.634 244.386 343.634 244.385 343.634C244.374 343.624 244.362 343.614 244.35 343.604C244.349 343.6 244.345 343.597 244.342 343.595C244.331 343.585 244.321 343.576 244.311 343.566C244.307 343.562 244.302 343.558 244.299 343.555C244.288 343.545 244.278 343.536 244.269 343.527C244.264 343.523 244.259 343.519 244.255 343.514C244.245 343.505 244.237 343.496 244.226 343.488C244.221 343.483 244.216 343.478 244.211 343.474C244.202 343.466 244.193 343.457 244.185 343.449C244.18 343.443 244.173 343.438 244.168 343.433C244.159 343.426 244.15 343.418 244.142 343.409C244.137 343.404 244.13 343.398 244.124 343.392C244.111 343.381 244.099 343.369 244.087 343.357C244.078 343.348 244.068 343.34 244.057 343.332C244.052 343.324 244.045 343.317 244.038 343.312C244.03 343.304 244.023 343.297 244.014 343.29C244.007 343.283 244 343.278 243.994 343.271C243.987 343.264 243.98 343.256 243.971 343.249C243.964 343.243 243.957 343.237 243.95 343.23C243.944 343.223 243.935 343.216 243.928 343.207C243.921 343.202 243.914 343.195 243.909 343.19C243.9 343.181 243.892 343.175 243.883 343.166C243.878 343.161 243.871 343.155 243.866 343.148C243.857 343.14 243.849 343.133 243.84 343.124C243.833 343.12 243.828 343.114 243.823 343.107C243.813 343.099 243.804 343.09 243.795 343.081C243.79 343.076 243.785 343.071 243.78 343.068C243.769 343.056 243.757 343.046 243.747 343.035C243.744 343.031 243.74 343.03 243.737 343.026C243.707 342.997 243.678 342.969 243.649 342.942C243.647 342.938 243.644 342.936 243.642 342.933C243.63 342.923 243.618 342.911 243.606 342.899C243.602 342.897 243.599 342.892 243.595 342.889C243.585 342.878 243.573 342.868 243.563 342.858C243.559 342.854 243.554 342.85 243.551 342.846C243.54 342.835 243.53 342.826 243.52 342.816C243.516 342.811 243.511 342.807 243.508 342.803C243.497 342.794 243.487 342.783 243.477 342.773C243.473 342.77 243.468 342.764 243.465 342.761C243.452 342.751 243.442 342.74 243.432 342.729C243.428 342.724 243.425 342.721 243.421 342.72C243.409 342.706 243.396 342.694 243.384 342.681C243.382 342.68 243.38 342.678 243.378 342.677C243.335 342.634 243.29 342.59 243.247 342.547C243.246 342.544 243.244 342.544 243.24 342.541C243.228 342.529 243.216 342.516 243.204 342.504C243.203 342.501 243.197 342.498 243.196 342.496C243.184 342.483 243.173 342.473 243.161 342.461C243.158 342.458 243.154 342.455 243.151 342.45C243.141 342.44 243.13 342.428 243.118 342.418C243.115 342.415 243.111 342.411 243.108 342.407C243.097 342.397 243.087 342.385 243.075 342.375C243.072 342.372 243.068 342.368 243.065 342.364C243.053 342.352 243.042 342.341 243.03 342.329C243.027 342.327 243.025 342.323 243.023 342.321C242.98 342.278 242.937 342.235 242.894 342.191C242.892 342.189 242.889 342.185 242.887 342.184C242.875 342.172 242.863 342.16 242.853 342.148C242.848 342.144 242.844 342.141 242.841 342.135C242.83 342.125 242.82 342.115 242.811 342.106C242.806 342.101 242.801 342.096 242.796 342.09C242.787 342.082 242.779 342.071 242.768 342.061C242.765 342.058 242.758 342.051 242.755 342.047C242.744 342.037 242.736 342.028 242.727 342.018C242.722 342.013 242.717 342.008 242.711 342.003C242.703 341.994 242.694 341.984 242.684 341.975C242.679 341.97 242.675 341.964 242.67 341.96C242.66 341.949 242.649 341.939 242.639 341.929C242.636 341.926 242.632 341.92 242.629 341.917C242.615 341.903 242.601 341.887 242.587 341.874V340.311C246.449 343.268 251.002 345.423 255.639 346.89V350.702Z" fill="#A44B4B"/>
<path d="M523.987 308.14C524.275 307.469 524.683 306.419 525.302 305.738L529.927 71.0236C454.892 35.1277 328.68 39.9061 267.977 83.5253C208.105 38.5362 82.5687 34.7262 6.68896 71.0236L11.246 306.059C11.771 306.589 12.2934 307.506 12.397 307.678C12.9571 308.625 13.5952 309.66 13.8954 310.728C14.5241 312.968 14.9253 315.262 15.1972 317.57C15.7539 322.304 16.0386 327.099 15.978 331.865C15.8885 338.853 14.9058 345.768 12.5707 352.293C17.7127 348.175 70.1873 308.594 172.25 321.278C204.822 325.324 226.605 331.629 242.379 337.748C243.029 334.524 244.335 331.472 245.174 328.295C245.706 326.272 246.267 324.235 247.154 322.329C248.026 320.459 249.175 318.781 250.531 317.225C253.275 314.078 256.649 311.192 260.517 309.533C264.098 307.997 267.946 307.927 271.744 308.611C275.466 309.279 279.593 310.565 282.54 313.039C284.213 314.444 285.583 316.15 286.911 317.871C288.175 319.503 289.46 321.104 290.453 322.92C292.35 326.39 293.334 330.206 293.927 334.092C294.108 335.287 294.237 336.49 294.376 337.691C310.142 331.591 331.892 325.313 364.366 321.278C468.15 308.38 520.58 349.281 524.181 352.207C521.755 344.182 520.759 335.67 520.806 327.317C520.832 322.765 521.006 318.114 522.105 313.675C522.572 311.786 523.216 309.929 523.987 308.14Z" fill="#F3D8BC"/>
<path d="M27.5766 334.178C27.4399 334.178 27.3901 333.96 27.5114 333.873C34.9884 328.596 43.0107 324.125 51.3809 320.429C42.2521 322.331 33.9894 327.164 24.7684 328.755L24.6142 328.489C29.1422 324.909 34.6928 322.61 38.6334 318.312C33.7559 318.996 28.9761 320.894 24.0299 320.894C23.4154 320.894 22.7988 320.864 22.1781 320.801L22.0255 320.597C23.0256 317.762 24.9918 315.41 26.056 312.607C24.7152 313.007 23.3621 313.364 22.0125 313.732C29.9406 310.872 56.1257 301.471 76.9407 294.532C76.9407 294.532 35.3881 303.281 20.0605 314.278C19.4083 314.469 18.7588 314.668 18.1131 314.881C17.1453 315.2 16.0555 315.548 14.9879 315.979C14.7287 314.21 14.3794 312.453 13.8954 310.728C13.5952 309.66 12.9571 308.625 12.397 307.678C12.2994 307.517 11.8303 306.694 11.3376 306.155C13.2896 304.803 15.28 303.502 17.3176 302.281C38.869 289.356 63.8923 283.43 88.5542 280.008C103.722 277.901 119.073 276.709 134.413 276.709C143.269 276.709 152.12 277.107 160.932 277.953C179.865 279.773 199.017 283.648 216.49 291.373C200.378 286.021 187.104 283.071 187.104 283.071C197.5 285.59 214.289 291.853 228.597 297.538C228.802 297.656 229.007 297.777 229.212 297.898C229.35 297.979 229.281 298.195 229.135 298.195C229.121 298.195 229.104 298.192 229.088 298.187C217.887 294.723 206.399 291.88 194.724 290.617C191.657 290.285 188.584 290.033 185.507 289.814C163.005 285.616 146.032 285.616 146.032 285.616C157.166 286.812 167.527 288.415 177.061 290.25C185.171 292.021 193.185 294.268 201.198 296.449C213.343 299.754 225.876 303.046 236.536 309.996C236.677 310.089 236.593 310.296 236.456 310.296C236.431 310.296 236.401 310.287 236.374 310.27C231.361 307.268 225.659 305.691 219.979 304.513C214.177 303.314 208.334 302.304 202.52 301.161C202.125 301.084 201.731 301.006 201.334 300.929C186.53 297.01 171.817 294.892 158.002 293.929C157.767 293.905 157.531 293.883 157.295 293.86C147.662 292.938 137.939 292.502 128.239 292.502C124.719 292.502 121.203 292.559 117.694 292.671C92.2535 293.484 66.2118 297.527 43.3062 309.134C47.9952 308.245 52.6128 307.02 57.1995 305.709C64.0874 303.732 70.9466 301.568 77.9869 300.184C85.0309 298.798 92.2347 298.094 99.3941 297.627C108.81 297.017 118.279 296.817 127.738 296.817C132.812 296.817 137.882 296.874 142.942 296.958C146.308 297.013 149.683 297.124 153.058 297.295C165.598 298.189 176.992 299.678 187.14 301.461C199.08 303.903 210.758 307.478 221.889 312.543C222.042 312.616 221.954 312.841 221.806 312.841C221.794 312.841 221.78 312.839 221.766 312.834C198.953 306.514 175.409 302.194 151.762 300.741C144.04 300.267 136.196 299.923 128.344 299.923C109.873 299.923 91.3382 301.825 74.0935 308.407C83.1968 306.774 92.3976 305.883 101.625 305.487C60.0279 311.359 30.7746 325.1 30.7746 325.1C66.7651 311.54 104.953 306.958 133.081 305.66C136.03 305.769 138.978 305.883 141.927 305.983C148.414 306.2 154.903 306.463 161.373 307.003C174.058 308.057 186.871 310.051 198.646 315.09L198.565 315.386C197.824 315.29 197.081 315.195 196.339 315.099C181.719 313.198 167.077 311.285 152.349 310.458C147.322 310.176 142.287 310.027 137.256 310.027C127.718 310.027 118.188 310.56 108.71 311.722C80.7257 315.155 53.7019 323.645 27.6338 334.166C27.6129 334.174 27.5941 334.178 27.5766 334.178ZM126.975 278.644C61.2791 278.644 19.9502 305.04 19.9502 305.04C61.819 285.084 109.697 281.238 140.39 281.238C159.645 281.238 172.139 282.75 172.139 282.75C156.083 279.842 140.98 278.644 126.975 278.644ZM489.576 326.213C489.561 326.213 489.545 326.211 489.528 326.206C489.409 326.177 489.29 326.147 489.171 326.118C485.677 324.934 479.613 323.009 471.503 320.937C467.681 319.735 463.854 318.552 459.986 317.504C453.27 315.69 446.428 314.399 439.535 313.462C427.574 311.831 415.489 311.187 403.418 311.187C401.388 311.187 399.36 311.204 397.332 311.24C394.11 311.296 390.891 311.382 387.672 311.507C383.262 311.647 378.766 311.899 374.226 312.274C368.114 312.745 362.013 313.391 355.931 314.269C342.455 316.207 329.145 319.15 316.092 323.021L315.937 322.756C321.057 317.718 327.915 315.407 334.411 312.731C341.244 309.922 348.08 306.819 355.341 305.32C343.25 306.179 331.806 310.725 319.912 312.834C319.904 312.836 319.893 312.838 319.885 312.838C319.735 312.838 319.623 312.616 319.792 312.543L319.828 312.527H319.83C321.975 311.613 324.126 310.722 326.293 309.86C333.844 306.86 341.53 304.179 349.334 301.908C366.52 298.745 387.439 296.388 411.609 296.388C426.206 296.388 441.973 297.248 458.835 299.309C458.835 299.309 442.34 295.285 417.8 293.807C427.85 294.084 437.887 294.825 447.846 296.178C451.225 296.641 454.589 297.213 457.969 297.651C460.88 298.03 463.796 298.403 466.694 298.878C469.463 299.333 472.231 299.871 474.946 300.594C455.745 293.44 435.087 290.367 414.759 288.654C405.981 287.915 397.211 287.443 388.432 287.443C384.42 287.443 380.409 287.541 376.39 287.757C381.692 286.951 387.208 286.231 392.926 285.616C392.926 285.616 374.005 285.616 349.634 290.557C343.418 291.475 337.227 292.55 331.056 293.733C331.042 293.734 331.03 293.736 331.018 293.736C330.863 293.736 330.798 293.538 330.934 293.44C335.538 290.135 340.984 288.179 346.408 286.682C352.286 285.06 358.297 283.712 364.297 282.635C370.938 281.445 377.65 280.643 384.38 280.164C384.529 280.152 384.677 280.143 384.825 280.135C378.964 280.776 372.964 281.637 366.818 282.75C366.818 282.75 379.313 281.238 398.568 281.238C429.263 281.238 477.14 285.084 519.008 305.04C519.008 305.04 477.681 278.644 411.984 278.644C408.217 278.644 404.38 278.731 400.458 278.913C396.655 278.138 392.76 277.841 388.878 277.841C388.218 277.841 387.56 277.85 386.902 277.866C374.601 278.169 362.575 280.87 350.478 282.854C336.7 285.113 323.317 289.199 310.361 294.369C310.342 294.375 310.323 294.379 310.306 294.379C310.169 294.379 310.106 294.157 310.238 294.077C312.427 292.761 314.651 291.502 316.914 290.317C330.608 283.145 345.424 278.272 360.606 275.275C361.845 275.11 363.096 274.95 364.366 274.792C378.394 273.049 391.521 272.289 403.713 272.289C413.895 272.289 423.433 272.818 432.335 273.742C440.638 274.938 448.893 276.53 457.073 278.294C469.103 280.891 481.1 284.079 492.747 288.187C512.757 296.188 523.566 304.475 525.24 305.809C525.059 306.019 524.897 306.26 524.75 306.514C521.616 308.214 518.591 310.219 515.04 310.873C516.665 312.568 519.039 313.328 520.568 315.116L520.456 315.386C516.734 315.35 513.005 314.325 509.291 314.325C508.156 314.325 507.022 314.42 505.89 314.669C508.132 316.21 510.644 317.323 512.889 318.867C514.888 320.242 516.872 321.948 517.423 324.42L517.23 324.614C514.142 323.695 511.056 322.778 507.961 321.879C496.359 318.502 484.613 315.293 472.744 312.784C453.851 307.657 428.785 302.875 401.025 302.875C388.873 302.875 376.214 303.791 363.318 305.995C363.318 305.995 372.227 305.214 386.684 305.214C398.711 305.214 414.578 305.754 432.349 307.73C431.098 307.7 429.843 307.687 428.589 307.687C427.433 307.687 426.28 307.699 425.12 307.725L425.274 307.764C446.676 313.234 471.31 311.864 489.652 325.915C489.778 326.011 489.726 326.213 489.576 326.213ZM519.327 314.592C504.363 303.446 462.019 294.532 462.019 294.532C486.852 302.81 519.327 314.592 519.327 314.592ZM10.7088 278.353L6.68896 71.0236C6.92994 70.9081 7.17765 70.791 7.41931 70.6772L9.99333 233.2H9.83379L10.7075 278.279L10.7088 278.353ZM526.732 233.2H526.623L529.196 70.6772C529.439 70.7927 529.684 70.9081 529.927 71.0236L526.732 233.2ZM268.323 233.2H268.294V83.2996C268.304 83.291 268.313 83.2858 268.323 83.2772V233.2Z" fill="#DB9664"/>
<path d="M15.197 317.57C15.1337 317.039 15.0638 316.508 14.9863 315.981C14.987 315.981 14.987 315.979 14.9877 315.979C15.0651 316.508 15.1344 317.039 15.197 317.57ZM520.806 327.317C520.831 322.765 521.005 318.114 522.105 313.675C522.572 311.786 523.216 309.929 523.987 308.14C524.178 307.692 524.424 307.075 524.75 306.514C524.752 306.512 524.755 306.51 524.757 306.51C524.429 307.074 524.18 307.692 523.987 308.14C523.216 309.929 522.572 311.786 522.105 313.675C521.005 318.114 520.831 322.765 520.806 327.317Z" fill="#401C1C"/>
<path d="M11.337 306.155L11.2461 306.059C11.2764 306.09 11.3074 306.122 11.3376 306.155H11.337Z" fill="#714141"/>
<path d="M526.179 261.292V261.206L526.732 233.2L526.179 261.292Z" fill="#401C1C"/>
<path d="M12.5704 352.293C14.9055 345.768 15.8882 338.853 15.9777 331.865C15.9831 331.457 15.9852 331.046 15.9858 330.636C15.9872 326.275 15.7058 321.898 15.1969 317.57C15.1343 317.039 15.065 316.508 14.9876 315.979C16.0552 315.548 17.145 315.2 18.1128 314.881C18.7585 314.668 19.408 314.469 20.0602 314.278C19.9149 314.383 19.7721 314.487 19.6322 314.592C19.6322 314.592 20.4817 314.284 22.0122 313.732C23.3618 313.364 24.7149 313.007 26.0557 312.607C24.9915 315.41 23.0253 317.762 22.0252 320.597L22.1778 320.801C22.7985 320.864 23.4151 320.894 24.0296 320.894C28.9758 320.894 33.7556 318.996 38.6331 318.312C34.6925 322.61 29.142 324.909 24.6139 328.489L24.7681 328.755C33.9891 327.164 42.2518 322.331 51.3806 320.429C43.0104 324.125 34.9881 328.596 27.5111 333.873C27.3898 333.96 27.4396 334.178 27.5763 334.178C27.5938 334.178 27.6126 334.174 27.6335 334.166C53.7016 323.645 80.7254 315.155 108.709 311.722C118.187 310.56 127.718 310.027 137.256 310.027C142.287 310.027 147.322 310.176 152.349 310.458C167.077 311.285 181.719 313.198 196.338 315.099C197.081 315.195 197.824 315.29 198.565 315.386L198.646 315.09C186.871 310.051 174.058 308.057 161.373 307.003C154.903 306.463 148.414 306.2 141.927 305.983C138.978 305.883 136.03 305.769 133.081 305.66C140.186 305.333 146.651 305.214 152.275 305.214C166.732 305.214 175.641 305.995 175.641 305.995C162.746 303.791 150.087 302.875 137.935 302.875C125.147 302.875 112.929 303.891 101.625 305.487C92.3973 305.883 83.1965 306.773 74.0932 308.407C91.3379 301.825 109.872 299.923 128.344 299.923C136.196 299.923 144.039 300.267 151.762 300.741C175.409 302.194 198.953 306.514 221.766 312.834C221.78 312.839 221.793 312.841 221.806 312.841C221.954 312.841 222.042 312.616 221.888 312.543C210.758 307.478 199.08 303.903 187.14 301.461C223.651 307.877 244.095 318.093 244.095 318.093C230.272 310.272 215.761 304.748 201.334 300.929C201.73 301.006 202.125 301.084 202.52 301.161C208.334 302.304 214.177 303.314 219.979 304.512C225.659 305.691 231.361 307.268 236.373 310.27C236.401 310.287 236.43 310.296 236.456 310.296C236.592 310.296 236.677 310.089 236.535 309.996C225.876 303.046 213.343 299.754 201.198 296.448C193.185 294.268 185.17 292.021 177.061 290.25C223.418 299.179 250.143 313.634 250.143 313.634C229.543 300.498 205.371 293.52 185.506 289.814C188.584 290.033 191.657 290.285 194.724 290.617C206.398 291.88 217.887 294.723 229.088 298.187C229.103 298.192 229.12 298.195 229.134 298.195C229.281 298.195 229.35 297.978 229.212 297.898C229.007 297.777 228.802 297.656 228.597 297.538C243.209 303.341 255.237 308.542 255.237 308.542C244.062 301.469 229.369 295.654 216.489 291.373C199.016 283.648 179.865 279.773 160.932 277.953C152.12 277.107 143.269 276.709 134.412 276.709C119.073 276.709 103.722 277.901 88.5539 280.007C63.892 283.43 38.8687 289.356 17.3173 302.281C15.2797 303.501 13.2893 304.803 11.3373 306.155C11.307 306.122 11.276 306.09 11.2457 306.059L11.243 305.915C13.461 304.118 53.8827 272.289 132.899 272.289H132.903H132.904C145.044 272.291 158.11 273.042 172.073 274.771C172.132 274.777 172.191 274.784 172.25 274.792C177.244 275.411 181.982 276.085 186.485 276.804C186.478 276.804 186.471 276.802 186.463 276.802C231.897 284.04 253.293 295.78 268.294 302.995V233.2H268.323V302.995C270.879 301.766 273.622 300.404 276.638 298.957L276.636 298.955C292.617 291.282 316.271 281.171 360.605 275.275C345.424 278.272 330.608 283.145 316.914 290.317C314.651 291.502 312.427 292.76 310.238 294.077C310.105 294.157 310.169 294.379 310.305 294.379C310.323 294.379 310.341 294.375 310.36 294.369C323.317 289.199 336.699 285.113 350.478 282.854C362.575 280.87 374.601 278.168 386.901 277.866C387.56 277.85 388.218 277.841 388.878 277.841C392.76 277.841 396.655 278.138 400.458 278.913C395.376 279.151 390.16 279.55 384.825 280.135C384.677 280.143 384.528 280.152 384.38 280.164C377.649 280.643 370.938 281.445 364.296 282.635C358.296 283.712 352.286 285.06 346.408 286.682C340.983 288.179 335.538 290.135 330.934 293.44C330.798 293.538 330.863 293.736 331.018 293.736C331.03 293.736 331.042 293.734 331.056 293.733C337.227 292.55 343.418 291.475 349.634 290.557C330.546 294.427 308.112 301.329 288.814 313.634C288.814 313.634 321.148 296.144 376.39 287.757C380.408 287.541 384.42 287.443 388.431 287.443C397.211 287.443 405.98 287.915 414.758 288.654C435.087 290.367 455.745 293.44 474.946 300.594C472.23 299.871 469.463 299.333 466.694 298.878C463.795 298.403 460.88 298.03 457.969 297.651C454.588 297.213 451.225 296.641 447.845 296.178C437.887 294.825 427.85 294.084 417.8 293.806C412.279 293.474 406.349 293.271 400.11 293.271C368.808 293.271 329.677 298.397 294.865 318.093C294.865 318.093 314.384 308.338 349.334 301.908C341.53 304.179 333.844 306.86 326.293 309.86C324.125 310.722 321.975 311.613 319.829 312.527H319.828L319.791 312.543C319.623 312.616 319.735 312.838 319.885 312.838C319.893 312.838 319.903 312.836 319.912 312.834C331.806 310.725 343.249 306.179 355.341 305.32C348.079 306.819 341.244 309.922 334.411 312.731C327.915 315.407 321.056 317.718 315.937 322.756L316.092 323.021C329.145 319.15 342.455 316.207 355.93 314.269C362.013 313.391 368.113 312.745 374.225 312.274C353.561 313.983 331.704 318.295 309.961 326.683C302.434 329.405 298.577 331.465 298.577 331.465C302.363 329.742 306.161 328.15 309.961 326.683C324.539 321.417 352.892 313.682 393.667 313.682C421.138 313.682 454.238 317.19 492.581 327.328C492.581 327.328 491.399 326.873 489.171 326.118C489.29 326.147 489.409 326.177 489.528 326.206C489.545 326.211 489.561 326.213 489.576 326.213C489.726 326.213 489.778 326.011 489.652 325.915C471.31 311.864 446.675 313.234 425.273 307.764L425.12 307.725C426.28 307.699 427.432 307.687 428.589 307.687C429.843 307.687 431.098 307.7 432.349 307.73C455.789 310.336 482.544 315.439 508.185 325.1C508.185 325.1 494.582 318.71 472.744 312.784C484.613 315.293 496.359 318.502 507.961 321.879C511.056 322.778 514.142 323.695 517.23 324.614L517.423 324.42C516.871 321.948 514.888 320.242 512.889 318.867C510.644 317.323 508.131 316.21 505.889 314.669C507.022 314.419 508.155 314.325 509.291 314.325C513.005 314.325 516.734 315.35 520.456 315.386L520.568 315.116C519.039 313.328 516.665 312.568 515.04 310.873C518.591 310.219 521.615 308.214 524.75 306.514C524.424 307.075 524.178 307.692 523.987 308.14C523.216 309.929 522.572 311.786 522.105 313.675C521.005 318.114 520.831 322.765 520.805 327.317C520.804 327.512 520.804 327.709 520.804 327.905C520.807 336.07 521.812 344.37 524.181 352.207C524.031 352.085 523.797 351.899 523.478 351.653C517.166 346.773 477.729 318.771 403.74 318.771C391.557 318.771 378.428 319.531 364.365 321.278C332.173 325.277 310.517 331.483 294.786 337.535C294.65 337.586 294.514 337.64 294.376 337.691C294.237 336.49 294.107 335.287 293.926 334.092C293.9 333.921 293.873 333.75 293.845 333.578C293.246 329.87 292.265 326.237 290.452 322.92C289.46 321.104 288.174 319.503 286.911 317.871C285.583 316.15 284.213 314.444 282.539 313.039C281.855 312.463 281.106 311.952 280.313 311.499C277.696 310.001 274.601 309.124 271.744 308.611C270.284 308.349 268.819 308.197 267.365 308.197C265.03 308.197 262.723 308.586 260.517 309.533C258.789 310.275 257.159 311.261 255.639 312.407C253.759 313.823 252.049 315.484 250.531 317.225C249.175 318.781 248.026 320.459 247.154 322.329C246.266 324.235 245.706 326.272 245.174 328.295C244.416 331.162 243.278 333.928 242.587 336.809C242.511 337.119 242.442 337.433 242.379 337.748C242.191 337.674 242 337.6 241.81 337.527C226.081 331.477 204.432 325.276 172.25 321.278C158.252 319.537 145.192 318.781 133.055 318.781C63.83 318.781 24.7492 343.398 14.7412 350.65C13.7093 351.398 12.9857 351.961 12.5704 352.293ZM228.996 326.685C232.798 328.152 236.594 329.742 240.38 331.465C240.38 331.465 236.525 329.405 228.996 326.685C199.273 315.216 169.323 311.368 142.519 311.368C87.9225 311.368 46.376 327.328 46.376 327.328C84.7184 317.19 117.82 313.682 145.29 313.682C186.065 313.682 214.42 321.417 228.996 326.685ZM351.855 283.071C351.855 283.071 308.873 292.622 283.722 308.542C283.722 308.542 330.844 288.165 351.855 283.071ZM471.503 320.937C454.132 316.494 427.379 311.368 396.439 311.368C393.549 311.368 390.63 311.413 387.672 311.507C390.89 311.382 394.109 311.296 397.332 311.24C399.36 311.204 401.388 311.187 403.418 311.187C415.489 311.187 427.574 311.831 439.534 313.462C446.427 314.399 453.27 315.69 459.985 317.504C463.854 318.552 467.681 319.735 471.503 320.937ZM43.3059 309.134C66.2115 297.527 92.2532 293.484 117.693 292.671C121.203 292.559 124.719 292.502 128.239 292.502C137.939 292.502 147.661 292.938 157.294 293.86C157.531 293.883 157.766 293.905 158.002 293.929C151.38 293.467 144.965 293.271 138.849 293.271C104.877 293.271 80.1257 299.309 80.1257 299.309C96.9867 297.248 112.754 296.388 127.35 296.388C136.382 296.388 144.959 296.717 153.058 297.295C149.683 297.124 146.308 297.013 142.941 296.958C137.882 296.874 132.812 296.817 127.738 296.817C118.279 296.817 108.81 297.017 99.3938 297.627C92.2345 298.094 85.0306 298.798 77.9866 300.184C70.9463 301.568 64.0871 303.732 57.1992 305.709C52.6125 307.02 47.9949 308.245 43.3059 309.134ZM492.747 288.187C481.1 284.079 469.103 280.891 457.073 278.294C448.893 276.53 440.637 274.938 432.335 273.742C457.637 276.37 477.767 282.197 492.747 288.187ZM10.7072 278.279L9.8335 233.2H9.99303L10.7072 278.279ZM526.178 261.206L526.623 233.2H526.732L526.178 261.206Z" fill="#CC7649"/>
<path d="M243.037 339.368C243.714 339.606 244.283 339.533 244.76 339.277C246.601 322.943 256.647 310.453 268.769 310.453C280.83 310.453 290.84 322.817 292.751 339.037C293.892 339.606 295.62 338.386 296.584 337.04C293.745 319.093 282.372 305.678 268.769 305.678C255.053 305.678 243.601 319.321 240.885 337.493C241.421 338.334 242.138 339.053 243.037 339.368Z" fill="#AF5454"/>
<path d="M240.38 331.465C236.594 329.742 232.798 328.152 228.996 326.685C236.525 329.405 240.38 331.465 240.38 331.465ZM46.376 327.328C46.376 327.328 87.9225 311.368 142.52 311.368C169.323 311.368 199.273 315.216 228.996 326.685C214.42 321.417 186.065 313.682 145.29 313.682C117.82 313.682 84.7184 317.19 46.376 327.328Z" fill="#C4673C"/>
<path d="M30.7744 325.1C30.7744 325.1 60.0277 311.359 101.625 305.487C105.795 305.309 109.969 305.229 114.144 305.229C116.266 305.229 118.387 305.25 120.508 305.288C124.701 305.363 128.892 305.505 133.081 305.66C104.953 306.958 66.7649 311.54 30.7744 325.1Z" fill="#D28351"/>
<path d="M175.641 305.995C175.641 305.995 166.732 305.214 152.275 305.214C146.651 305.214 140.186 305.333 133.081 305.66C128.891 305.505 124.7 305.363 120.508 305.288C118.387 305.25 116.266 305.229 114.144 305.229C109.969 305.229 105.794 305.309 101.625 305.487C112.929 303.891 125.147 302.875 137.935 302.875C150.087 302.875 162.746 303.791 175.641 305.995Z" fill="#C4673C"/>
<path d="M187.14 301.461C176.992 299.678 165.598 298.189 153.058 297.295C164.487 297.877 175.929 299.169 187.14 301.461ZM201.334 300.929C186.978 298.113 172.573 295.37 158.002 293.929C171.817 294.892 186.53 297.01 201.334 300.929Z" fill="#D28351"/>
<path d="M244.095 318.094C244.095 318.094 223.651 307.877 187.14 301.461C175.929 299.169 164.487 297.877 153.058 297.295C144.959 296.717 136.382 296.388 127.35 296.388C112.754 296.388 96.9869 297.248 80.126 299.309C80.126 299.309 104.877 293.271 138.849 293.271C144.965 293.271 151.38 293.467 158.002 293.929C172.573 295.37 186.978 298.113 201.334 300.929C215.761 304.748 230.272 310.272 244.095 318.094Z" fill="#C4673C"/>
<path d="M19.9502 305.04C19.9502 305.04 61.2791 278.644 126.975 278.644C140.98 278.644 156.082 279.842 172.139 282.75C172.139 282.75 159.645 281.238 140.39 281.238C109.697 281.238 61.819 285.084 19.9502 305.04Z" fill="#D28351"/>
<path d="M228.597 297.538C214.289 291.853 197.5 285.59 187.104 283.071C187.104 283.071 200.378 286.021 216.49 291.373C220.629 293.205 224.673 295.25 228.597 297.538Z" fill="#D28351"/>
<path d="M255.237 308.542C255.237 308.542 243.21 303.341 228.597 297.538C224.673 295.25 220.629 293.205 216.49 291.373C229.369 295.654 244.063 301.469 255.237 308.542Z" fill="#C4673C"/>
<path d="M177.061 290.25C167.527 288.415 157.166 286.812 146.032 285.616C146.032 285.616 163.005 285.616 185.506 289.814C180.08 289.43 174.643 289.149 169.222 288.71C171.847 289.163 174.459 289.682 177.061 290.25Z" fill="#D28351"/>
<path d="M250.143 313.634C250.143 313.634 223.418 299.179 177.061 290.25C174.459 289.682 171.847 289.163 169.222 288.71C174.643 289.149 180.08 289.43 185.506 289.814C205.371 293.52 229.543 300.498 250.143 313.634Z" fill="#C4673C"/>
<path d="M20.0601 314.278C35.3877 303.281 76.9403 294.532 76.9403 294.532C56.1253 301.471 29.9402 310.872 22.0121 313.732C21.3599 313.909 20.709 314.09 20.0601 314.278Z" fill="#D28351"/>
<path d="M19.6323 314.592C19.7722 314.487 19.9151 314.383 20.0604 314.278C20.7093 314.09 21.3602 313.909 22.0124 313.732C20.4819 314.284 19.6323 314.592 19.6323 314.592Z" fill="#C4673C"/>
<path d="M298.577 331.465C298.577 331.465 302.434 329.405 309.961 326.683C306.161 328.15 302.363 329.742 298.577 331.465Z" fill="#C4673C"/>
<path d="M489.171 326.118C486.14 325.365 483.135 324.522 480.142 323.621C477.255 322.753 474.381 321.839 471.503 320.937C479.613 323.009 485.677 324.934 489.171 326.118ZM374.226 312.274C378.766 311.899 383.262 311.647 387.672 311.507C383.184 311.681 378.701 311.93 374.226 312.274Z" fill="#D28351"/>
<path d="M492.582 327.328C454.239 317.19 421.138 313.682 393.667 313.682C352.893 313.682 324.539 321.417 309.961 326.683C331.704 318.295 353.561 313.983 374.226 312.274C378.701 311.93 383.185 311.681 387.672 311.507C390.631 311.413 393.55 311.368 396.439 311.368C427.379 311.368 454.132 316.494 471.503 320.937C474.381 321.839 477.255 322.753 480.142 323.621C483.135 324.522 486.14 325.365 489.171 326.118C491.399 326.873 492.582 327.328 492.582 327.328Z" fill="#C4673C"/>
<path d="M472.744 312.784C459.429 309.97 445.955 308.037 432.349 307.73C414.578 305.754 398.711 305.214 386.684 305.214C372.227 305.214 363.318 305.995 363.318 305.995C376.214 303.791 388.873 302.875 401.025 302.875C428.785 302.875 453.851 307.657 472.744 312.784Z" fill="#D28351"/>
<path d="M508.185 325.1C482.544 315.439 455.789 310.336 432.349 307.73C445.955 308.037 459.429 309.97 472.744 312.784C494.582 318.71 508.185 325.1 508.185 325.1Z" fill="#C4673C"/>
<path d="M349.334 301.908C354.653 300.36 360.028 299.004 365.453 297.868C378.77 295.08 392.209 293.781 405.805 293.688C406.646 293.683 407.487 293.679 408.328 293.679C411.484 293.679 414.641 293.72 417.8 293.807C442.34 295.285 458.834 299.309 458.834 299.309C441.973 297.248 426.206 296.388 411.608 296.388C387.439 296.388 366.519 298.745 349.334 301.908Z" fill="#D28351"/>
<path d="M294.866 318.094C329.678 298.397 368.808 293.271 400.11 293.271C406.349 293.271 412.279 293.474 417.8 293.807C414.641 293.72 411.485 293.679 408.328 293.679C407.487 293.679 406.646 293.683 405.805 293.688C392.209 293.781 378.77 295.08 365.453 297.868C360.028 299.004 354.654 300.36 349.334 301.908C314.384 308.339 294.866 318.094 294.866 318.094Z" fill="#C4673C"/>
<path d="M519.008 305.04C477.14 285.084 429.262 281.238 398.567 281.238C379.312 281.238 366.817 282.75 366.817 282.75C372.964 281.637 378.964 280.776 384.825 280.135C385.836 280.075 386.858 280.055 387.885 280.055C388.843 280.055 389.808 280.073 390.773 280.088C391.738 280.106 392.705 280.123 393.668 280.123C396.496 280.123 399.303 279.978 402.008 279.258C401.493 279.134 400.976 279.02 400.458 278.913C404.38 278.731 408.217 278.644 411.984 278.644C477.681 278.644 519.008 305.04 519.008 305.04Z" fill="#D28351"/>
<path d="M384.825 280.135C390.16 279.551 395.376 279.151 400.458 278.913C400.976 279.02 401.493 279.134 402.008 279.258C399.303 279.978 396.496 280.123 393.668 280.123C392.705 280.123 391.738 280.106 390.773 280.088C389.808 280.073 388.843 280.055 387.885 280.055C386.858 280.055 385.836 280.075 384.825 280.135Z" fill="#C4673C"/>
<path d="M283.722 308.542C308.873 292.623 351.855 283.071 351.855 283.071C330.844 288.165 283.722 308.542 283.722 308.542Z" fill="#C4673C"/>
<path d="M349.634 290.557C374.005 285.616 392.926 285.616 392.926 285.616C387.208 286.231 381.692 286.951 376.39 287.757C375.47 287.806 374.551 287.861 373.631 287.924C365.594 288.467 357.597 289.382 349.634 290.557Z" fill="#D28351"/>
<path d="M288.814 313.634C308.112 301.329 330.546 294.427 349.634 290.557C357.597 289.381 365.594 288.467 373.631 287.923C374.551 287.861 375.47 287.806 376.39 287.757C321.148 296.144 288.814 313.634 288.814 313.634Z" fill="#C4673C"/>
<path d="M519.327 314.592C519.327 314.592 486.851 302.81 462.019 294.532C462.019 294.532 504.363 303.446 519.327 314.592Z" fill="#D28351"/>
<path d="M6.68896 24.5388C82.7013 -11.8224 208.546 -7.93481 268.294 37.2749V302.995C251.808 295.065 227.603 281.67 172.25 274.792C64.6347 261.421 11.1464 305.995 11.1464 305.995L6.68896 24.5388Z" fill="#F3E1C0"/>
<path d="M11.2432 305.915C13.4618 304.118 53.8713 272.286 132.899 272.289C53.8828 272.289 13.4611 304.118 11.2432 305.915Z" fill="#C4673C"/>
<path d="M7.29007 24.2527C41.3394 8.11499 85.2463 -0.00122452 128.723 0.000497818C85.2525 0.00222206 41.3345 8.11672 7.29007 24.2527Z" fill="#F3D8BC"/>
<path d="M11.1464 305.995L10.7088 278.353L6.68896 24.5387C6.77244 24.4991 6.86196 24.456 6.9461 24.4164C6.99659 24.3905 7.03831 24.3716 7.08947 24.3474C7.09419 24.3457 7.10496 24.3405 7.10967 24.3371C7.17025 24.3095 7.22948 24.2802 7.29007 24.2527C41.3345 8.1167 85.2525 0.00219727 128.723 0.000457764H128.727H128.731C169.39 0.000457764 209.666 7.10175 241.114 21.3784C242.346 22.24 243.553 23.136 244.723 24.0752C249.753 28.1126 253.702 32.8256 255.86 38.9774C258.053 45.2326 258.698 51.8996 258.989 58.4822C259.337 66.3537 259.523 74.2442 259.642 82.1261C260.193 118.794 257.931 259.899 257.748 267.805C257.609 273.875 257.105 283.418 250.676 286.447C249.286 287.102 247.819 287.365 246.339 287.365C244.037 287.365 241.7 286.728 239.56 285.932C233.053 283.51 211.177 278.06 206.802 277.796C202.187 277.521 197.571 277.285 192.953 277.079C190.799 276.989 188.641 276.892 186.486 276.804C181.983 276.085 177.244 275.411 172.25 274.792C172.191 274.784 172.132 274.777 172.073 274.771C158.104 273.042 145.049 272.289 132.904 272.289H132.903H132.899C53.8715 272.286 13.4619 304.118 11.2433 305.915C11.1787 305.967 11.1464 305.995 11.1464 305.995ZM49.06 265.791C38.9632 272.355 29.0165 279.221 20.1554 287.415L20.3109 287.682C27.6284 286.175 34.328 282.675 40.9954 279.435C44.6996 277.635 48.4327 275.892 52.297 274.46C56.1769 273.021 60.2373 272.058 64.2437 271.044C81.6781 266.618 99.6405 264.471 117.556 263.196C131.817 262.181 146.245 261.398 160.662 261.398C180.125 261.398 199.568 262.825 218.53 267.028C228.898 269.327 239.067 272.558 248.791 276.842L249.008 276.624C245.064 269.401 237.383 265.333 230.284 261.805C228.438 260.89 226.581 260.001 224.737 259.084C223.789 258.616 222.847 258.135 221.913 257.642C222.025 257.702 222.173 257.726 222.342 257.726C222.931 257.726 223.772 257.435 224.217 257.385C224.942 257.301 225.667 257.249 226.395 257.195C227.465 257.123 228.537 257.087 229.608 257.087C234.375 257.087 239.136 257.795 243.733 259.026L243.914 258.793C238.681 251.135 229.122 248.683 220.72 246.126C224.997 244.593 229.484 243.76 233.739 242.199C236.689 241.115 238.457 239.102 239.391 236.121C240.141 233.729 240.396 231.175 240.621 228.692C241.019 224.276 241.142 219.822 241.376 215.393C241.869 206.082 241.914 67.5755 241.903 63.4071C241.903 63.1882 241.903 62.9659 241.903 62.7436C241.903 59.3007 241.96 55.8578 241.802 52.4148C241.502 45.9149 240.206 39.3306 235.846 34.2713C231.535 29.2706 225.392 25.6726 219.495 22.8862C213.155 19.8896 206.414 17.7907 199.628 16.0761C192.975 14.3943 186.218 13.1467 179.46 11.9749C170.546 10.4223 161.764 7.98401 152.903 6.14536C150.421 5.63013 143.962 5.41818 135.767 5.41818C114.595 5.41818 81.8553 6.84323 76.31 8.1839C70.233 9.65378 64.1272 11.0013 58.0555 12.4953C47.242 15.1542 22.6487 30.8474 20.1884 32.6791C20.1696 32.6929 20.3514 32.6998 20.6912 32.6998C22.8224 32.6998 31.1811 32.4602 35.5679 32.3534C30.5087 35.2466 24.6533 37.1508 20.2773 41.0831C15.2841 45.5703 15.0808 52.9266 14.8997 59.1732C14.6486 67.8495 19.2306 148.953 19.9239 167.672C20.2719 177.043 20.6717 186.41 21.1308 195.778C21.5831 205.04 22.261 214.299 22.6717 223.559C22.6858 223.876 22.7006 224.195 22.7194 224.512C23.1838 233.086 26.6774 268.193 22.6784 275.987L22.8957 276.204C31.3226 272.012 40.1512 268.786 49.06 265.791ZM268.006 37.0594C267.998 37.0526 267.991 37.0474 267.982 37.0405C267.989 37.0457 267.999 37.0526 268.006 37.0594ZM267.91 36.9871C267.903 36.9802 267.894 36.975 267.886 36.9681C267.894 36.9733 267.903 36.9819 267.91 36.9871ZM267.815 36.9147C267.806 36.9095 267.798 36.9026 267.789 36.8958C267.796 36.9009 267.806 36.9095 267.815 36.9147ZM267.719 36.8423C267.71 36.8372 267.701 36.8303 267.693 36.8234C267.703 36.832 267.707 36.8354 267.719 36.8423ZM267.622 36.77C267.613 36.7648 267.605 36.7579 267.595 36.751C267.607 36.7596 267.612 36.7631 267.622 36.77ZM267.526 36.6993C267.517 36.6924 267.508 36.6855 267.5 36.6803C267.507 36.6855 267.519 36.6941 267.526 36.6993ZM267.429 36.6269C267.42 36.62 267.41 36.6132 267.402 36.6063C267.408 36.6132 267.422 36.6218 267.429 36.6269ZM267.333 36.5563C267.324 36.5494 267.314 36.5425 267.303 36.5339C267.315 36.5425 267.322 36.5477 267.333 36.5563ZM267.236 36.4839C267.226 36.477 267.217 36.4701 267.207 36.4632C267.217 36.4718 267.226 36.477 267.236 36.4839ZM267.14 36.4133C267.129 36.4064 267.121 36.3995 267.11 36.3926C267.119 36.3978 267.131 36.4081 267.14 36.4133ZM267.041 36.3409C267.033 36.334 267.022 36.3271 267.014 36.3202C267.021 36.3254 267.034 36.3357 267.041 36.3409ZM266.945 36.2702C266.936 36.2633 266.926 36.2564 266.916 36.2495C266.928 36.2564 266.935 36.2633 266.945 36.2702ZM266.848 36.1996C266.838 36.1927 266.828 36.1841 266.819 36.1772C266.829 36.1858 266.838 36.191 266.848 36.1996ZM266.752 36.1289C266.742 36.1203 266.731 36.1134 266.721 36.1065C266.728 36.1117 266.743 36.1237 266.752 36.1289ZM266.266 35.7757C266.256 35.7671 266.244 35.7585 266.231 35.7498C266.242 35.7585 266.256 35.7671 266.266 35.7757ZM266.169 35.705C266.157 35.6964 266.145 35.6878 266.133 35.6792C266.144 35.6878 266.159 35.6982 266.169 35.705ZM266.073 35.6361C266.061 35.6275 266.047 35.6171 266.035 35.6085C266.049 35.6189 266.059 35.6258 266.073 35.6361ZM265.975 35.5654C265.963 35.5568 265.949 35.5465 265.937 35.5379C265.949 35.5465 265.964 35.5585 265.975 35.5654ZM265.88 35.4965C265.866 35.4879 265.851 35.4776 265.839 35.4672C265.849 35.4741 265.868 35.4879 265.88 35.4965ZM265.689 35.3604C265.673 35.3483 265.656 35.338 265.64 35.3259C265.659 35.3397 265.67 35.3466 265.689 35.3604ZM265.596 35.2949C265.578 35.2811 265.559 35.269 265.542 35.2552C265.558 35.2656 265.582 35.2846 265.596 35.2949ZM265.509 35.2311C265.487 35.2156 265.465 35.2001 265.442 35.1846C265.465 35.2001 265.485 35.2156 265.509 35.2311ZM265.434 35.1777C259.639 31.0593 253.278 27.3062 246.449 23.9132C253.277 27.3044 259.64 31.061 265.434 35.1777ZM246.304 23.8408C246.284 23.8305 246.261 23.8202 246.241 23.8098C246.263 23.8219 246.282 23.8305 246.304 23.8408ZM246.17 23.7753C246.158 23.7685 246.148 23.7633 246.136 23.7581C246.149 23.765 246.156 23.7685 246.17 23.7753ZM246.03 23.7064C246.03 23.7047 246.03 23.7064 246.03 23.7047V23.7064Z" fill="#E7C092"/>
<path d="M268.294 302.995C253.294 295.78 231.897 284.04 186.463 276.802C186.472 276.802 186.478 276.804 186.485 276.804C231.907 284.043 253.295 295.78 268.294 302.995Z" fill="#C4673C"/>
<path d="M268.294 37.2748C268.261 37.2507 268.232 37.2283 268.197 37.2042C268.23 37.2283 268.261 37.2507 268.294 37.2748ZM268.173 37.1852C268.151 37.168 268.125 37.1473 268.103 37.1318C268.127 37.149 268.149 37.1663 268.173 37.1852ZM268.077 37.1111C268.054 37.0956 268.029 37.075 268.006 37.0594C268.03 37.0767 268.053 37.0939 268.077 37.1111ZM267.98 37.0388C267.958 37.0233 267.932 37.0043 267.91 36.9871C267.934 37.0043 267.956 37.0215 267.98 37.0388ZM267.884 36.9664C267.858 36.9492 267.841 36.9336 267.815 36.9147C267.839 36.9336 267.861 36.9492 267.884 36.9664ZM267.591 36.7475C267.568 36.732 267.549 36.7165 267.527 36.6993C267.548 36.7165 267.57 36.732 267.591 36.7475ZM267.494 36.6769C267.475 36.6631 267.45 36.6424 267.431 36.6286C267.451 36.6442 267.472 36.6596 267.494 36.6769ZM267.396 36.6045C267.379 36.5907 267.353 36.5718 267.336 36.558C267.355 36.5735 267.377 36.589 267.396 36.6045ZM267.298 36.5304C267.276 36.5149 267.262 36.5028 267.239 36.4873C267.258 36.5011 267.279 36.5166 267.298 36.5304ZM267.2 36.458C267.182 36.4443 267.162 36.4305 267.143 36.4167C267.162 36.4305 267.181 36.4443 267.2 36.458ZM267.103 36.3874C267.084 36.3736 267.065 36.3598 267.048 36.346C267.067 36.3598 267.084 36.3736 267.103 36.3874ZM267.005 36.315C266.986 36.3012 266.971 36.2892 266.952 36.2754C266.969 36.2874 266.988 36.3012 267.005 36.315ZM266.907 36.2427C266.893 36.2323 266.871 36.2168 266.855 36.2047C266.874 36.2168 266.89 36.2306 266.907 36.2427ZM266.809 36.1703C266.79 36.1565 266.779 36.1496 266.76 36.1358C266.778 36.1479 266.793 36.1582 266.809 36.1703ZM266.612 36.0255C266.597 36.0152 266.586 36.0083 266.572 35.9979C266.586 36.0066 266.598 36.0169 266.612 36.0255ZM266.514 35.9549C266.502 35.9463 266.488 35.9359 266.478 35.929C266.49 35.9376 266.502 35.9463 266.514 35.9549ZM266.316 35.8119C266.309 35.8067 266.298 35.7981 266.29 35.7929C266.298 35.7998 266.309 35.8067 266.316 35.8119ZM266.217 35.7412C266.211 35.736 266.205 35.7309 266.199 35.7257C266.204 35.7309 266.211 35.736 266.217 35.7412ZM266.021 35.5982L266.018 35.5965C266.019 35.5965 266.019 35.5982 266.021 35.5982Z" fill="#F3D8BC"/>
<path d="M268.294 37.2748C268.261 37.2507 268.23 37.2283 268.197 37.2042C268.232 37.2283 268.261 37.2507 268.294 37.2748ZM268.179 37.1887C268.156 37.1714 268.123 37.1473 268.103 37.1301V37.1318C268.125 37.1473 268.151 37.168 268.173 37.1852C268.175 37.1852 268.177 37.187 268.179 37.1887ZM268.08 37.1146C268.054 37.0956 268.032 37.0784 268.006 37.0594C268.029 37.075 268.054 37.0956 268.077 37.1111C268.077 37.1128 268.079 37.1129 268.08 37.1146ZM267.982 37.0405C267.956 37.0215 267.936 37.006 267.91 36.9871C267.932 37.0043 267.958 37.0233 267.98 37.0388L267.982 37.0405ZM267.886 36.9681C267.86 36.9492 267.841 36.9336 267.815 36.9147C267.841 36.9336 267.858 36.9492 267.884 36.9664C267.886 36.9681 267.886 36.9681 267.886 36.9681ZM267.789 36.8957C267.767 36.8802 267.739 36.8595 267.718 36.8423C267.718 36.8423 267.718 36.8423 267.718 36.844C267.741 36.8596 267.763 36.8768 267.786 36.894C267.787 36.894 267.787 36.894 267.789 36.8957ZM267.693 36.8234C267.67 36.8079 267.644 36.7872 267.622 36.7699C267.622 36.7717 267.622 36.7717 267.624 36.7717C267.644 36.7889 267.667 36.8044 267.689 36.8216C267.691 36.8216 267.691 36.8234 267.693 36.8234ZM267.594 36.751C267.574 36.7355 267.548 36.7148 267.525 36.6993C267.525 36.6993 267.525 36.6993 267.527 36.6993C267.55 36.7165 267.569 36.732 267.591 36.7475C267.593 36.7493 267.594 36.7493 267.594 36.751ZM267.5 36.6803C267.474 36.6596 267.455 36.6476 267.429 36.6269C267.429 36.6286 267.431 36.6286 267.431 36.6286C267.45 36.6424 267.475 36.6631 267.494 36.6769C267.496 36.6769 267.498 36.6786 267.5 36.6803ZM267.401 36.6062C267.379 36.5907 267.355 36.5735 267.332 36.5563C267.334 36.558 267.334 36.558 267.336 36.558C267.353 36.5718 267.379 36.5907 267.396 36.6045C267.398 36.6045 267.4 36.6062 267.401 36.6062ZM267.303 36.5339C267.281 36.5184 267.258 36.5011 267.236 36.4839C267.238 36.4856 267.238 36.4873 267.239 36.4873C267.262 36.5028 267.276 36.5149 267.298 36.5304C267.3 36.5321 267.301 36.5339 267.303 36.5339ZM267.207 36.4632C267.184 36.4477 267.162 36.4288 267.139 36.4132C267.141 36.4132 267.141 36.415 267.143 36.4167C267.162 36.4305 267.183 36.4443 267.2 36.458C267.203 36.4598 267.205 36.4615 267.207 36.4632ZM267.11 36.3926C267.084 36.3736 267.067 36.3615 267.041 36.3409C267.043 36.3426 267.045 36.3443 267.048 36.346C267.065 36.3598 267.084 36.3736 267.103 36.3874C267.105 36.3891 267.108 36.3908 267.11 36.3926ZM267.014 36.3202C266.991 36.3047 266.967 36.2874 266.945 36.2702C266.948 36.2719 266.95 36.2737 266.952 36.2754C266.971 36.2892 266.986 36.3012 267.005 36.315C267.008 36.3167 267.01 36.3185 267.014 36.3202ZM266.915 36.2495C266.893 36.2323 266.871 36.2151 266.848 36.1996C266.85 36.2013 266.853 36.203 266.855 36.2047C266.871 36.2168 266.893 36.2323 266.907 36.2427C266.91 36.2444 266.914 36.2478 266.915 36.2495ZM266.819 36.1772C266.797 36.1617 266.774 36.1444 266.752 36.1289C266.755 36.1306 266.759 36.1341 266.76 36.1358C266.779 36.1496 266.79 36.1565 266.809 36.1703C266.812 36.1737 266.815 36.1754 266.819 36.1772ZM266.721 36.1065C266.698 36.0893 266.678 36.0738 266.655 36.0583C266.659 36.06 266.662 36.0634 266.666 36.0652C266.681 36.0772 266.697 36.0875 266.71 36.0996C266.714 36.1013 266.717 36.1031 266.721 36.1065ZM266.622 36.0341C266.6 36.0186 266.579 36.0031 266.557 35.9859C266.562 35.9893 266.567 35.9945 266.572 35.9979C266.586 36.0083 266.597 36.0152 266.612 36.0255C266.616 36.029 266.619 36.0324 266.622 36.0341ZM266.526 35.9635C266.504 35.948 266.483 35.9325 266.46 35.9152C266.466 35.9204 266.471 35.9238 266.478 35.929C266.488 35.9359 266.502 35.9463 266.514 35.9549C266.517 35.9583 266.523 35.9618 266.526 35.9635ZM266.428 35.8928C266.409 35.8791 266.383 35.8601 266.364 35.8463C266.369 35.8498 266.378 35.8566 266.385 35.8601C266.395 35.8687 266.404 35.8756 266.414 35.8825C266.419 35.8859 266.423 35.8894 266.428 35.8928ZM266.33 35.8205C266.307 35.8049 266.288 35.7912 266.266 35.7757C266.274 35.7825 266.281 35.7877 266.29 35.7929C266.298 35.7981 266.309 35.8067 266.316 35.8119C266.321 35.8153 266.324 35.817 266.33 35.8205ZM266.231 35.7498C266.209 35.7343 266.192 35.7222 266.169 35.705C266.18 35.7119 266.188 35.7188 266.199 35.7257C266.205 35.7309 266.211 35.736 266.218 35.7412C266.223 35.7446 266.226 35.7464 266.231 35.7498ZM266.133 35.6792C266.114 35.6654 266.092 35.6499 266.073 35.6361C266.085 35.6447 266.095 35.6533 266.107 35.6602C266.111 35.6637 266.116 35.6671 266.119 35.6688C266.124 35.6723 266.128 35.6757 266.133 35.6792ZM266.035 35.6085C266.016 35.5947 265.994 35.5792 265.975 35.5654C265.99 35.5758 266.004 35.5861 266.018 35.5965L266.021 35.5982C266.025 35.6016 266.03 35.6051 266.035 35.6085ZM265.937 35.5378C265.914 35.5223 265.902 35.512 265.88 35.4965C265.899 35.5103 265.918 35.5241 265.937 35.5378ZM265.738 35.3966C265.725 35.3862 265.704 35.3707 265.688 35.3604C265.706 35.3724 265.723 35.3845 265.738 35.3966ZM246.241 23.8098C246.218 23.7995 246.192 23.7857 246.17 23.7753C246.194 23.7857 246.216 23.7977 246.241 23.8098ZM246.135 23.7581C246.101 23.7409 246.066 23.7236 246.03 23.7064C246.065 23.7236 246.101 23.7409 246.135 23.7581ZM246.03 23.7047C244.416 22.9103 242.779 22.1349 241.114 21.3784H241.112C242.777 22.1331 244.416 22.9103 246.03 23.7047Z" fill="#E7C092"/>
<path d="M268.294 302.995C253.295 295.78 231.907 284.043 186.485 276.804C188.641 276.892 190.799 276.989 192.953 277.079C197.571 277.285 202.187 277.521 206.802 277.796C211.177 278.06 233.053 283.51 239.56 285.932C241.7 286.728 244.037 287.365 246.339 287.365C247.819 287.365 249.285 287.102 250.676 286.447C257.105 283.418 257.608 273.875 257.748 267.805C257.931 259.899 260.193 118.794 259.642 82.1262C259.523 74.2443 259.337 66.3538 258.989 58.4822C258.697 51.8996 258.053 45.2326 255.859 38.9774C253.702 32.8256 249.752 28.1127 244.722 24.0753C243.552 23.1361 242.346 22.24 241.114 21.3784C242.779 22.1349 244.416 22.9103 246.03 23.7047C246.03 23.7065 246.03 23.7047 246.03 23.7065C246.066 23.7237 246.101 23.7409 246.135 23.7582C246.147 23.7633 246.158 23.7685 246.17 23.7754C246.192 23.7857 246.218 23.7995 246.241 23.8099C246.261 23.8202 246.284 23.8305 246.304 23.8409C246.318 23.8478 246.332 23.8546 246.346 23.8615C246.377 23.877 246.404 23.8908 246.435 23.9063C246.439 23.9081 246.444 23.9115 246.449 23.9132C253.278 27.3062 259.638 31.0593 265.433 35.1778C265.437 35.1812 265.439 35.183 265.442 35.1847C265.464 35.2002 265.487 35.2157 265.509 35.2312C265.52 35.2398 265.53 35.2467 265.542 35.2553C265.559 35.2691 265.578 35.2812 265.595 35.2949C265.611 35.3053 265.625 35.3156 265.64 35.3259C265.656 35.338 265.673 35.3484 265.688 35.3604C265.704 35.3708 265.725 35.3863 265.738 35.3966C265.754 35.407 265.769 35.4173 265.783 35.4294C265.802 35.4414 265.819 35.4535 265.838 35.4673C265.85 35.4776 265.866 35.4879 265.88 35.4965C265.902 35.5121 265.914 35.5224 265.937 35.5379C265.949 35.5465 265.962 35.5569 265.975 35.5655C265.993 35.5793 266.016 35.5948 266.035 35.6086C266.047 35.6172 266.061 35.6275 266.073 35.6361C266.092 35.6499 266.114 35.6654 266.133 35.6792C266.145 35.6878 266.157 35.6965 266.169 35.7051C266.192 35.7223 266.209 35.7344 266.231 35.7499C266.243 35.7585 266.255 35.7671 266.266 35.7757C266.288 35.7912 266.307 35.805 266.33 35.8205C266.34 35.8291 266.352 35.8377 266.364 35.8463C266.383 35.8601 266.409 35.8791 266.428 35.8929C266.438 35.8998 266.448 35.9084 266.46 35.9153C266.483 35.9325 266.504 35.9481 266.526 35.9636C266.536 35.9722 266.547 35.979 266.557 35.9859C266.579 36.0032 266.6 36.0187 266.622 36.0342C266.635 36.0428 266.643 36.0497 266.655 36.0583C266.678 36.0738 266.698 36.0893 266.721 36.1066C266.731 36.1134 266.741 36.1204 266.752 36.129C266.774 36.1445 266.797 36.1617 266.819 36.1772C266.828 36.1841 266.838 36.1927 266.848 36.1996C266.871 36.2151 266.893 36.2324 266.915 36.2496C266.926 36.2565 266.936 36.2634 266.945 36.2702C266.967 36.2875 266.991 36.3047 267.014 36.3202C267.022 36.3271 267.033 36.334 267.041 36.3409C267.067 36.3616 267.084 36.3737 267.11 36.3926C267.12 36.3995 267.129 36.4064 267.139 36.4133C267.162 36.4288 267.184 36.4478 267.207 36.4633C267.217 36.4702 267.226 36.477 267.236 36.4839C267.258 36.5012 267.281 36.5184 267.303 36.5339C267.313 36.5425 267.324 36.5494 267.332 36.5563C267.355 36.5735 267.379 36.5908 267.401 36.6063C267.41 36.6132 267.42 36.6201 267.429 36.627C267.455 36.6476 267.474 36.6597 267.5 36.6804C267.508 36.6855 267.517 36.6924 267.525 36.6993C267.548 36.7148 267.574 36.7355 267.594 36.751C267.605 36.7579 267.613 36.7648 267.622 36.77C267.644 36.7872 267.67 36.8079 267.693 36.8234C267.701 36.8303 267.71 36.8372 267.718 36.8423C267.739 36.8596 267.767 36.8803 267.789 36.8958C267.798 36.9027 267.806 36.9095 267.815 36.9147C267.841 36.9337 267.86 36.9492 267.886 36.9681C267.894 36.975 267.903 36.9802 267.91 36.9871C267.936 37.0061 267.956 37.0216 267.982 37.0406C267.991 37.0475 267.998 37.0526 268.006 37.0595C268.032 37.0784 268.054 37.0957 268.08 37.1146C268.087 37.1198 268.094 37.1249 268.103 37.1301C268.123 37.1473 268.156 37.1715 268.179 37.1887C268.185 37.1939 268.191 37.1974 268.197 37.2043C268.23 37.2284 268.261 37.2508 268.294 37.2749V302.995Z" fill="#DEA571"/>
<path d="M47.1574 274.302L46.9945 274.275C46.2103 274.078 47.1615 272.787 47.4112 272.534C48.3212 271.614 49.1944 270.675 49.9858 269.66C49.5974 269.387 50.4564 268.124 50.5977 267.986C53.0931 265.522 56.149 263.625 59.3261 262.172C57.7363 262.4 56.1511 262.724 54.5847 262.97C51.9965 263.377 49.4454 263.777 46.9091 264.44C45.8314 264.724 44.7289 265.035 43.6142 265.115C42.6731 265.185 41.9744 265.691 41.0771 265.929C40.6611 266.038 40.2155 266.127 39.7861 266.127C39.2416 266.127 38.7225 265.984 38.3234 265.557C38.3631 265.086 38.4143 264.617 38.468 264.152C38.6922 262.183 39.0975 260.237 39.5316 258.308C40.3246 254.794 41.304 251.327 41.9811 247.789C43.3515 240.631 43.4007 233.186 43.2857 225.916C43.044 210.704 42.5372 195.482 42.1124 180.272C41.6911 165.117 41.1174 149.956 40.0957 134.83C39.0901 119.928 37.6085 105.065 36.5827 90.1649C36.3073 86.1584 35.9385 82.2003 35.3146 78.2335C34.6299 73.8738 33.8001 69.5417 33.244 65.1613C32.9364 62.7402 32.8125 60.3071 32.7627 57.8705C32.793 57.4207 32.8234 56.9693 32.8576 56.5195C33.1471 52.7233 32.5876 48.2671 34.6024 44.8724C36.5389 41.6104 39.7235 39.8717 42.8959 38.0744C46.8875 35.8102 51.1268 34.099 55.4442 32.6016C57.9704 31.7262 60.5647 31.1179 63.1676 30.5406C62.7208 30.5717 62.2812 30.5958 61.8524 30.5975C60.517 30.6027 59.1727 30.6061 57.8426 30.7371C56.7663 30.8422 55.6286 31.223 54.5625 31.2385C51.3484 31.2937 48.2675 32.1759 45.1347 32.8066C43.9292 33.0444 42.7088 33.1409 41.5605 33.601C40.6894 33.9508 39.825 34.3403 38.8847 34.4144C38.8564 34.4161 38.8302 34.4178 38.8054 34.4178C38.5314 34.4178 38.4143 34.2955 38.3927 34.1128C39.7458 33.4632 41.0078 32.6102 42.2497 31.7658C44.2907 30.3735 46.2756 28.9243 48.3448 27.5888C50.1521 26.853 51.9541 26.1138 53.7602 25.3624C55.1783 24.7731 56.6074 24.2045 58.0478 23.6703C58.297 23.3721 58.6085 23.1292 58.9633 23.0223C61.3637 22.29 63.6132 21.2027 65.842 20.0447C66.0257 19.9499 66.2128 19.8534 66.3974 19.7552C70.3054 18.5489 74.2108 17.3789 78.195 16.4156C83.0834 15.2318 88.0214 14.2582 92.9783 13.4207C96.6111 12.8055 100.236 12.2696 103.887 11.894C104.763 11.8285 105.639 11.7509 106.516 11.651C107.145 11.601 107.773 11.5562 108.404 11.5183C111.115 11.3529 113.828 11.2753 116.543 11.2753C124.011 11.2753 131.482 11.8629 138.887 12.8262C143.928 13.4828 148.943 14.3288 153.936 15.2886C158.596 16.1881 163.2 17.3582 167.855 18.2577C168.501 18.3818 169.151 18.4886 169.802 18.5903C169.599 18.7368 169.401 18.8333 169.234 18.8333C169.228 18.8333 169.221 18.8315 169.214 18.8315C168.719 18.8057 168.256 18.7092 167.811 18.5713C164.581 17.9734 161.27 17.4788 158.028 17.1307C153.941 16.6896 149.851 16.0641 145.756 15.7401C142.669 15.4989 139.578 15.4213 136.484 15.4213C135.221 15.4213 133.958 15.4351 132.694 15.4541C128.368 15.5247 124.029 15.4851 119.707 15.6454C115.284 15.8142 110.869 16.2312 106.499 16.955C102.248 17.6581 98.1162 18.8608 93.8923 19.6535C87.872 20.7839 81.9249 22.5847 76.4544 25.3969L76.6207 25.4124C77.0548 25.4624 77.4654 25.4831 77.8666 25.4831C78.6999 25.4831 79.4955 25.39 80.3888 25.2522C82.4196 24.9385 84.4619 24.9213 86.5136 24.9213C86.568 24.9213 86.6233 24.9213 86.6785 24.9213C88.7577 24.9213 90.9501 24.9299 92.954 25.5485C94.7687 26.1069 96.7525 26.2378 98.2353 27.5509C98.5833 27.8593 98.2623 28.5331 98.0745 28.8295C97.1765 30.246 95.8767 30.8681 94.2976 31.223C92.4808 31.6228 90.7152 32.1604 88.9617 32.8066C86.5896 33.6717 84.1314 34.2248 81.7667 35.0847C79.0702 36.0652 76.4651 37.299 73.9269 38.6448C69.7037 40.8867 65.5821 43.3216 61.4842 45.7926C60.0989 46.6266 58.1198 47.6795 57.4421 49.2752C56.5717 51.3241 57.0854 53.9864 57.2529 56.1439C58.0647 66.6243 57.6547 77.2185 57.6541 87.7248C57.6534 92.9461 58.2896 98.1088 58.2882 103.328C58.2882 108.569 58.2875 113.809 58.2868 119.047C58.2868 129.571 58.1253 140.101 58.6725 150.613C59.2306 161.333 60.2523 172.017 61.112 182.714C61.5245 187.829 61.7811 192.897 61.7804 198.03C61.7804 203.296 61.9338 208.484 62.5054 213.718C63.0471 218.67 63.4154 223.702 64.1436 228.623C64.3444 229.98 64.6411 231.343 64.6418 232.719C64.6438 233.886 64.6195 235.072 64.7791 236.231C65.004 237.855 65.3109 240.003 66.5966 241.153C68.836 243.151 72.0717 243.376 74.8962 243.748C77.2042 244.049 79.6417 244.729 81.7553 245.735C84.068 246.836 85.3652 248.806 83.6986 251.227C82.7656 252.579 81.6139 253.592 80.1565 254.329C79.4733 254.675 78.6825 254.978 77.9453 255.355C81.4772 255.826 85.0239 255.655 88.5888 255.836C92.5548 256.04 96.4993 256.415 100.473 256.415C100.49 256.415 100.508 256.415 100.525 256.415C100.855 256.415 101.183 256.415 101.512 256.415C103.295 256.415 105.078 256.425 106.858 256.515C108.778 256.608 110.759 257.051 112.666 257.051C113.142 257.051 113.632 257.046 114.126 257.046C116.521 257.046 119.069 257.16 121.117 258.409C121.549 258.676 121.282 259.25 120.863 259.757C117.645 260.065 114.422 260.309 111.205 260.618C110.282 260.706 109.36 260.799 108.438 260.892C106.301 261.037 104.152 261.254 102.063 261.487C98.7348 261.854 95.4054 262.207 92.0742 262.548C88.6157 262.906 85.1378 263.134 81.7331 263.873C79.6618 264.325 77.6141 264.879 75.5766 265.472C74.1099 265.71 72.6451 265.958 71.1839 266.229C63.5615 267.636 55.7694 269.489 48.9007 273.27C48.3092 273.593 47.7276 273.94 47.1574 274.302Z" fill="#F8EAD2"/>
<path d="M268.323 37.2749V302.995C284.809 295.065 309.015 281.67 364.365 274.792C471.981 261.421 525.47 305.995 525.47 305.995L529.926 24.5388C453.913 -11.8224 328.07 -7.93481 268.323 37.2749Z" fill="#F3E1C0"/>
<path d="M525.47 305.995C525.47 305.995 525.392 305.931 525.239 305.809C523.566 304.475 512.756 296.188 492.746 288.187C472.496 280.092 442.838 272.289 403.713 272.289C391.521 272.289 378.394 273.049 364.365 274.792C317.594 280.605 293.063 291.067 276.636 298.955L276.305 298.609C273.479 295.354 272.545 290.779 272.081 286.618C271.111 277.895 266.912 72.9364 274.981 46.3906C276.727 40.6385 278.681 35.0433 282.129 30.1167C282.91 29.0001 283.728 27.9128 284.569 26.8426C278.767 30.0202 273.348 33.4804 268.39 37.2249C301.317 12.3454 354.26 0.000457764 407.888 0.000457764C451.614 0.000457764 495.798 8.2132 529.926 24.5387L525.47 305.995ZM390.578 261.276C393.582 261.276 396.589 261.319 399.599 261.409C417.272 261.929 434.894 263.908 452.288 267.065C459.883 268.441 467.298 270.051 474.636 272.46C481.385 274.676 488.213 277.095 495.352 277.584C496.045 277.633 496.743 277.658 497.442 277.658C502.045 277.658 506.685 276.534 509.934 273.082C513.122 269.691 514.464 264.881 515.246 260.414C516.137 255.354 516.261 250.186 516.396 245.059C516.571 238.537 517.002 232.023 517.264 225.503C518.698 189.84 518.772 154.033 517.352 118.37C516.663 101.03 516.627 83.6546 516.716 66.3055C516.73 63.4209 516.709 60.4863 515.718 57.7412C514.778 55.1444 512.744 53.1369 510.683 51.3809C506.306 47.6485 500.59 45.6927 495.109 44.2745C487.856 42.3996 480.398 41.6483 473.047 40.2784C478.553 40.063 484.081 39.8011 489.596 39.8011C496.701 39.8011 503.787 40.2353 510.773 41.7603L510.926 41.4932C507.323 37.9951 502.358 36.863 498.323 34.0473C502.744 33.1909 507.299 33.5855 511.769 33.1667L511.907 32.929C506.117 23.746 494.63 19.1313 484.761 15.9021C472.768 11.9801 460.176 10.0036 447.757 7.9754C430.946 5.23206 413.964 3.3555 396.913 3.29346C396.642 3.29175 396.372 3.29175 396.101 3.29175C387.67 3.29175 379.238 3.77423 370.862 4.75128C363.186 5.64908 306.816 14.9888 293.535 33.5407C290.102 38.3329 290.039 44.8483 290.001 50.6882C289.992 52.4234 290.812 83.0756 290.49 96.5751C289.637 132.016 291.505 167.445 291.874 202.879C292.062 220.91 291.348 238.956 291.932 256.984L292.172 257.121C298.22 252.738 305.015 250.775 312.187 249.441C305.713 251.847 300.638 256.81 295.801 261.645C295.689 261.757 295.791 261.915 295.92 261.915C295.942 261.915 295.968 261.911 295.992 261.898C300.626 259.601 305.496 257.813 310.569 256.791C304.262 261.684 296.924 267.888 295.282 276.044L295.477 276.239C300.324 275.003 304.944 273.12 309.562 271.231C313.593 270.43 317.586 269.372 321.564 268.512C329.837 266.722 338.317 265.617 346.696 264.417C361.274 262.329 375.888 261.276 390.578 261.276Z" fill="#E7C092"/>
<path d="M268.323 37.2748C268.346 37.2593 268.368 37.2421 268.39 37.2249C268.37 37.2404 268.346 37.2593 268.323 37.2748Z" fill="#F3D8BC"/>
<path d="M268.323 302.995C270.879 301.764 273.622 300.403 276.636 298.955L276.638 298.957C273.622 300.404 270.879 301.766 268.323 302.995Z" fill="#C4673C"/>
<path d="M268.323 302.995V37.2748C268.346 37.2593 268.37 37.2404 268.39 37.2249C273.348 33.4803 278.768 30.0202 284.57 26.8426C283.729 27.9127 282.91 29.0001 282.129 30.1167C278.681 35.0433 276.727 40.6385 274.982 46.3906C266.912 72.9364 271.111 277.895 272.082 286.618C272.545 290.779 273.479 295.354 276.305 298.609L276.636 298.955C273.622 300.403 270.879 301.764 268.323 302.995Z" fill="#DEA571"/>
<path d="M315.709 263.089C314.515 263.089 316.251 260.806 316.747 260.546C319.159 259.263 321.272 257.309 323.385 255.598C324.549 254.654 325.721 253.718 326.948 252.857C328.161 252.004 329.51 251.299 330.682 250.394C332.724 248.812 334.899 247.353 337.211 246.193C336.038 246.461 334.854 246.846 333.748 247.077C331.928 247.458 330.229 248.352 328.423 248.826C327.07 249.181 325.687 249.434 324.281 249.447C324.265 249.447 324.25 249.447 324.232 249.447C321.653 249.447 321.26 247.268 321.258 245.054C321.258 242.562 321.496 240.083 321.494 237.586C321.492 227.438 322.001 217.318 321.88 207.163C321.82 201.923 321.93 196.695 321.961 191.456C321.992 186.531 322.602 181.646 322.342 176.711C322.08 171.767 321.799 166.819 321.739 161.865C321.679 156.706 321.816 151.536 321.544 146.382C321.272 141.271 321.579 136.134 321.458 131.023C321.343 126.043 320.941 121.101 321.025 116.116C321.112 111.041 321.329 105.968 321.427 100.893C321.52 95.86 321.442 90.8231 321.555 85.7914C321.668 80.7545 322.202 75.7383 322.204 70.6997C322.208 66.3314 322.314 61.7167 323.917 57.5948C325.304 54.0278 320.996 53.1955 318.952 51.4016C316.711 49.4372 317.695 46.7921 319.63 44.9776C322.387 42.3979 326.262 40.754 329.605 39.1015C331.666 38.0831 333.767 37.1629 335.898 36.3047C336.743 35.9635 337.539 35.5103 338.385 35.1898L338.647 35.1002C338.587 35.0985 338.528 35.0985 338.468 35.0985C338.03 35.0985 337.597 35.1261 337.225 35.1261C336.217 35.1261 335.209 35.1123 334.201 35.1123C333.541 35.1123 332.879 35.1174 332.219 35.1364C328.676 35.2381 324.949 35.2863 321.434 35.7309C317.95 36.1738 314.281 36.5115 310.914 37.5592C309.69 37.9418 307.965 38.6121 306.48 38.6121C306.049 38.6121 305.637 38.5552 305.265 38.4191C304.733 38.2226 305.053 37.5523 305.251 37.2094C306.84 34.454 310.314 32.9652 312.956 31.4212C316.836 29.1517 320.689 27.1167 324.816 25.3349C328.988 23.5324 333.255 22.0574 337.491 20.4272C341.301 18.9608 345.104 17.4099 349.045 16.3209C369.701 10.6223 391.69 6.14883 413.468 6.14883C424.439 6.14883 435.356 7.28441 446.019 9.97087C450.706 11.1495 455.324 12.7125 459.874 14.3202C461.688 14.9612 463.415 15.8918 465.253 16.4432C466.685 16.8705 468.221 17.3375 469.174 18.561C469.744 19.2916 468.465 20.7839 467.657 20.7839C467.642 20.7839 467.626 20.7839 467.612 20.7822C466.384 20.6909 465.403 19.9516 464.202 19.8155C462.924 19.6725 461.685 18.9987 460.444 18.8833C457.794 18.642 455.145 18.3887 452.5 18.1406C446.965 17.6133 441.478 16.8085 435.949 16.2571C433.088 15.971 430.183 15.8608 427.34 15.4541C424.624 15.0681 421.91 14.6821 419.191 14.3306C414.869 13.7791 410.569 13.2277 406.234 13.2277C405.088 13.2277 403.939 13.2674 402.788 13.3535C397.763 13.7309 392.817 14.7079 387.813 15.1577C382.752 15.6143 377.7 16.3657 372.789 17.7132C368.101 18.9987 363.507 20.3101 359.062 22.3159C356.27 23.5738 353.494 24.9075 350.785 26.3361C349.634 26.9444 348.476 27.5664 347.406 28.3109C347.887 28.1885 348.366 28.0575 348.838 27.9024C350.077 27.4992 351.343 27.4837 352.593 27.1081C353.727 26.7669 354.836 26.4773 355.994 26.2154C358.391 25.6778 360.771 25.0626 363.158 24.4767C367.982 23.2912 372.823 22.3727 377.784 22.0177C382.418 21.6834 387.069 21.7506 391.713 21.7299C391.714 21.7299 391.714 21.7299 391.716 21.7299C392.771 21.7299 391.101 23.9494 390.667 24.1235C383.481 26.9909 375.895 29.1604 369.087 32.8911C365.997 34.585 362.591 36.6752 360.421 39.5254C358.172 42.4772 357.871 46.282 357.773 49.8593C357.704 52.3442 357.388 54.8118 357.321 57.295C357.254 59.7453 357.261 62.1922 357.133 64.6409C356.866 69.8622 356.361 75.0611 355.965 80.272C355.162 90.7904 355.391 101.335 355.391 111.875V143.715C355.391 148.676 355.086 153.62 354.962 158.577C354.841 163.42 354.912 168.269 354.912 173.111C354.912 177.85 354.397 182.575 354.435 187.331C354.476 192.142 354.971 196.894 354.829 201.714C354.707 205.958 354.526 210.252 355.076 214.476C355.619 218.643 356.951 222.334 359.182 225.882C360.221 227.533 361.383 229.294 363.416 229.71C365.603 230.161 367.677 230.552 369.921 230.712C372.209 230.878 374.412 231.139 376.654 231.556C377.944 231.792 379.473 231.895 380.522 232.769C381.697 233.748 380.236 235.689 379.552 236.407C378.544 237.469 377.033 237.624 375.794 238.254C373.893 239.228 371.894 240.281 369.928 241.108C369.363 241.348 368.786 241.553 368.222 241.796L367.838 241.961C368.918 242.261 370.231 242.258 371.198 242.383C373.062 242.622 374.92 242.75 376.786 242.931C380.877 243.328 384.973 243.703 389.069 244.077C392.96 244.43 396.808 245.252 400.603 246.171C402.178 246.553 403.632 247.15 405.162 247.679C406.558 248.157 407.926 248.673 409.143 249.523C410.09 250.186 408.064 252.105 407.326 252.105C405.086 252.105 402.844 252.083 400.603 252.083C398.907 252.083 397.213 252.097 395.521 252.142C391.799 252.241 388.134 252.585 384.405 252.585C380.836 252.585 377.312 253.019 373.752 253.065C358.564 253.255 342.052 254.878 327.636 259.155C325.697 259.73 323.777 260.36 321.88 261.065C320.714 261.497 319.363 261.656 318.125 262.019C317.458 262.531 316.719 262.961 315.877 263.075C315.815 263.084 315.759 263.089 315.709 263.089Z" fill="#F8EAD2"/>
</svg>
