<svg width="177" height="189" viewBox="0 0 177 189" fill="none" xmlns="http://www.w3.org/2000/svg">
<path d="M73.9518 122.838C67.6221 103.776 61.2163 84.2236 61.8529 64.1467C62.4885 44.072 71.624 23.0338 89.4191 13.7182C97.6115 9.42914 107.656 7.43356 113.155 -7.62939e-06C112.541 7.98444 117.642 14.9239 121.536 21.9224C131.539 39.9029 128.024 62.9624 117.865 80.8573C107.708 98.751 91.6151 111.721 73.9518 122.838Z" fill="#B66828"/>
<path d="M112.27 1.10603C112.275 1.09317 112.281 1.0814 112.286 1.06854C112.585 0.722367 112.88 0.371912 113.155 1.84774e-05C112.872 0.382629 112.577 0.751288 112.27 1.10603Z" fill="#E6CCA1"/>
<path d="M73.9319 122.777C73.9201 122.739 73.9072 122.701 73.8944 122.663C73.9276 122.666 73.9533 122.669 73.9694 122.67C73.9576 122.705 73.9448 122.741 73.9319 122.777ZM74.1119 122.738C74.0734 122.69 74.0348 122.644 73.9962 122.596C73.9898 122.614 73.9833 122.633 73.9769 122.651C73.9523 122.62 73.9019 122.556 73.8279 122.462C73.8033 122.386 73.7776 122.31 73.7529 122.234C84.3138 69.5204 103.279 21.9492 112.27 1.106C112.577 0.751251 112.872 0.382591 113.155 -1.52588e-05C113.122 0.43618 113.105 0.870224 113.105 1.29999C113.095 8.74321 117.856 15.3065 121.536 21.9224C125.669 29.3495 127.494 37.6437 127.497 46.0826C127.502 58.0732 123.828 70.3542 117.866 80.8573C107.776 98.632 91.8299 111.548 74.3059 122.615C74.1838 122.644 74.1205 122.659 74.1205 122.659C74.1205 122.659 74.1398 122.672 74.1773 122.697C74.1548 122.711 74.1345 122.724 74.1119 122.738Z" fill="#A7541F"/>
<path d="M114.62 104.387C119.233 99.9749 123.27 94.9485 128.244 90.9466C136.159 84.5794 147.241 81.1016 156.663 84.8977C159.991 86.2396 163.506 87.8815 166.831 89.2351C170.153 90.5897 174.355 90.2211 176.577 89.4773C173.187 98.2184 175.881 108.486 172.207 117.112C170.732 120.576 168.304 123.556 165.617 126.192C153.818 137.761 136.63 143.06 120.146 141.902C111.429 141.29 102.889 138.966 94.9247 135.403C91.762 133.988 74.1201 122.659 74.1201 122.659C74.1201 122.659 93.6182 118.089 96.7766 116.63C103.351 113.588 109.389 109.391 114.62 104.387Z" fill="#B66828"/>
<path d="M124.598 142.058C123.111 142.058 121.626 142.006 120.146 141.902C111.429 141.29 102.889 138.966 94.9247 135.403C91.867 134.035 75.2819 123.404 74.1769 122.697C74.1394 122.672 74.1201 122.659 74.1201 122.659C74.1201 122.659 93.6182 118.089 96.7766 116.63C103.351 113.588 109.389 109.391 114.62 104.387C119.233 99.9749 123.27 94.9485 128.244 90.9466C133.898 86.3971 141.171 83.3223 148.299 83.3223C151.148 83.3223 153.972 83.8131 156.663 84.8977C159.991 86.2396 163.506 87.8815 166.831 89.2351C168.442 89.892 170.26 90.1439 171.959 90.1439C173.764 90.1439 175.433 89.8599 176.577 89.4773C173.187 98.2184 175.881 108.486 172.207 117.112C170.732 120.576 168.304 123.556 165.617 126.192C154.878 136.723 139.672 142.058 124.598 142.058Z" fill="#A7541F"/>
<path d="M53.7583 83.1176C52.9084 76.7911 52.8913 70.3446 51.5033 64.1135C49.2945 54.1978 42.8083 44.5629 33.077 41.6477C29.6388 40.6178 25.8674 39.7068 22.4249 38.6897C18.9836 37.6737 15.9313 34.7618 14.6602 32.7952C11.8512 41.741 3.33838 48.0803 0.824087 57.1129C-0.18549 60.7397 -0.150132 64.584 0.305356 68.3201C2.302 84.7241 12.4224 99.5923 26.0228 108.976C33.2152 113.939 41.339 117.456 49.7843 119.643C53.1388 120.512 73.9938 122.673 73.9938 122.673C73.9938 122.673 61.6131 106.932 60.0569 103.82C56.8181 97.3406 54.7207 90.2918 53.7583 83.1176Z" fill="#B66828"/>
<path d="M83.3466 175.371C91.9376 185.87 102.522 181.059 110.805 186.671C109.508 178.038 118.745 171.343 120.288 162.751C121.578 155.581 117.108 148.421 111.255 144.084C105.402 139.747 98.293 137.549 91.54 134.816C84.5941 132.006 78.7403 128.423 73.9957 122.596C71.6754 128.98 67.2041 155.639 83.3466 175.371Z" fill="#B66828"/>
<path d="M110.805 186.671C102.522 181.059 91.9378 185.87 83.3467 175.371C74.1083 164.079 71.6219 150.519 71.6187 139.788C71.6176 131.767 73.0034 125.327 73.9958 122.596C78.7404 128.423 84.5942 132.006 91.5401 134.816C98.2932 137.549 105.402 139.747 111.255 144.084C116.423 147.913 120.511 153.941 120.511 160.235C120.511 161.071 120.44 161.911 120.288 162.751C118.846 170.78 110.684 177.154 110.68 185C110.68 185.549 110.72 186.106 110.805 186.671Z" fill="#A7541F"/>
<path d="M33.718 157.902C20.451 160.742 15.1844 150.378 5.21191 149.591C11.6134 143.658 8.57609 132.66 12.7323 124.984C16.2015 118.577 24.1624 115.772 31.4427 116.039C38.7219 116.305 45.6497 119.024 52.631 121.105C59.8105 123.244 66.6204 124.1 73.965 122.508C71.7936 128.944 58.6456 152.564 33.718 157.902Z" fill="#B66828"/>
<path d="M61.5382 155.876C58.9489 163.1 56.3381 170.422 55.6619 178.068C55.3768 181.291 55.4861 184.731 57.5224 187.372C58.0176 188.014 58.7699 188.455 59.5812 188.459C61.6293 188.464 62.432 186.119 62.0333 184.372C61.0431 180.033 58.6499 179.454 59.6241 171.491C60.1139 167.492 69.4809 139.19 73.1387 127.631C73.5149 126.443 74.6788 124.235 74.5984 122.972C74.5587 122.346 73.7442 122.088 73.3498 122.577C72.4228 123.728 71.9405 126.848 71.3982 128.359C70.2729 131.502 69.1465 134.645 68.0212 137.786C65.8605 143.816 63.6988 149.845 61.5382 155.876Z" fill="#7E4620"/>
<mask id="mask0_17_19092" style="mask-type:luminance" maskUnits="userSpaceOnUse" x="74" y="83" width="103" height="60">
<path d="M114.62 104.387C119.233 99.9749 123.27 94.9485 128.244 90.9466C136.159 84.5794 147.241 81.1016 156.663 84.8977C159.991 86.2396 163.506 87.8815 166.831 89.2351C170.153 90.5897 174.355 90.2211 176.577 89.4773C173.187 98.2184 175.881 108.486 172.207 117.112C170.732 120.576 168.304 123.556 165.617 126.192C153.818 137.761 136.63 143.06 120.146 141.902C111.429 141.29 102.889 138.966 94.9247 135.403C91.762 133.988 74.1201 122.659 74.1201 122.659C74.1201 122.659 93.6182 118.089 96.7766 116.63C103.351 113.588 109.389 109.391 114.62 104.387Z" fill="white"/>
</mask>
<g mask="url(#mask0_17_19092)">
<path d="M131.271 123.941C140.662 110.346 145.982 93.9818 146.381 77.4642C146.384 77.3163 146.267 77.1941 146.119 77.1898C145.972 77.1866 145.848 77.3034 145.845 77.4513C145.45 93.8629 140.162 110.13 130.829 123.637C130.745 123.758 130.775 123.925 130.898 124.009C131.02 124.093 131.186 124.062 131.271 123.941Z" fill="#CD7030"/>
<path d="M115.706 95.7491C112.096 108.395 101.951 117.996 92.1834 126.95C92.0752 127.05 92.0677 127.22 92.1673 127.329C92.2681 127.437 92.4374 127.445 92.5457 127.345C102.311 118.386 112.55 108.733 116.22 95.897C116.261 95.7545 116.179 95.6066 116.037 95.5659C115.895 95.5251 115.747 95.6077 115.706 95.7491Z" fill="#CD7030"/>
<path d="M106.655 128.326C122.097 134.529 138.016 140.844 154.723 141.01C154.871 141.011 154.992 140.893 154.994 140.745C154.995 140.597 154.876 140.475 154.728 140.474C138.157 140.312 122.295 134.034 106.854 127.828C106.717 127.773 106.562 127.839 106.506 127.977C106.451 128.115 106.518 128.27 106.655 128.326Z" fill="#CD7030"/>
<path d="M144.563 118.294C147.601 118.63 150.656 118.796 153.712 118.796C161.414 118.796 169.118 117.737 176.531 115.644C176.674 115.603 176.756 115.455 176.716 115.313C176.676 115.17 176.528 115.088 176.385 115.127C169.02 117.207 161.366 118.26 153.712 118.26C150.675 118.26 147.639 118.095 144.621 117.762C144.474 117.745 144.342 117.852 144.325 117.998C144.309 118.146 144.415 118.278 144.563 118.294Z" fill="#CD7030"/>
</g>
<mask id="mask1_17_19092" style="mask-type:luminance" maskUnits="userSpaceOnUse" x="71" y="122" width="50" height="65">
<path d="M83.3466 175.371C91.9376 185.87 102.522 181.059 110.805 186.671C109.508 178.038 118.745 171.343 120.288 162.751C121.578 155.581 117.108 148.421 111.255 144.084C105.402 139.747 98.293 137.549 91.54 134.816C84.5941 132.006 78.7403 128.423 73.9957 122.596C71.6754 128.98 67.2041 155.639 83.3466 175.371Z" fill="white"/>
</mask>
<g mask="url(#mask1_17_19092)">
<path d="M83.1728 149.966C80.651 157.363 79.2052 165.124 78.8933 172.932C78.8869 173.08 79.0026 173.205 79.1505 173.211C79.2984 173.216 79.4228 173.102 79.4281 172.954C79.7379 165.197 81.175 157.486 83.6797 150.139C83.7279 149.999 83.6529 149.847 83.5125 149.799C83.3732 149.751 83.221 149.826 83.1728 149.966Z" fill="#CD7030"/>
<path d="M91.2593 161.755C94.3105 162.235 97.3982 162.472 100.485 162.472C109.5 162.472 118.517 160.452 126.643 156.541C126.776 156.477 126.832 156.317 126.768 156.183C126.704 156.05 126.543 155.995 126.41 156.058C118.359 159.933 109.42 161.936 100.485 161.936C97.425 161.936 94.3663 161.702 91.3429 161.226C91.1971 161.203 91.06 161.303 91.0364 161.45C91.0139 161.595 91.1135 161.733 91.2593 161.755Z" fill="#CD7030"/>
<path d="M81.215 145.697C85.8663 146.723 90.6291 147.232 95.3908 147.232C102.89 147.232 110.389 145.969 117.461 143.47C117.6 143.421 117.673 143.269 117.624 143.129C117.575 142.989 117.421 142.916 117.282 142.966C110.27 145.443 102.83 146.696 95.3908 146.696C90.6666 146.696 85.9435 146.191 81.3307 145.174C81.186 145.142 81.0424 145.233 81.0113 145.378C80.9792 145.523 81.0703 145.665 81.215 145.697Z" fill="#CD7030"/>
<path d="M77.4668 135.615C73.6439 141.437 70.9303 147.984 69.5134 154.803C69.4834 154.947 69.5767 155.09 69.7213 155.12C69.866 155.15 70.0075 155.057 70.0386 154.912C71.4404 148.159 74.1294 141.675 77.9148 135.909C77.9952 135.785 77.9609 135.619 77.8376 135.538C77.7133 135.457 77.5472 135.491 77.4668 135.615Z" fill="#CD7030"/>
</g>
<mask id="mask2_17_19092" style="mask-type:luminance" maskUnits="userSpaceOnUse" x="61" y="0" width="67" height="123">
<path d="M73.9518 122.838C67.6221 103.776 61.2163 84.2236 61.8529 64.1467C62.4885 44.072 71.624 23.0338 89.4191 13.7182C97.6115 9.42914 107.656 7.43356 113.155 -7.62939e-06C112.541 7.98444 117.642 14.9239 121.536 21.9224C131.539 39.9029 128.024 62.9624 117.865 80.8573C107.708 98.751 91.6151 111.721 73.9518 122.838Z" fill="white"/>
</mask>
<g mask="url(#mask2_17_19092)">
<path d="M88.3526 66.8046C96.6875 61.7214 120.185 45.8704 131.032 23.1988C131.096 23.0648 131.039 22.9051 130.906 22.8408C130.772 22.7776 130.612 22.8344 130.548 22.9673C119.8 45.4609 96.3713 61.2948 88.0739 66.347C87.9475 66.4241 87.9078 66.5892 87.9839 66.7156C88.0611 66.8421 88.2261 66.8818 88.3526 66.8046Z" fill="#CD7030"/>
<path d="M82.323 7.74759C81.8172 9.1923 81.5953 10.9167 81.5942 12.8341C81.5964 18.3814 83.4612 25.5545 85.968 32.1178C88.4791 38.6822 91.6268 44.6239 94.2472 47.7084C94.3426 47.8209 94.5119 47.8349 94.6244 47.7395C94.737 47.643 94.7509 47.4748 94.6555 47.3612C92.1069 44.3689 88.9603 38.4486 86.4685 31.9271C83.9746 25.4045 82.129 18.2656 82.1301 12.8341C82.1301 10.9585 82.3509 9.28874 82.8289 7.92442C82.8782 7.78509 82.8042 7.63184 82.6649 7.58254C82.5256 7.53431 82.3723 7.6072 82.323 7.74759Z" fill="#CD7030"/>
<path d="M79.9166 98.1058C85.7812 96.7704 95.5458 91.2403 105.483 83.4016C115.414 75.5618 125.491 65.4157 131.887 54.8365C131.965 54.7101 131.924 54.545 131.797 54.4689C131.671 54.3928 131.506 54.4325 131.43 54.56C125.084 65.0577 115.044 75.1728 105.151 82.9814C95.2629 90.7901 85.4982 96.2946 79.7977 97.5828C79.6541 97.615 79.563 97.7586 79.5962 97.9033C79.6283 98.0479 79.772 98.138 79.9166 98.1058Z" fill="#CD7030"/>
<path d="M60.5152 41.816C60.9128 57.309 72.0482 77.2873 82.6112 85.0359C82.7313 85.1238 82.8984 85.097 82.9863 84.9781C83.0731 84.8591 83.0474 84.6908 82.9274 84.604C72.5379 77.0172 61.4133 57.0604 61.0511 41.802C61.0479 41.6541 60.9246 41.5373 60.7767 41.5416C60.6288 41.5448 60.512 41.6681 60.5152 41.816Z" fill="#CD7030"/>
</g>
<mask id="mask3_17_19092" style="mask-type:luminance" maskUnits="userSpaceOnUse" x="5" y="116" width="69" height="43">
<path d="M33.718 157.902C20.451 160.742 15.1844 150.378 5.21191 149.591C11.6134 143.658 8.57609 132.66 12.7323 124.984C16.2015 118.577 24.1624 115.772 31.4427 116.039C38.7219 116.305 45.6497 119.024 52.631 121.105C59.8105 123.244 66.6204 124.1 73.965 122.508C71.7936 128.944 58.6445 152.564 33.718 157.902Z" fill="white"/>
</mask>
<g mask="url(#mask3_17_19092)">
<path d="M7.46168 126.032C20.105 127.627 33.0376 130.883 42.754 139.03C42.8676 139.125 43.037 139.11 43.1324 138.997C43.2267 138.883 43.2117 138.714 43.0991 138.618C33.2498 130.367 20.2132 127.103 7.52919 125.499C7.38236 125.481 7.24841 125.585 7.22912 125.732C7.2109 125.879 7.31485 126.013 7.46168 126.032Z" fill="#CD7030"/>
<path d="M52.9602 135.354C52.3236 142.369 50.119 149.237 46.5555 155.312C46.4805 155.439 46.5233 155.605 46.6509 155.678C46.7784 155.754 46.9424 155.711 47.0174 155.583C50.6217 149.44 52.8498 142.496 53.4939 135.402C53.5079 135.254 53.3996 135.125 53.2517 135.111C53.1038 135.098 52.9742 135.206 52.9602 135.354Z" fill="#CD7030"/>
<path d="M61.9047 130.338C51.8325 126.688 41.4248 122.802 34.0695 115.127C33.9666 115.02 33.7973 115.017 33.6901 115.119C33.584 115.221 33.5797 115.391 33.6826 115.498C41.1569 123.289 51.6503 127.187 61.7214 130.842C61.8607 130.894 62.0151 130.821 62.0654 130.682C62.1158 130.543 62.044 130.389 61.9047 130.338Z" fill="#CD7030"/>
<path d="M67.1243 127.136C67.1543 127.774 67.1693 128.412 67.1693 129.051C67.1693 131.533 66.9442 134.015 66.4973 136.457C66.4716 136.603 66.5681 136.742 66.7127 136.769C66.8585 136.796 66.9978 136.699 67.0246 136.553C67.4769 134.08 67.7051 131.565 67.7051 129.051C67.7051 128.404 67.6901 127.758 67.6591 127.11C67.6526 126.962 67.5273 126.849 67.3794 126.855C67.2315 126.863 67.1178 126.988 67.1243 127.136Z" fill="#CD7030"/>
<path d="M31.9027 140.613C30.1001 144.273 26.8474 147.026 24.0233 150.107C21.3718 153.004 18.954 156.604 18.9497 160.571C18.9497 160.828 18.9594 161.088 18.9808 161.348C18.9926 161.495 19.1223 161.605 19.2702 161.592C19.417 161.58 19.5274 161.451 19.5145 161.304C19.4952 161.059 19.4856 160.814 19.4856 160.571C19.4802 156.834 21.7995 153.324 24.4177 150.468C27.2053 147.418 30.5084 144.642 32.384 140.85C32.4493 140.717 32.3947 140.556 32.2618 140.491C32.1289 140.425 31.9681 140.48 31.9027 140.613Z" fill="#CD7030"/>
</g>
<mask id="mask4_17_19092" style="mask-type:luminance" maskUnits="userSpaceOnUse" x="0" y="32" width="74" height="91">
<path d="M53.7583 83.1176C52.9084 76.7911 52.8913 70.3446 51.5033 64.1135C49.2945 54.1978 42.8083 44.5629 33.077 41.6477C29.6388 40.6178 25.8674 39.7068 22.4249 38.6897C18.9836 37.6737 15.9313 34.7618 14.6602 32.7952C11.8512 41.741 3.33838 48.0803 0.824087 57.1129C-0.18549 60.7397 -0.150132 64.584 0.305356 68.3201C2.302 84.7241 12.4224 99.5923 26.0228 108.976C33.2152 113.939 41.339 117.456 49.7843 119.643C53.1388 120.512 73.9938 122.673 73.9938 122.673C73.9938 122.673 61.6131 106.932 60.0569 103.82C56.8181 97.3406 54.7207 90.2918 53.7583 83.1176Z" fill="white"/>
</mask>
<g mask="url(#mask4_17_19092)">
<path d="M30.7889 37.813C25.8289 49.8347 22.813 62.6548 21.8913 75.6261C21.8806 75.774 21.9921 75.9015 22.14 75.9122C22.2879 75.9229 22.4154 75.8115 22.4261 75.6647C23.3425 62.7502 26.3466 49.9858 31.2841 38.0177C31.3409 37.8805 31.2755 37.7241 31.1383 37.6683C31.0022 37.6115 30.8446 37.6769 30.7889 37.813Z" fill="#CD7030"/>
<path d="M26.2448 84.8666C26.0915 84.8687 25.9382 84.8698 25.785 84.8698C15.7932 84.8698 5.82494 81.3984 -1.99767 75.1834C-2.11342 75.0913 -2.28276 75.1105 -2.37385 75.2263C-2.46602 75.342 -2.44674 75.5103 -2.331 75.6025C5.59022 81.8947 15.6699 85.4046 25.785 85.4057C25.9404 85.4057 26.0947 85.4046 26.2501 85.4025C26.398 85.4014 26.517 85.2803 26.5159 85.1324C26.5138 84.9845 26.3927 84.8655 26.2448 84.8666Z" fill="#CD7030"/>
<path d="M34.419 95.1253C36.0952 87.8857 37.7789 80.6268 40.5322 73.7549C43.2865 66.8829 47.1791 60.357 52.6825 55.4485C52.7939 55.3499 52.8036 55.1806 52.705 55.0702C52.6064 54.9598 52.437 54.9501 52.3266 55.0487C46.7397 60.0323 42.8107 66.6321 40.0349 73.5555C37.2612 80.4789 35.5732 87.7657 33.897 95.0053C33.8638 95.1489 33.9538 95.2925 34.0985 95.3268C34.2421 95.36 34.3858 95.27 34.4201 95.1253" fill="#CD7030"/>
<path d="M41.3292 102.144C37.4216 103.358 33.4037 103.839 29.3354 103.839C21.7528 103.84 13.9988 102.167 6.50307 100.471C6.35839 100.439 6.21478 100.529 6.18262 100.674C6.1494 100.818 6.24048 100.961 6.3841 100.994C13.8852 102.689 21.6735 104.374 29.3354 104.374C33.4455 104.374 37.5192 103.889 41.4889 102.655C41.6304 102.611 41.7086 102.461 41.6646 102.321C41.6207 102.179 41.4707 102.1 41.3292 102.144Z" fill="#CD7030"/>
<path d="M54.7563 111.327C54.6481 110.195 54.5945 109.059 54.5945 107.922C54.5945 101.832 56.1345 95.7415 59.0615 90.4C59.1322 90.2703 59.085 90.1074 58.9554 90.0367C58.8257 89.9659 58.6628 90.0131 58.591 90.1428C55.6212 95.5647 54.0586 101.742 54.0586 107.922C54.0586 109.075 54.1133 110.229 54.2226 111.378C54.2365 111.525 54.3673 111.633 54.5152 111.619C54.662 111.605 54.7702 111.475 54.7563 111.327Z" fill="#CD7030"/>
</g>
<path d="M172.782 91.8929C162.331 107.161 146.575 118.735 128.88 124.14C121.113 126.514 112.992 127.694 104.87 127.694C94.4866 127.694 84.1015 125.766 74.4516 121.941C74.2426 121.859 74.0057 121.961 73.9232 122.17C73.8406 122.379 73.9425 122.614 74.1515 122.697C83.9011 126.562 94.3859 128.508 104.87 128.508C113.071 128.508 121.271 127.316 129.118 124.919C146.993 119.455 162.894 107.775 173.453 92.3517C173.58 92.1662 173.533 91.9133 173.347 91.7868C173.163 91.6604 172.909 91.7075 172.782 91.8929Z" fill="#7E4620"/>
<path d="M16.2024 41.6477C16.1723 42.4933 16.1562 43.3657 16.1562 44.2617C16.1595 55.934 18.7863 71.6628 25.4064 84.1443C30.42 93.5884 38.5717 101.005 47.2313 107.166C55.8985 113.332 65.3876 118.191 74.82 123.019C75.0193 123.121 75.2648 123.042 75.3666 122.843C75.4695 122.642 75.3901 122.398 75.1908 122.295C65.7574 117.468 56.3057 112.625 47.7029 106.504C39.0947 100.381 31.0459 93.0386 26.1245 83.7628C19.589 71.456 16.9676 55.814 16.9697 44.2617C16.9697 43.3743 16.9847 42.5126 17.0147 41.6777C17.0233 41.4527 16.8475 41.2641 16.6235 41.2566C16.3995 41.248 16.2109 41.4237 16.2024 41.6477Z" fill="#7E4620"/>
<path d="M10.8533 147.259C14.4233 143.977 19.3222 142.427 24.1986 141.684C29.0761 140.938 34.0854 140.901 39.0347 140.085C51.9342 137.951 63.2999 130.699 73.8512 123.147C74.0334 123.016 74.0752 122.762 73.9444 122.58C73.8137 122.397 73.5597 122.355 73.3775 122.486C62.8509 130.025 51.5794 137.19 38.9018 139.283C34.0372 140.088 29.0311 140.126 24.0765 140.88C19.1197 141.638 14.0589 143.214 10.3036 146.661C10.1385 146.812 10.1267 147.069 10.2789 147.234C10.4311 147.4 10.6883 147.411 10.8533 147.259Z" fill="#7E4620"/>
<path d="M74.1867 122.461C76.4899 132.755 78.8702 143.284 84.2782 152.438C86.113 155.544 88.2662 158.433 90.4493 161.273C95.6794 168.073 101.16 174.68 106.877 181.076C107.026 181.244 107.283 181.258 107.45 181.109C107.619 180.959 107.632 180.701 107.483 180.534C101.78 174.153 96.3117 167.562 91.0945 160.778C88.9156 157.944 86.7839 155.081 84.9781 152.025C79.6547 143.019 77.2808 132.577 74.9798 122.284C74.9316 122.065 74.714 121.927 74.4943 121.976C74.2757 122.025 74.1374 122.242 74.1867 122.461Z" fill="#7E4620"/>
<path d="M110.051 6.83341C89.3669 55.2127 78.7289 94.7749 73.7303 122.776C73.6917 122.997 73.8385 123.208 74.0593 123.248C74.2801 123.287 74.4912 123.141 74.5309 122.919C79.5166 94.9828 90.1386 55.4774 110.8 7.15279C110.887 6.94701 110.792 6.70802 110.585 6.61906C110.379 6.53118 110.14 6.62656 110.051 6.83341Z" fill="#7E4620"/>
</svg>
