<svg width="179" height="203" viewBox="0 0 179 203" fill="none" xmlns="http://www.w3.org/2000/svg">
<path d="M168.174 99.4911C166.077 89.5589 173.917 77.4227 178.856 72.8311C172.736 74.0517 166.186 74.0114 160.475 71.4904C154.766 68.9695 148.559 63.0958 147.904 56.8888C145.496 60.4335 142.462 63.5511 138.983 66.0538C136.52 67.8256 133.697 69.3299 130.662 69.3865C126.054 69.4713 121.855 66.0084 120.187 61.7126C118.518 57.4169 119.051 52.5133 120.689 48.2054C122.328 43.8976 126.959 38.8274 129.61 35.0577C122.523 34.2389 113.137 29.7735 110.59 25.3798C105.978 17.4173 107.701 5.23666 107.098 -3.05176e-05C104.455 4.51582 99.7456 18.6934 92.1152 22.2057C88.2737 23.9735 75.8377 22.6297 71.8165 20.6459C72.9038 26.457 73.9962 32.3066 74.0103 38.2187C74.0214 42.8203 72.9049 48.1348 68.8161 50.2498C64.6152 52.4235 59.3543 49.9843 56.2074 46.4528C53.0605 42.9213 50.5618 39.3645 48.2004 34.7578C45.5684 37.7987 39.3666 41.4413 35.2101 41.5644C27.8412 41.7845 16.7641 36.1521 13.7313 32.8295C13.4042 38.4378 21.5616 54.8021 1.13376 60.483C12.5582 67.0564 30.2854 79.0683 29.7534 87.2591C29.3738 92.8259 19.4536 97.7214 13.8847 99.9848C17.8554 102.802 20.5197 106.463 19.4365 110.488C18.3542 114.513 3.66377 122.853 0 124.841C6.19681 125.511 12.3522 126.565 18.4188 127.993C22.1734 128.876 25.9623 129.933 29.2061 132.021C32.4499 134.108 35.1193 137.391 35.618 141.215C38.1026 139.349 56.4012 126.199 72.6514 141.183C94.9571 132.682 103.267 157.041 107.566 161.706C110.451 156.822 114.1 152.084 119.697 151.168C125.767 150.173 136.768 158.774 140.34 161.226C138.654 156.445 133.889 145.305 137.599 140.261C142.284 133.892 146.814 135.466 152.653 134.65C147.777 130.238 140.982 121.42 144.596 109.989C146.933 102.598 159.926 99.5305 168.174 99.4911Z" fill="#F37516"/>
<path d="M109.152 159.183C111.783 155.286 115.076 151.924 119.697 151.168C120.026 151.114 120.369 151.088 120.725 151.088C121.648 151.088 122.655 151.26 123.712 151.562C122.658 151.261 121.652 151.09 120.732 151.09C120.372 151.09 120.027 151.116 119.695 151.171C115.077 151.928 111.785 155.289 109.152 159.183ZM105.385 158.551C101.364 151.976 94.6066 139.403 81.5931 139.403C78.9844 139.403 76.1242 139.909 72.9834 141.069C72.9844 141.065 72.9854 141.062 72.9865 141.058C76.1222 139.902 78.9793 139.398 81.586 139.398C94.6066 139.398 101.364 151.969 105.385 158.551ZM137.821 139.964C138.658 138.871 139.489 138.026 140.326 137.37C139.49 138.026 138.658 138.871 137.821 139.964ZM148.6 134.97C149.885 134.905 151.228 134.849 152.647 134.651C152.648 134.652 152.65 134.654 152.651 134.655C151.231 134.851 149.887 134.906 148.6 134.97ZM143.76 113.695C143.922 112.492 144.195 111.258 144.596 109.989C146.453 104.117 155.034 100.975 162.618 99.9111C155.035 100.977 146.453 104.118 144.597 109.994C144.195 111.261 143.923 112.495 143.76 113.695ZM164.737 72.8988C163.279 72.5626 161.853 72.0982 160.475 71.4904C156.758 69.8498 152.832 66.7888 150.363 63.1401C152.834 66.7898 156.762 69.8498 160.478 71.4874C161.855 72.0972 163.28 72.5616 164.737 72.8988ZM130.495 69.3874C125.952 69.3884 121.836 65.9569 120.186 61.7126C119.212 59.2048 118.988 56.49 119.297 53.8076C118.989 56.49 119.214 59.2038 120.191 61.7126C121.836 65.9538 125.954 69.3844 130.489 69.3844C130.546 69.3844 130.601 69.3844 130.658 69.3834C131.473 69.3703 132.273 69.2521 133.055 69.0512C132.274 69.2521 131.476 69.3713 130.662 69.3864C130.606 69.3874 130.551 69.3874 130.495 69.3874ZM139.1 65.969C142.525 63.4773 145.523 60.3931 147.901 56.8868C147.901 56.8888 147.902 56.8898 147.902 56.8908C145.522 60.3951 142.528 63.4814 139.1 65.969ZM121.275 46.8748C123.246 42.8839 127.227 38.4458 129.61 35.0576C123.129 34.3095 114.727 30.5115 111.389 26.5075C114.731 30.5075 123.13 34.3045 129.615 35.0556C127.227 38.4417 123.251 42.8839 121.275 46.8748ZM109.517 23.1941C109.515 23.189 109.512 23.1829 109.51 23.1789C109.512 23.1839 109.514 23.189 109.517 23.1941ZM109.502 23.1587C107.29 17.7878 107.235 11.1669 107.248 5.99077C107.238 11.1659 107.293 17.7857 109.502 23.1587Z" fill="#F9DCB0"/>
<path d="M107.566 161.701C106.936 161.019 106.219 159.914 105.385 158.551C101.364 151.969 94.607 139.398 81.5864 139.398C78.9797 139.398 76.1226 139.902 72.9868 141.058C80.6071 107.455 102.224 20.3198 107.145 0.519928C107.266 1.97272 107.251 3.85962 107.248 5.99084C107.236 11.167 107.29 17.7878 109.502 23.1588C109.505 23.1649 109.508 23.1719 109.51 23.179C109.512 23.183 109.515 23.1891 109.517 23.1942C109.829 23.9503 110.185 24.6812 110.589 25.3799C110.808 25.7565 111.076 26.133 111.389 26.5076C114.727 30.5116 123.13 34.3096 129.61 35.0577C127.228 38.4459 123.247 42.884 121.275 46.8748C121.052 47.3261 120.854 47.7704 120.686 48.2075C120.007 49.9995 119.517 51.8915 119.298 53.7996C119.297 53.8016 119.297 53.8036 119.297 53.8066C119.297 53.8076 119.297 53.8076 119.297 53.8076C118.988 56.4901 119.213 59.2049 120.187 61.7127C121.836 65.9569 125.952 69.3885 130.496 69.3875C130.551 69.3875 130.607 69.3875 130.662 69.3865C131.476 69.3714 132.274 69.2522 133.056 69.0513C135.185 68.5061 137.179 67.3512 138.984 66.0529C139.024 66.0256 139.062 65.9973 139.1 65.9691C142.529 63.4814 145.522 60.3952 147.903 56.8909C148.133 59.0585 149.039 61.1836 150.363 63.1402C152.833 66.7888 156.759 69.8499 160.475 71.4905C161.853 72.0982 163.28 72.5626 164.738 72.8988C166.875 73.3935 169.081 73.6136 171.297 73.6136C173.83 73.6136 176.376 73.3259 178.853 72.8332C173.916 77.4217 166.073 89.5599 168.17 99.4882C166.476 99.4983 164.581 99.6356 162.618 99.9112C155.034 100.975 146.453 104.117 144.596 109.989C144.196 111.258 143.922 112.493 143.76 113.695C142.462 123.318 148.316 130.72 152.648 134.651C151.228 134.849 149.886 134.905 148.6 134.97C145.629 135.115 142.957 135.305 140.326 137.37C139.489 138.026 138.658 138.871 137.821 139.964C137.821 139.965 137.82 139.966 137.819 139.967C137.819 139.967 137.818 139.968 137.818 139.969C137.745 140.064 137.673 140.16 137.6 140.259C133.888 145.301 138.653 156.44 140.336 161.223C137.467 159.248 129.771 153.287 123.712 151.562C122.655 151.26 121.649 151.088 120.726 151.088C120.369 151.088 120.026 151.114 119.697 151.168C115.076 151.924 111.783 155.286 109.152 159.183C108.596 160.004 108.07 160.85 107.566 161.701Z" fill="#F16718"/>
<mask id="mask0_17_19552" style="mask-type:luminance" maskUnits="userSpaceOnUse" x="0" y="0" width="179" height="162">
<path d="M168.174 99.4911C166.077 89.5589 173.917 77.4227 178.856 72.8311C172.736 74.0517 166.186 74.0114 160.475 71.4904C154.766 68.9695 148.559 63.0958 147.904 56.8888C145.496 60.4335 142.462 63.5511 138.983 66.0538C136.52 67.8256 133.697 69.3299 130.662 69.3865C126.054 69.4713 121.855 66.0084 120.187 61.7126C118.518 57.4169 119.051 52.5133 120.689 48.2054C122.328 43.8976 126.959 38.8274 129.61 35.0577C122.523 34.2389 113.137 29.7735 110.59 25.3798C105.978 17.4173 107.701 5.23666 107.098 -3.05176e-05C104.455 4.51582 99.7456 18.6934 92.1152 22.2057C88.2737 23.9735 75.8377 22.6297 71.8165 20.6459C72.9038 26.457 73.9962 32.3066 74.0103 38.2187C74.0214 42.8203 72.9049 48.1348 68.8161 50.2498C64.6152 52.4235 59.3543 49.9843 56.2074 46.4528C53.0605 42.9213 50.5618 39.3645 48.2004 34.7578C45.5684 37.7987 39.3666 41.4413 35.2101 41.5644C27.8412 41.7845 16.7641 36.1521 13.7313 32.8295C13.4042 38.4378 21.5616 54.8021 1.13376 60.483C12.5582 67.0564 30.2854 79.0683 29.7534 87.2591C29.3738 92.8259 19.4536 97.7214 13.8847 99.9848C17.8554 102.802 20.5197 106.463 19.4365 110.488C18.3542 114.513 3.66377 122.853 0 124.841C6.19681 125.511 12.3522 126.565 18.4188 127.993C22.1734 128.876 25.9623 129.933 29.2061 132.021C32.4499 134.108 35.1193 137.391 35.618 141.215C38.1026 139.349 56.4012 126.199 72.6514 141.183C94.9571 132.682 103.267 157.041 107.566 161.706C110.451 156.822 114.1 152.084 119.697 151.168C125.767 150.173 136.768 158.774 140.34 161.226C138.654 156.445 133.889 145.305 137.599 140.261C142.284 133.892 146.814 135.466 152.653 134.65C147.777 130.238 140.982 121.42 144.596 109.989C146.933 102.598 159.926 99.5305 168.174 99.4911Z" fill="white"/>
</mask>
<g mask="url(#mask0_17_19552)">
<path d="M132.369 32.8638C122.024 41.0919 106.859 49.1453 94.2199 53.011C94.0867 53.0514 94.0109 53.1927 94.0523 53.326C94.0927 53.4592 94.2341 53.535 94.3673 53.4936C107.083 49.6017 122.275 41.5341 132.683 33.2595C132.792 33.1727 132.81 33.0132 132.723 32.9042C132.638 32.7951 132.478 32.777 132.369 32.8638Z" fill="#F68C37"/>
<path d="M71.9943 19.1881C72.7646 27.189 77.8852 35.7099 83.4561 41.4453C87.2642 45.3655 91.2409 49.1222 95.3711 52.7001C95.4771 52.792 95.6367 52.7809 95.7275 52.6749C95.8194 52.5699 95.8073 52.4104 95.7023 52.3195C91.5822 48.7496 87.6165 45.0031 83.8175 41.094C78.3082 35.4292 73.2411 26.9639 72.4971 19.1396C72.4839 19.0013 72.3598 18.8994 72.2215 18.9125C72.0831 18.9256 71.9812 19.0488 71.9943 19.1881Z" fill="#F68C37"/>
<path d="M65.978 47.6047C71.7275 57.9892 79.3286 67.3451 88.318 75.0986C88.4229 75.1895 88.5825 75.1774 88.6733 75.0724C88.7642 74.9664 88.7531 74.8069 88.6471 74.716C79.7042 67.0018 72.1394 57.6924 66.4191 47.3604C66.3515 47.2382 66.198 47.1938 66.0759 47.2614C65.9547 47.3291 65.9103 47.4825 65.978 47.6047Z" fill="#F68C37"/>
<path d="M89.5608 72.6655C101.218 70.8059 112.476 66.4748 122.374 60.0397C122.49 59.964 122.524 59.8075 122.448 59.6914C122.372 59.5743 122.216 59.541 122.099 59.6167C112.26 66.0124 101.069 70.3182 89.4811 72.1668C89.3428 72.189 89.2499 72.3182 89.2711 72.4555C89.2933 72.5938 89.4225 72.6877 89.5608 72.6655Z" fill="#F68C37"/>
<path d="M47.729 35.2828C47.6179 46.1782 45.1263 57.0453 40.4802 66.9008C40.4206 67.027 40.4751 67.1775 40.6013 67.237C40.7275 67.2966 40.878 67.2421 40.9375 67.1159C45.6139 57.1937 48.1217 46.2569 48.2338 35.2878C48.2348 35.1475 48.1227 35.0344 47.9834 35.0324C47.8441 35.0314 47.73 35.1424 47.729 35.2828Z" fill="#F68C37"/>
<path d="M1.63049 60.6475C6.40278 61.7388 11.2972 62.283 16.1917 62.283C22.1785 62.283 28.1653 61.4683 33.929 59.8459C34.0633 59.8085 34.141 59.6692 34.1037 59.5349C34.0663 59.4006 33.926 59.3219 33.7927 59.3603C28.0744 60.9695 22.1331 61.7782 16.1917 61.7782C11.3346 61.7782 6.4775 61.2381 1.74358 60.1548C1.60729 60.1245 1.472 60.2093 1.4407 60.3446C1.41042 60.4809 1.49521 60.6162 1.63049 60.6475Z" fill="#F68C37"/>
<path d="M28.9427 83.7053C30.1441 83.7204 31.3526 83.7346 32.5631 83.7346C38.2066 83.7335 43.9017 83.4266 49.199 81.4509C49.3302 81.4014 49.3958 81.2561 49.3474 81.1258C49.2989 80.9956 49.1535 80.929 49.0223 80.9774C43.8219 82.9188 38.1895 83.2298 32.5631 83.2298C31.3566 83.2298 30.1502 83.2157 28.9488 83.2005C28.8095 83.1985 28.6954 83.3095 28.6934 83.4489C28.6914 83.5892 28.8034 83.7033 28.9427 83.7053Z" fill="#F68C37"/>
<path d="M11.8243 98.9187C22.6773 103.753 37.0406 106.59 50.1601 106.591C54.6639 106.591 59.0202 106.255 63.0393 105.551C63.1766 105.526 63.2685 105.395 63.2443 105.259C63.2201 105.122 63.0898 105.03 62.9525 105.053C58.9677 105.753 54.6386 106.086 50.1601 106.086C37.1133 106.087 22.7985 103.257 12.0293 98.4574C11.902 98.4008 11.7536 98.4584 11.6961 98.5856C11.6395 98.7128 11.6971 98.8622 11.8243 98.9187Z" fill="#F68C37"/>
<path d="M61.0552 50.1732C61.1128 51.4765 61.1411 52.792 61.1411 54.1155C61.1421 66.0286 58.8291 78.5757 54.6303 89.5589C54.5808 89.6892 54.6464 89.8345 54.7767 89.884C54.9069 89.9345 55.0523 89.8689 55.1028 89.7386C59.3238 78.6938 61.6459 66.0932 61.6459 54.1155C61.6459 52.7849 61.6176 51.4624 61.56 50.1509C61.554 50.0106 61.4359 49.9036 61.2965 49.9096C61.1572 49.9157 61.0492 50.0338 61.0552 50.1732Z" fill="#F68C37"/>
<path d="M147.27 57.544C141.272 68.1275 135.093 79.4005 135.09 91.6265C135.09 91.8032 135.091 91.9809 135.094 92.1595C135.096 92.2989 135.211 92.4099 135.35 92.4079C135.49 92.4059 135.601 92.2908 135.599 92.1515C135.596 91.9758 135.595 91.8011 135.595 91.6265C135.592 79.5771 141.708 68.3728 147.71 57.7934C147.778 57.6722 147.736 57.5178 147.614 57.4491C147.493 57.3805 147.339 57.4229 147.27 57.544Z" fill="#F68C37"/>
<path d="M142.444 88.9511C152.401 94.1545 162.251 98.112 172.972 101.461C173.105 101.503 173.246 101.429 173.288 101.295C173.329 101.163 173.255 101.021 173.122 100.979C162.426 97.6375 152.607 93.6921 142.678 88.5039C142.555 88.4393 142.403 88.4867 142.338 88.6099C142.273 88.734 142.321 88.8865 142.444 88.9511Z" fill="#F68C37"/>
<path d="M130.326 64.4536C120.47 77.9911 112.819 93.1277 107.762 109.091C107.721 109.224 107.795 109.366 107.927 109.408C108.06 109.451 108.202 109.377 108.244 109.244C113.284 93.3327 120.91 78.2435 130.733 64.7504C130.816 64.6384 130.791 64.4799 130.678 64.3981C130.566 64.3163 130.407 64.3405 130.326 64.4536Z" fill="#F68C37"/>
<path d="M98.1606 117.332C116.142 123.58 134.44 128.914 152.962 133.309C153.097 133.341 153.233 133.258 153.266 133.122C153.298 132.987 153.214 132.851 153.078 132.818C134.573 128.428 116.292 123.097 98.3261 116.856C98.1939 116.81 98.0506 116.879 98.0051 117.011C97.9587 117.143 98.0283 117.287 98.1606 117.332Z" fill="#F68C37"/>
<path d="M117.631 102.943C117.929 103.164 118.455 103.419 119.197 103.73C124.366 105.887 139.827 110.364 147.823 111.052C147.962 111.063 148.084 110.96 148.096 110.822C148.107 110.682 148.004 110.56 147.866 110.548C143.363 110.164 136.366 108.537 130.253 106.815C127.196 105.954 124.357 105.068 122.157 104.303C121.058 103.92 120.117 103.568 119.392 103.265C118.668 102.964 118.151 102.704 117.933 102.539C117.821 102.455 117.663 102.479 117.58 102.591C117.496 102.702 117.519 102.86 117.631 102.943Z" fill="#F68C37"/>
<path d="M63.0573 51.0273C67.3491 69.3643 72.7352 87.4459 79.1763 105.143C79.2248 105.274 79.3692 105.342 79.5004 105.293C79.6316 105.246 79.6993 105.101 79.6508 104.97C73.2167 87.2914 67.8367 69.23 63.549 50.9122C63.5167 50.7759 63.3814 50.6921 63.2451 50.7234C63.1098 50.7557 63.026 50.891 63.0573 51.0273Z" fill="#F68C37"/>
<path d="M82.5241 101.991C98.9439 92.7633 111.646 78.3152 123.997 64.1699C124.089 64.0649 124.078 63.9054 123.973 63.8146C123.868 63.7227 123.709 63.7338 123.617 63.8388C111.268 77.984 98.5967 92.3817 82.2768 101.551C82.1556 101.618 82.1122 101.773 82.1799 101.894C82.2485 102.015 82.4029 102.058 82.5241 101.991Z" fill="#F68C37"/>
<path d="M65.122 111.02C69.1058 103.873 72.0073 96.1242 73.6964 88.1182C73.7246 87.9819 73.6378 87.8477 73.5015 87.8194C73.3652 87.7901 73.2309 87.878 73.2027 88.0142C71.5237 95.9697 68.6394 103.671 64.6808 110.773C64.6132 110.895 64.6566 111.049 64.7787 111.118C64.8999 111.185 65.0543 111.142 65.122 111.02Z" fill="#F68C37"/>
<path d="M93.551 93.8698C93.4965 94.7653 93.4692 95.6628 93.4692 96.5603C93.4692 103.79 95.234 111.016 98.5908 117.421C98.6555 117.545 98.8079 117.593 98.9311 117.528C99.0553 117.464 99.1027 117.311 99.0381 117.187C95.7196 110.856 93.974 103.708 93.974 96.5603C93.974 95.6729 94.0003 94.7865 94.0548 93.9001C94.0629 93.7618 93.9569 93.6416 93.8185 93.6336C93.6792 93.6245 93.5591 93.7305 93.551 93.8698Z" fill="#F68C37"/>
<path d="M33.1494 144.696C34.1297 143.031 35.3291 141.488 36.4296 139.86C39.6148 135.152 41.8924 129.833 43.1029 124.278C43.1322 124.142 43.0463 124.007 42.91 123.978C42.7738 123.948 42.6395 124.034 42.6092 124.17C41.4139 129.662 39.1605 134.922 36.0116 139.578C34.9243 141.187 33.7178 142.739 32.7143 144.44C32.6436 144.56 32.683 144.714 32.8031 144.785C32.9233 144.856 33.0787 144.816 33.1494 144.696Z" fill="#F68C37"/>
<path d="M104.523 138.554C104.121 140.884 103.923 143.247 103.923 145.612C103.923 152.497 105.604 159.386 108.837 165.469C108.903 165.592 109.055 165.64 109.178 165.574C109.301 165.509 109.348 165.356 109.283 165.233C106.09 159.224 104.428 152.415 104.428 145.612C104.428 143.276 104.624 140.942 105.021 138.64C105.044 138.502 104.952 138.371 104.815 138.348C104.678 138.324 104.547 138.417 104.523 138.554Z" fill="#F68C37"/>
<path d="M115.887 142.061C119.806 141.098 123.841 140.618 127.877 140.618C133.027 140.618 138.178 141.4 143.087 142.954C143.219 142.995 143.362 142.921 143.403 142.789C143.446 142.656 143.372 142.514 143.239 142.472C138.279 140.902 133.078 140.114 127.877 140.114C123.801 140.114 119.725 140.598 115.767 141.571C115.632 141.604 115.549 141.741 115.582 141.876C115.615 142.012 115.752 142.094 115.887 142.061Z" fill="#F68C37"/>
<path d="M34.8173 121.993C26.7699 117.373 18.1905 112.582 8.83977 112.579C8.73376 112.579 8.62878 112.579 8.52378 112.581C8.38446 112.582 8.27242 112.698 8.27444 112.837C8.27545 112.976 8.38951 113.087 8.52984 113.086C8.63282 113.084 8.73578 113.084 8.83977 113.084C18.0108 113.081 26.5226 117.807 34.5659 122.431C34.6871 122.501 34.8415 122.458 34.9102 122.338C34.9798 122.217 34.9385 122.062 34.8173 121.993Z" fill="#F68C37"/>
<path d="M94.5249 137.202C101.468 130.288 111.685 125.546 121.456 124.834C121.594 124.824 121.699 124.702 121.689 124.564C121.679 124.425 121.557 124.32 121.418 124.331C111.513 125.057 101.207 129.841 94.1686 136.845C94.0696 136.943 94.0696 137.103 94.1675 137.201C94.2665 137.3 94.426 137.301 94.5249 137.202Z" fill="#F68C37"/>
<path d="M53.3805 126.343C53.4138 126.062 53.4299 125.782 53.4299 125.503C53.4289 123.832 52.8727 122.201 52.1639 120.716C48.9888 114.062 42.8021 109.507 36.894 105.243C36.7809 105.162 36.6234 105.187 36.5416 105.3C36.4599 105.413 36.4851 105.571 36.5982 105.653C42.5083 109.913 48.6122 114.433 51.7086 120.933C52.4001 122.381 52.9262 123.947 52.9252 125.503C52.9252 125.764 52.911 126.023 52.8797 126.283C52.8636 126.422 52.9625 126.547 53.1008 126.563C53.2391 126.58 53.3643 126.481 53.3815 126.343" fill="#F68C37"/>
<path d="M73.1261 139.426C103.242 112.914 121.496 95.3842 168.599 78.3667C168.803 78.293 168.909 78.0679 168.835 77.8639C168.762 77.659 168.536 77.554 168.332 77.6277C121.122 94.6734 102.692 112.342 72.6072 138.837C72.4436 138.98 72.4285 139.228 72.5718 139.391C72.7152 139.554 72.9636 139.57 73.1261 139.426Z" fill="#EE4D1C"/>
<path d="M73.565 138.473C78.2566 137.605 83.0248 137.179 87.7941 137.179C103.313 137.178 118.848 141.696 131.83 150.21C132.012 150.33 132.255 150.279 132.374 150.097C132.493 149.917 132.443 149.672 132.261 149.553C119.145 140.952 103.465 136.393 87.7941 136.392C82.9784 136.392 78.1627 136.823 73.4217 137.701C73.2087 137.74 73.0673 137.945 73.1067 138.158C73.1461 138.372 73.352 138.512 73.565 138.473Z" fill="#EE4D1C"/>
<path d="M22.2157 47.8016C32.2399 55.8349 44.6476 72.8231 54.5395 90.3928C59.4884 99.1782 63.8145 108.112 66.9149 116.146C70.0154 124.178 71.8861 131.32 71.9437 136.471C71.9467 136.688 72.1244 136.863 72.3414 136.86C72.5585 136.858 72.7321 136.679 72.7301 136.462C72.6655 131.137 70.7644 123.946 67.6479 115.864C62.9705 103.743 55.543 89.6367 47.3846 77.028C39.2231 64.4193 30.3429 53.315 22.7074 47.1888C22.5378 47.0525 22.2904 47.0798 22.1551 47.2494C22.0188 47.418 22.0461 47.6663 22.2157 47.8016Z" fill="#EE4D1C"/>
<path d="M72.7574 136.504C58.8514 126.698 41.8582 121.393 24.8538 121.392C22.1188 121.392 19.3829 121.529 16.661 121.808C16.445 121.83 16.2875 122.023 16.3097 122.239C16.3319 122.454 16.5247 122.612 16.7408 122.589C19.4364 122.315 22.1451 122.178 24.8538 122.178C41.6946 122.178 58.5365 127.436 72.3051 137.146C72.4818 137.272 72.7271 137.229 72.8523 137.052C72.9775 136.874 72.9351 136.63 72.7574 136.504Z" fill="#EE4D1C"/>
</g>
<path d="M98.0971 35.0819C81.4643 95.1863 70.8919 137.951 58.6286 199.028C58.15 201.408 59.2838 202.813 60.9143 202.686C62.5447 202.559 64.1459 200.559 65.0212 198.319C65.8965 196.079 66.2014 193.622 66.5033 191.233C73.6218 135.071 85.7934 92.0475 100.04 36.7073C101.005 32.9577 99.0794 32.1804 98.0971 35.0819Z" fill="#EE4D1C"/>
</svg>
