<svg width="110" height="203" viewBox="0 0 110 203" fill="none" xmlns="http://www.w3.org/2000/svg">
<path d="M73.7184 168.138C73.3414 171.109 71.1551 173.775 68.3154 174.728C65.4757 175.68 62.1227 174.871 60.03 172.729C59.2582 175.503 56.2951 177.483 53.4355 177.137C50.5768 176.791 48.1738 174.16 48.0853 171.282C45.4339 172.816 41.8707 172.595 39.4303 170.743C36.9899 168.891 35.9261 165.167 36.6911 162.201C34.5207 165.024 30.0476 165.718 27.1246 163.683C24.2012 161.649 23.2983 157.212 25.1928 154.197C21.7317 154.641 18.0841 152.971 16.1574 150.062C14.2307 147.153 14.118 143.143 15.8788 140.129C12.4527 139.985 9.21824 137.652 8.00128 134.446C6.78363 131.24 7.65396 127.348 10.1204 124.966C7.06532 123.973 4.60396 121.328 3.83391 118.21C3.06345 115.092 4.00946 111.606 6.251 109.304C3.12561 108.196 0.769888 105.176 0.455977 101.876C0.142065 98.5749 1.88579 95.1652 4.7454 93.4882C2.02016 92.0231 0.157578 89.07 0.00957449 85.9796C-0.138131 82.8892 1.43352 79.772 4.00598 78.0533C1.1767 76.5474 -0.446571 73.0661 0.219347 69.9299C0.885265 66.7938 3.78258 64.2724 6.98028 64.0456C4.98631 62.105 4.07481 58.8446 4.82547 56.165C5.57573 53.4864 7.86959 51.2992 10.5816 50.6775C8.84286 48.6534 8.29311 45.6764 9.19526 43.1649C10.0974 40.6534 12.4154 38.7059 15.0443 38.2504C12.5161 32.6903 16.6855 25.2513 22.7489 24.5063C21.3891 18.7851 26.8115 12.5526 32.6659 13.1066C32.3963 7.6321 37.7782 2.59715 43.2228 3.23174C44.2458 1.50204 45.2894 -0.188843 46.8002 0.0170441C48.4234 0.238861 48.2404 2.93037 47.6118 3.79672C50.0805 6.86322 48.9854 12.4889 45.4883 14.2972C47.766 15.3814 49.4738 17.5955 49.9433 20.0752C50.4137 22.5538 49.6359 25.2384 47.9132 27.0824C50.2765 27.7469 52.3085 29.5024 53.3072 31.7444C54.3068 33.9863 54.2531 36.6719 53.1669 38.872C57.8199 40.4346 60.4348 46.9396 58.3779 51.3957C60.8824 51.2713 63.4138 52.4848 64.8849 54.5149C66.356 56.545 66.722 59.328 65.8248 61.6684C68.1742 61.1731 70.7623 62.0265 72.3557 63.8248C73.9491 65.6221 74.4862 68.2938 73.7114 70.5675C76.0816 69.4058 79.1084 70.6013 80.6849 72.7179C82.2614 74.8356 82.6503 77.6156 82.5747 80.2544C85.3567 80.4394 88.5645 82.557 89.8774 85.0168C91.1904 87.4766 91.1377 90.6127 89.7432 93.0267C92.1522 93.0764 94.4906 94.455 95.7011 96.5388C96.9116 98.6216 96.9504 101.336 95.8006 103.454C98.3936 104.393 99.7792 107.67 100.283 110.381C100.787 113.092 99.7593 116.036 97.6775 117.844C99.8965 120.049 101.62 122.945 101.688 126.072C101.756 129.199 99.809 132.472 96.7783 133.244C98.9755 134.958 100.051 137.992 99.4221 140.707C98.7945 143.422 96.4938 145.674 93.7675 146.248C94.8616 147.565 94.5563 150.158 94.2061 151.834C93.857 153.51 92.8962 155.014 91.7006 156.24C89.9331 158.05 87.6156 159.317 85.1379 159.827C86.7841 161.795 85.9406 164.893 84.2815 166.85C82.2455 169.252 78.9214 170.699 75.8648 169.943C75.3297 169.81 73.8875 168.662 73.7184 168.138Z" fill="#F14A1F"/>
<path d="M77.5407 170.144C76.9976 170.144 76.4525 170.083 75.9164 169.955C75.8995 169.951 75.8826 169.947 75.8647 169.943C75.3296 169.81 73.8873 168.662 73.7182 168.138C73.6526 168.655 73.5143 169.157 73.3442 169.649C65.9023 160.962 58.0903 149.883 51.6768 136.331C19.0185 67.316 46.5653 0.434799 46.5653 0.434799L46.7712 0.0170288H46.8C47.729 0.143356 48.0662 1.0793 48.0672 2.01924C48.0682 2.72147 47.8802 3.42569 47.6117 3.79669C48.5228 4.9286 48.9485 6.40964 48.9475 7.91852C48.9445 10.4966 47.6942 13.1563 45.4882 14.2972C47.7658 15.3814 49.4727 17.5955 49.9431 20.0751C50.0336 20.5496 50.0774 21.031 50.0784 21.5134C50.0814 23.5514 49.3066 25.5914 47.913 27.0824C50.2763 27.7468 52.3084 29.5024 53.307 31.7444C53.7835 32.8126 54.0202 33.9823 54.0202 35.151C54.0212 36.4351 53.7357 37.7202 53.1668 38.872C56.7197 40.0656 59.0849 44.1407 59.0879 47.986C59.0889 49.1756 58.8641 50.3423 58.3778 51.3956C58.4951 51.3907 58.6125 51.3867 58.7299 51.3867C58.7299 51.3867 58.7299 51.3867 58.7309 51.3867C58.7338 51.3867 58.7368 51.3867 58.7398 51.3867C61.0732 51.3907 63.3858 52.5335 64.7962 54.3945C64.8002 54.3995 64.8042 54.4055 64.8082 54.4104C64.8211 54.4283 64.835 54.4472 64.8489 54.4651C64.8509 54.4691 64.8529 54.4721 64.8559 54.4751C64.8649 54.488 64.8748 54.5009 64.8847 54.5149C65.8217 55.8069 66.3101 57.4053 66.3101 58.9997C66.3091 59.9098 66.1499 60.818 65.8247 61.6684C66.2683 61.5749 66.7199 61.5291 67.1724 61.5291C67.1724 61.5291 67.1734 61.5291 67.1744 61.5291C67.1764 61.5291 67.1794 61.5291 67.1814 61.5291C69.0772 61.5311 70.975 62.3298 72.265 63.7243C72.2959 63.7571 72.3257 63.791 72.3556 63.8248C73.4636 65.0741 74.0604 66.7461 74.0614 68.4141C74.0614 69.1451 73.947 69.8742 73.7113 70.5675C73.7222 70.5615 73.7332 70.5566 73.7451 70.5506C73.7511 70.5476 73.757 70.5446 73.764 70.5416C74.3836 70.2482 75.0471 70.1139 75.7175 70.1139C75.7185 70.1139 75.7185 70.1139 75.7195 70.1139C75.7225 70.1139 75.7244 70.1139 75.7274 70.1139C77.5675 70.1169 79.4544 71.1295 80.6141 72.6244C80.631 72.6463 80.6479 72.6682 80.6639 72.6901C80.6708 72.7 80.6778 72.709 80.6847 72.7179C82.1389 74.6694 82.5816 77.1849 82.5835 79.6337C82.5835 79.8416 82.5805 80.0485 82.5746 80.2544C85.3566 80.4394 88.5644 82.557 89.8773 85.0168C90.5129 86.2084 90.8292 87.5581 90.8262 88.9078C90.8242 90.3451 90.4622 91.7814 89.743 93.0267C92.1521 93.0764 94.4905 94.455 95.701 96.5388C96.3256 97.612 96.6379 98.8543 96.6369 100.096C96.6359 101.262 96.3574 102.428 95.8004 103.454C98.3935 104.393 99.779 107.67 100.283 110.381C100.368 110.836 100.409 111.298 100.41 111.76C100.412 114.049 99.41 116.339 97.6773 117.844C99.8964 120.049 101.62 122.945 101.688 126.072C101.689 126.127 101.689 126.181 101.689 126.237C101.687 129.312 99.7552 132.485 96.7782 133.244C98.5546 134.63 99.598 136.879 99.6 139.125C99.601 139.656 99.5423 140.187 99.422 140.707C98.7943 143.422 96.4937 145.674 93.7674 146.248C94.3403 146.938 94.5293 147.977 94.5293 149.051C94.5293 150.029 94.3731 151.036 94.206 151.834C93.8569 153.51 92.8961 155.014 91.7005 156.24C89.933 158.05 87.6155 159.317 85.1378 159.827C85.7614 160.573 86.028 161.48 86.028 162.427C86.028 163.979 85.3119 165.634 84.2814 166.85C84.2605 166.873 84.2406 166.897 84.2197 166.921C82.5537 168.847 80.0561 170.142 77.5486 170.144C77.5456 170.144 77.5436 170.144 77.5407 170.144Z" fill="#E93F1F"/>
<path d="M61.9676 153.556C61.9576 153.096 61.9536 152.637 61.9536 152.181C61.9536 129.193 73.4627 109.363 90.1768 93.2595C90.3747 93.0685 90.3807 92.7542 90.1897 92.5563C89.9988 92.3583 89.6845 92.3524 89.4865 92.5433C72.6491 108.76 60.959 128.845 60.959 152.181C60.959 152.644 60.963 153.11 60.9729 153.576C60.9779 153.851 61.2057 154.068 61.4802 154.062C61.7547 154.057 61.9725 153.831 61.9676 153.556Z" fill="#DE3A21"/>
<path d="M65.5431 61.3252C53.9007 75.8968 45.3684 96.9824 41.8226 115.253C41.7706 115.523 41.9465 115.783 42.2162 115.836C42.4858 115.888 42.7469 115.712 42.7994 115.442C46.3095 97.3226 54.8138 76.3355 66.3199 61.9459C66.491 61.7321 66.4562 61.4187 66.2423 61.2477C66.0275 61.0756 65.7142 61.1104 65.5431 61.3252Z" fill="#DE3A21"/>
<path d="M52.8875 38.51C42.6275 44.9513 36.1985 58.5681 34.6296 73.7026C34.6016 73.9752 34.8002 74.2199 35.0733 74.2477C35.3464 74.2766 35.5908 74.0776 35.6192 73.8041C37.1566 58.8754 43.5337 45.5322 53.4156 39.3524C53.6484 39.2062 53.719 38.8988 53.5728 38.6661C53.4266 38.4333 53.1202 38.3637 52.8875 38.51Z" fill="#DE3A21"/>
<path d="M45.4646 13.9023C43.4509 15.8876 41.7401 18.1783 40.4078 20.6729C40.2784 20.9156 40.3701 21.2159 40.6122 21.3462C40.8546 21.4755 41.1557 21.384 41.2851 21.1413C42.5696 18.7363 44.2209 16.5252 46.1628 14.6105C46.3586 14.4175 46.3609 14.1032 46.1682 13.9073C45.9751 13.7113 45.6604 13.7093 45.4646 13.9023Z" fill="#DE3A21"/>
<path d="M3.48646 78.2691C7.48833 83.8571 13.307 87.8923 19.4979 90.742C25.6554 93.5768 30.596 95.3273 37.1475 97.06C37.4132 97.1306 37.6853 96.9715 37.7556 96.7069C37.8259 96.4414 37.6674 96.1688 37.402 96.0982C30.8897 94.3755 26.0308 92.6527 19.9137 89.8389C13.8288 87.0389 8.15932 83.0892 4.2953 77.6902C4.13526 77.4664 3.82484 77.4157 3.60144 77.5749C3.37804 77.735 3.32672 78.0453 3.48646 78.2691Z" fill="#DE3A21"/>
<path d="M9.98141 125.471C21.5167 131.019 33.2065 136.847 45.8945 136.852C47.2837 136.852 48.6842 136.781 50.0966 136.633C50.3701 136.605 50.5681 136.361 50.5392 136.087C50.5104 135.814 50.2657 135.616 49.9932 135.644C48.6156 135.789 47.2499 135.857 45.8945 135.857C33.5228 135.862 21.9573 130.137 10.4127 124.575C10.1652 124.456 9.86802 124.56 9.74916 124.808C9.6298 125.055 9.73394 125.353 9.98141 125.471Z" fill="#DE3A21"/>
<path d="M22.2042 24.8425C23.4903 34.4677 28.214 43.5847 35.3355 50.1862C35.5372 50.3722 35.8515 50.3603 36.0384 50.1594C36.2248 49.9574 36.2132 49.6431 36.0116 49.4561C29.0634 43.0178 24.4429 34.1007 23.1899 24.7113C23.1538 24.4387 22.9035 24.2477 22.6312 24.2845C22.3588 24.3204 22.1677 24.571 22.2042 24.8425Z" fill="#DE3A21"/>
<path d="M76.8894 170.595C77.9934 166.916 80.5546 161.775 83.6828 157.172C86.805 152.565 90.525 148.491 93.8113 146.905C94.059 146.785 94.1614 146.488 94.0421 146.24C93.9217 145.994 93.6243 145.89 93.3777 146.011C89.789 147.764 86.0471 151.934 82.8602 156.613C79.6813 161.295 77.0893 166.482 75.9365 170.309C75.8579 170.573 76.0071 170.849 76.2697 170.929C76.5333 171.007 76.8098 170.859 76.8894 170.595Z" fill="#DE3A21"/>
<path d="M67.3785 162.454C62.0422 163.759 57.1236 164.45 52.2101 164.45C47.2418 164.45 42.2747 163.744 36.8773 162.239C36.6127 162.166 36.3384 162.32 36.2646 162.585C36.1906 162.849 36.3453 163.124 36.6099 163.197C42.0817 164.723 47.1473 165.445 52.2101 165.445C57.2181 165.445 62.2212 164.74 67.6152 163.421C67.8818 163.355 68.0449 163.086 67.9792 162.819C67.9146 162.553 67.645 162.39 67.3785 162.454Z" fill="#DE3A21"/>
<path d="M45.1388 2.45493C31.2343 37.2557 29.4331 76.7602 40.1123 112.683C50.7919 148.605 73.8817 180.709 104.54 202.262C106.683 203.768 109.685 200.452 109.089 197.901C108.492 195.35 106.055 193.739 103.848 192.328C80.8044 177.588 65.1487 158.078 53.2805 133.432C41.412 108.787 35.2416 78.8152 38.0861 51.6085C39.8194 35.0267 42.4532 19.1461 46.7367 3.03282C46.9804 2.11674 47.4867 0.661621 46.5656 0.43483C46.1016 0.32045 45.3265 1.53885 45.1388 2.45493Z" fill="#D53223"/>
</svg>
