<svg width="142" height="214" viewBox="0 0 142 214" fill="none" xmlns="http://www.w3.org/2000/svg">
<path d="M1.38244 116.723C4.56391 110.667 12.0373 106.969 18.4383 109.384C13.3549 103.427 9.98221 91.9062 13.1985 84.7656C18.0854 73.9142 28.5638 73.3193 36.7463 74.7711C29.9575 66.6035 29.1217 60.6875 32.5061 54.2464C36.8097 46.0513 42.8419 47.035 48.0573 48.0197C50.5055 48.4815 52.7751 48.9432 54.6009 48.4562C59.6452 47.1079 61.3147 40.2241 58.4755 35.8412C56.5229 32.8257 51.485 27.6915 57.0333 20.4928C64.6726 10.5786 73.4869 17.7213 76.8606 19.5905C75.7058 13.0162 78.3547 5.68647 83.9833 2.09926C89.6129 -1.48794 97.9993 -0.438702 101.943 4.94686C104.663 8.66404 106.472 14.3222 110.287 16.9088C113.564 19.1308 117.079 18.2518 120.797 17.3727C123.035 16.8433 125.346 16.315 127.724 16.4618C135.079 16.9151 140.959 24.0969 141.151 31.4637C141.345 38.8314 136.68 45.7797 130.391 49.6216C135.15 50.2207 138.537 55.3136 138.141 60.0937C137.745 64.8738 134.245 69.0094 129.968 71.1807C126.453 72.9654 122.427 73.6247 119.019 75.6069C115.611 77.5891 113.36 80.0975 114.728 83.7946C115.997 87.2244 122.888 94.1336 117.964 103.507C113.33 112.327 104.13 111.528 97.9908 110.782C104.132 113.312 106.657 121.463 104.223 127.643C101.789 133.824 95.5173 137.894 89.0022 139.194C94.766 141.147 96.724 149.111 93.8933 154.499C87.6149 166.453 72.201 166.205 63.2176 165.957C60.9966 165.896 59.1687 165.834 57.9694 165.958C51.915 166.577 47.0113 189.392 26.3872 178.557C9.2278 169.543 19.9218 155.62 17.7515 148.083C15.4618 140.128 -5.50457 129.833 1.38244 116.723Z" fill="#ADAE21"/>
<path d="M69.1306 166.011C74.6641 165.898 81.0683 165.169 86.3069 162.231C81.0672 165.17 74.6652 165.898 69.1306 166.011ZM63.2178 165.957C61.9372 165.922 60.7876 165.886 59.8134 165.886C59.0981 165.886 58.4778 165.905 57.9696 165.958C58.4778 165.905 59.0981 165.886 59.8145 165.886C60.7887 165.886 61.9372 165.922 63.2178 165.957ZM103.783 111.208C108.909 111.206 114.483 109.863 117.819 103.776C114.483 109.863 108.91 111.207 103.783 111.208ZM138.148 58.6324C137.835 54.3256 134.666 50.1604 130.391 49.6216C130.391 49.6216 130.391 49.6216 130.392 49.6216C134.667 50.1604 137.835 54.3256 138.148 58.6324ZM115.036 18.3088C114.348 18.3088 113.67 18.2443 113 18.0932C113.003 18.089 113.005 18.0848 113.009 18.0805C113.679 18.2316 114.358 18.2951 115.046 18.2951C116.902 18.2951 118.822 17.8312 120.8 17.3652C122.777 16.9014 124.812 16.4364 126.901 16.4364C127.175 16.4364 127.449 16.4449 127.724 16.4618C127.45 16.4449 127.178 16.4364 126.905 16.4364C124.814 16.4364 122.777 16.9046 120.797 17.3726C118.817 17.8407 116.895 18.3088 115.036 18.3088Z" fill="#E9E6A8"/>
<path d="M36.6174 181.453C33.8469 181.453 30.6601 180.692 26.9609 178.837C50.3407 115.742 101.901 35.1237 113 18.0932C113.67 18.2443 114.348 18.3088 115.036 18.3088C116.895 18.3088 118.817 17.8407 120.797 17.3727C122.777 16.9046 124.814 16.4364 126.905 16.4364C127.178 16.4364 127.45 16.4449 127.724 16.4618C135.079 16.9151 140.959 24.0969 141.151 31.4637C141.156 31.6084 141.158 31.7521 141.158 31.8958C141.158 32.6132 141.112 33.3265 141.025 34.0323C140.229 40.4164 135.943 46.2298 130.391 49.6205C130.391 49.6205 130.391 49.6216 130.392 49.6216C130.391 49.6216 130.391 49.6216 130.391 49.6216C134.666 50.1604 137.835 54.3256 138.147 58.6324C138.164 58.8659 138.173 59.1005 138.173 59.335C138.172 59.5886 138.162 59.8411 138.141 60.0937C137.745 64.8738 134.245 69.0094 129.968 71.1807C126.453 72.9653 122.427 73.6247 119.018 75.6069C116.303 77.1865 114.322 79.1001 114.322 81.6835C114.321 82.3418 114.45 83.0444 114.728 83.7946C115.67 86.3432 119.719 90.8137 119.715 96.7888C119.714 98.8545 119.229 101.099 117.964 103.507C117.937 103.559 117.909 103.61 117.882 103.662C117.871 103.681 117.862 103.699 117.852 103.717C117.841 103.737 117.83 103.757 117.819 103.776C114.482 109.863 108.909 111.206 103.783 111.208C103.78 111.208 103.777 111.208 103.773 111.208H103.771C101.743 111.208 99.786 110.999 98.0658 110.79C98.0405 110.788 98.0162 110.785 97.9908 110.782C102.573 112.67 105.142 117.687 105.14 122.679C105.14 124.378 104.841 126.074 104.223 127.643C101.789 133.824 95.5173 137.894 89.0022 139.194C89.6214 139.403 90.1962 139.683 90.7266 140.02C93.628 141.869 95.177 145.478 95.1749 149.1C95.1739 150.976 94.7555 152.857 93.8933 154.499C92.0315 158.043 89.3678 160.514 86.3068 162.231C81.0681 165.169 74.6639 165.898 69.1304 166.011C68.544 166.022 67.9692 166.028 67.405 166.028C66.36 166.028 65.3552 166.011 64.4084 165.988C64.0006 165.978 63.6033 165.968 63.2176 165.957C61.937 165.922 60.7885 165.886 59.8143 165.886C59.0979 165.886 58.4777 165.905 57.9694 165.958C57.9166 165.963 57.8638 165.97 57.8099 165.979C52.9833 166.782 48.7948 181.453 36.6174 181.453Z" fill="#9F9F21"/>
<path d="M64.6715 98.4847C67.2316 97.9046 69.8298 97.6901 72.4545 97.6901C77.9911 97.6891 83.643 98.6453 89.2673 99.0774C90.7202 99.1894 92.2015 99.255 93.6903 99.255C100.704 99.2539 107.897 97.8106 112.85 92.8719C113.005 92.7166 113.005 92.4652 112.85 92.3098C112.695 92.1545 112.443 92.1535 112.288 92.3088C107.572 97.0234 100.607 98.4604 93.6903 98.4593C92.2248 98.4593 90.7635 98.3949 89.3286 98.285C83.7529 97.8581 78.082 96.8966 72.4545 96.8955C69.7865 96.8955 67.1281 97.1121 64.495 97.7091C64.2816 97.7577 64.1474 97.9712 64.196 98.1857C64.2446 98.3991 64.457 98.5333 64.6715 98.4847Z" fill="#B1B21C"/>
<path d="M78.6242 73.0869C86.962 72.2152 95.3008 71.3414 103.639 70.4697C107.813 70.0322 112.055 69.5863 116.091 68.237C120.127 66.8867 123.99 64.5389 126.4 60.958C126.523 60.7763 126.475 60.529 126.292 60.4065C126.111 60.2839 125.863 60.3325 125.741 60.5142C123.467 63.8986 119.761 66.1713 115.838 67.4826C111.914 68.797 107.731 69.2419 103.555 69.6783C95.2183 70.551 86.8795 71.4238 78.5418 72.2965C78.3231 72.3187 78.1646 72.5153 78.1878 72.7329C78.2111 72.9517 78.4065 73.1101 78.6242 73.0869Z" fill="#B1B21C"/>
<path d="M92.5324 50.1182C98.0194 49.4324 103.427 48.1317 108.627 46.2499C115.915 43.6115 122.719 39.8658 129.472 36.1487C129.664 36.0419 129.734 35.801 129.628 35.6087C129.522 35.4154 129.28 35.3457 129.088 35.4513C122.335 39.1706 115.567 42.8931 108.356 45.5018C103.213 47.3636 97.8609 48.6505 92.4331 49.33C92.2154 49.3574 92.0611 49.5561 92.0886 49.7737C92.115 49.9914 92.3137 50.1467 92.5324 50.1192" fill="#B1B21C"/>
<path d="M49.7142 129.77C58.9237 129.511 68.1331 129.252 77.3426 128.992C81.1084 128.885 85.0052 128.768 88.6082 127.387C92.2155 125.999 95.5111 123.089 96.2613 119.201C96.3025 118.985 96.1609 118.777 95.9443 118.736C95.7288 118.695 95.5206 118.836 95.4794 119.052C94.818 122.566 91.7495 125.331 88.3229 126.645C84.891 127.964 81.0862 128.093 77.3204 128.198C68.111 128.457 58.9015 128.716 49.6921 128.975C49.4723 128.982 49.299 129.165 49.3053 129.384C49.3117 129.603 49.4945 129.776 49.7142 129.77Z" fill="#B1B21C"/>
<path d="M37.1487 158.133C39.1446 158.235 41.1427 158.287 43.1418 158.287C52.2551 158.287 61.3673 157.216 70.2313 155.093C75.1815 153.903 80.5322 152.116 83.4728 147.757C83.5943 147.574 83.5457 147.328 83.364 147.205C83.1812 147.083 82.935 147.131 82.8124 147.313C80.0948 151.373 74.9596 153.149 70.0464 154.319C61.2437 156.427 52.1928 157.492 43.1418 157.492C41.1564 157.492 39.1721 157.441 37.1899 157.338C36.9701 157.327 36.7831 157.496 36.7725 157.714C36.7609 157.934 36.9289 158.121 37.1487 158.133Z" fill="#B1B21C"/>
<path d="M88.2553 98.844C93.9167 96.9167 99.0243 93.4077 102.854 88.8146C102.994 88.6455 102.972 88.3951 102.803 88.2546C102.635 88.114 102.383 88.1362 102.243 88.3053C98.5087 92.7843 93.5194 96.2119 87.9996 98.0917C87.7915 98.1625 87.6805 98.3886 87.7513 98.5957C87.8221 98.8038 88.0472 98.9148 88.2553 98.844Z" fill="#B1B21C"/>
<path d="M64.7856 129.302C71.0556 125.691 77.5537 121.913 81.9841 116.056C82.1162 115.882 82.0813 115.633 81.907 115.499C81.7316 115.367 81.4822 115.402 81.3491 115.578C77.054 121.264 70.6604 125.006 64.3894 128.613C64.1992 128.723 64.1337 128.966 64.2425 129.156C64.3524 129.346 64.5954 129.412 64.7856 129.302Z" fill="#B1B21C"/>
<path d="M75.2438 129.059C78.7888 130.418 82.4573 131.451 86.1914 132.142C86.4069 132.182 86.614 132.04 86.6542 131.824C86.6943 131.607 86.5517 131.4 86.3362 131.36C82.6507 130.678 79.0275 129.658 75.528 128.316C75.3231 128.238 75.0938 128.34 75.0145 128.545C74.9363 128.75 75.0388 128.981 75.2438 129.059Z" fill="#B1B21C"/>
<path d="M52.6599 157.843C61.0579 153.407 68.7743 147.684 75.4585 140.936C75.6138 140.78 75.6128 140.528 75.4564 140.374C75.3 140.22 75.0485 140.221 74.8943 140.376C68.2661 147.067 60.6141 152.741 52.288 157.141C52.0946 157.243 52.0196 157.483 52.1221 157.677C52.2256 157.872 52.4655 157.946 52.6599 157.843Z" fill="#B1B21C"/>
<path d="M54.454 118.382C41.2907 111.793 31.6544 98.545 29.4408 83.9922C29.408 83.7756 29.2052 83.6266 28.9875 83.6594C28.7709 83.6921 28.6208 83.895 28.6547 84.1127C30.9148 98.9306 40.6958 112.378 54.0979 119.093C54.2945 119.191 54.5333 119.112 54.6315 118.915C54.7298 118.719 54.6506 118.48 54.454 118.382Z" fill="#CAC315"/>
<path d="M68.447 93.4225C66.2873 86.1287 60.8647 80.4536 56.2367 74.6147C52.0039 69.2873 48.1589 63.0258 48.1653 56.4642C48.1653 55.8472 48.1991 55.2269 48.2688 54.6035C48.2942 54.3859 48.1367 54.1883 47.918 54.164C47.7003 54.1397 47.5038 54.296 47.4785 54.5148C47.4045 55.1677 47.3696 55.8186 47.3696 56.4642C47.376 63.346 51.3488 69.73 55.6133 75.1092C60.2815 80.983 65.6079 86.5989 67.6841 93.6475C67.7454 93.8578 67.9673 93.9783 68.1775 93.9159C68.3889 93.8536 68.5083 93.6327 68.447 93.4225Z" fill="#CAC315"/>
<path d="M86.8972 61.9628C84.9678 59.3002 80.5786 53.9675 76.6671 47.6954C72.7544 41.4297 69.3468 34.2278 69.3542 27.9525C69.3542 27.6863 69.3606 27.4211 69.3722 27.158C69.3827 26.9382 69.2137 26.7522 68.9939 26.7417C68.7752 26.7311 68.5882 26.9012 68.5787 27.1199C68.5649 27.3968 68.5586 27.6736 68.5586 27.9525C68.5649 34.512 72.0528 41.79 75.9929 48.1159C79.9341 54.4355 84.3539 59.8063 86.2527 62.4288C86.3816 62.6074 86.6309 62.6465 86.8084 62.5176C86.986 62.3887 87.0261 62.1404 86.8972 61.9628Z" fill="#CAC315"/>
<path d="M98.3161 42.1788C94.2365 36.5375 92.0514 29.5639 92.0514 22.6029C92.0514 20.365 92.2775 18.1292 92.7372 15.9388C92.7826 15.7243 92.6452 15.513 92.4297 15.4686C92.2152 15.4232 92.0039 15.5605 91.9595 15.7761C91.4872 18.0214 91.2568 20.3122 91.2568 22.6029C91.2568 29.7298 93.4895 36.8598 97.6716 42.6447C97.8005 42.8233 98.0488 42.8635 98.2263 42.7346C98.4049 42.6057 98.445 42.3574 98.3161 42.1788Z" fill="#CAC315"/>
<path d="M40.5278 153.684C36.2136 149.686 31.9005 145.689 27.5874 141.691C24.1481 138.503 20.7046 135.304 18.0113 131.531C15.318 127.76 13.3918 123.323 13.3464 118.744C13.3442 118.525 13.1646 118.348 12.9448 118.351C12.7251 118.353 12.5497 118.533 12.5518 118.753C12.6025 123.553 14.6069 128.131 17.3647 131.993C20.1214 135.853 23.6082 139.086 27.0464 142.274C31.3595 146.272 35.6737 150.269 39.9868 154.268C40.1474 154.417 40.3989 154.407 40.5489 154.247C40.6979 154.085 40.6884 153.833 40.5278 153.684Z" fill="#CAC315"/>
<path d="M23.7764 121.169C23.6887 122.198 23.6465 123.231 23.6465 124.262C23.6465 131.428 25.728 138.585 29.6132 144.612C29.7326 144.797 29.9788 144.85 30.1626 144.732C30.3475 144.612 30.4004 144.366 30.282 144.181C26.4814 138.287 24.4411 131.274 24.4411 124.262C24.4411 123.253 24.4833 122.243 24.5689 121.237C24.5879 121.018 24.4252 120.826 24.2065 120.807C23.9878 120.789 23.7955 120.95 23.7764 121.169Z" fill="#CAC315"/>
<path d="M37.5472 104.001C30.6211 103.02 23.9189 100.47 18.0907 96.6008C17.9079 96.4793 17.6606 96.53 17.5391 96.7128C17.4176 96.8956 17.4673 97.1428 17.6511 97.2633C23.5787 101.199 30.3907 103.79 37.4352 104.79C37.6528 104.82 37.8536 104.669 37.8853 104.451C37.9159 104.234 37.7648 104.033 37.5472 104.001Z" fill="#CAC315"/>
<path d="M56.6043 75.0786C56.0622 72.9928 55.7917 70.8373 55.7917 68.6818C55.7917 65.624 56.3348 62.5651 57.4094 59.7048C57.4865 59.4988 57.3819 59.2695 57.177 59.1924C56.9709 59.1152 56.7416 59.2198 56.6645 59.4248C55.5561 62.378 54.9972 65.5299 54.9961 68.6818C54.9961 70.9039 55.275 73.1259 55.835 75.2783C55.89 75.4917 56.1077 75.6185 56.32 75.5636C56.5324 75.5076 56.6603 75.2909 56.6043 75.0786Z" fill="#CAC315"/>
<path d="M51.4067 68.0141C49.6083 67.9813 47.8258 67.4562 46.0761 66.8328C42.0134 65.3852 38.125 63.4506 34.5209 61.0837C34.3371 60.9633 34.0898 61.014 33.9694 61.1978C33.8489 61.3806 33.9007 61.6279 34.0835 61.7484C37.7415 64.15 41.6869 66.1132 45.8098 67.5819C47.5849 68.2138 49.4488 68.7727 51.3919 68.8097C51.6117 68.8129 51.7934 68.6385 51.7966 68.4188C51.8008 68.199 51.6265 68.0183 51.4067 68.0141Z" fill="#CAC315"/>
<path d="M59.2785 28.559C63.8061 35.0709 69.0797 41.063 74.9629 46.3831C75.1256 46.5299 75.3771 46.5172 75.524 46.3545C75.6719 46.1918 75.6592 45.9393 75.4965 45.7924C69.6587 40.5136 64.4242 34.5669 59.9315 28.1047C59.8058 27.924 59.5585 27.8807 59.3779 28.0054C59.1972 28.1311 59.1528 28.3783 59.2785 28.559Z" fill="#CAC315"/>
<path d="M93.164 31.581C90.8901 29.8555 88.7716 27.924 86.8422 25.8171C84.0992 22.828 81.6902 19.1562 81.6965 15.2827C81.6965 15.0185 81.7071 14.7522 81.7303 14.486C81.7494 14.2673 81.5866 14.075 81.3679 14.056C81.1492 14.0369 80.9569 14.1997 80.9379 14.4184C80.9136 14.7079 80.9009 14.9963 80.9009 15.2827C80.9083 19.4965 83.4642 23.3013 86.2558 26.3549C88.2169 28.4956 90.3703 30.4599 92.6832 32.2149C92.8586 32.347 93.108 32.3132 93.2411 32.1378C93.3732 31.9634 93.3394 31.713 93.164 31.581Z" fill="#CAC315"/>
<path d="M114.686 43.6813C117.385 40.0571 119.494 35.9965 120.907 31.7045C120.975 31.4953 120.862 31.2713 120.654 31.2026C120.445 31.134 120.22 31.247 120.151 31.4563C118.766 35.6658 116.696 39.6513 114.048 43.2068C113.917 43.3822 113.953 43.6316 114.129 43.7626C114.306 43.8936 114.555 43.8577 114.686 43.6813Z" fill="#B1B21C"/>
<path d="M107.708 46.5616C111.018 47.1111 114.328 47.6605 117.639 48.2089C117.855 48.2448 118.059 48.099 118.095 47.8824C118.131 47.6658 117.985 47.4608 117.768 47.4249C114.458 46.8754 111.148 46.3271 107.838 45.7776C107.622 45.7406 107.417 45.8875 107.381 46.1041C107.345 46.3207 107.492 46.5257 107.708 46.5616Z" fill="#B1B21C"/>
<path d="M103.548 70.4041C107.187 68.2064 110.68 65.7656 113.993 63.1029C114.164 62.9656 114.192 62.7151 114.054 62.544C113.916 62.3728 113.666 62.3453 113.495 62.4827C110.209 65.1232 106.745 67.5439 103.137 69.7237C102.949 69.8378 102.888 70.0819 103.001 70.2699C103.115 70.458 103.36 70.5182 103.548 70.4041Z" fill="#B1B21C"/>
<path d="M117.187 67.7964C118.652 68.0574 120.139 68.1873 121.625 68.1873C124.127 68.1873 126.628 67.8196 129.023 67.0895C129.233 67.0261 129.351 66.8042 129.288 66.594C129.223 66.3837 129.001 66.2654 128.791 66.3288C126.473 67.0356 124.049 67.3917 121.625 67.3917C120.185 67.3917 118.745 67.266 117.327 67.0134C117.111 66.9743 116.904 67.118 116.866 67.3347C116.827 67.5513 116.972 67.7573 117.187 67.7964Z" fill="#B1B21C"/>
<path d="M14.666 204.93C13.9485 206.795 13.2279 208.805 13.7383 210.776C14.2476 212.748 16.5605 214.457 18.4022 213.604C19.8318 212.941 20.2555 211.201 20.5492 209.674C24.8348 187.37 44.8778 144.083 57.0954 119.487C78.0333 77.3355 116.603 19.8842 113.347 18.256C109.982 17.0736 87.2765 56.423 84.1828 61.6289C77.6222 72.6695 71.2868 83.8421 65.1838 95.1395C52.9767 117.734 41.6921 140.826 31.3668 164.347C25.4868 177.74 19.9174 191.272 14.666 204.93Z" fill="#818223"/>
</svg>
