<svg width="143" height="191" viewBox="0 0 143 191" fill="none" xmlns="http://www.w3.org/2000/svg">
<path d="M77.1026 117.185C72.9041 128.58 62.7738 137.454 51.076 140.712C39.378 143.969 26.3937 141.737 16.1068 135.286C10.6363 131.855 5.81432 127.186 2.97316 121.387C-3.31616 108.552 1.19362 92.8674 8.85593 80.8027C16.5182 68.736 43.3457 15.151 47.0448 0C58.557 15.1216 112.604 50.6809 123.817 57.8192C135.031 64.9585 143.653 77.4127 142.289 93.1103C141.167 106.052 129.439 119.442 117.015 123.236C99.6694 128.536 83.9948 125.016 77.1026 117.185Z" fill="#D52325"/>
<path d="M123.818 57.8192C112.604 50.6809 58.5571 15.1216 47.0449 -1.52588e-05C47.0449 -1.52588e-05 63.131 54.2448 67.6469 71.8495C70.6463 83.5413 77.1027 117.185 77.1027 117.185C83.9949 125.016 99.6695 128.536 117.016 123.236C129.439 119.442 141.167 106.052 142.289 93.1103C143.653 77.4127 135.031 64.9585 123.818 57.8192Z" fill="#BB1F24"/>
<path d="M51.7588 16.3711C56.0817 40.0406 66.0393 62.422 69.9184 86.169C71.2348 94.232 71.8401 102.397 72.9649 110.489C76.8555 138.468 87.0497 165.527 102.596 189.141C103.393 190.352 105.108 190.771 106.327 189.955C107.498 189.173 108.032 187.676 108.032 186.275C108.033 184.191 107.041 182.205 105.661 180.641C105.07 179.97 104.41 179.367 103.71 178.809C101.48 177.031 99.5333 174.943 98.0723 172.506C92.3228 162.914 79.1962 138.191 77.2388 109.534C74.7212 72.6675 51.7588 16.3711 51.7588 16.3711Z" fill="#9D1C20"/>
<mask id="mask0_17_19281" style="mask-type:luminance" maskUnits="userSpaceOnUse" x="0" y="0" width="143" height="143">
<path d="M77.1026 117.185C72.9041 128.58 62.7727 137.454 51.076 140.712C39.378 143.969 26.3933 141.737 16.1068 135.286C10.6363 131.855 5.81432 127.186 2.97316 121.387C-3.31616 108.552 1.19362 92.8674 8.85593 80.8027C16.5182 68.736 43.3461 15.151 47.0448 0C58.557 15.1216 112.604 50.6809 123.817 57.8192C135.031 64.9585 143.653 77.4127 142.289 93.1103C141.167 106.052 129.439 119.442 117.015 123.236C99.6694 128.536 83.9948 125.016 77.1026 117.185Z" fill="white"/>
</mask>
<g mask="url(#mask0_17_19281)">
<path d="M76.3422 113.684C102.363 103.74 125.068 85.3489 140.195 61.9601C140.32 61.7653 140.265 61.5066 140.071 61.3809C139.876 61.2553 139.617 61.3108 139.491 61.5045C124.464 84.7415 101.894 103.024 76.0437 112.901C75.8269 112.983 75.719 113.225 75.8018 113.442C75.8845 113.658 76.1264 113.767 76.3422 113.684Z" fill="#9D1C20"/>
<path d="M71.4913 81.5578C66.9733 82.4302 62.3915 82.7549 57.7818 82.7549C51.5779 82.7549 45.3254 82.1663 39.1214 81.5411C28.8508 80.5095 18.2061 79.2193 9.74412 73.543C9.55184 73.4142 9.29158 73.4655 9.16277 73.6572C9.03385 73.8499 9.08548 74.1096 9.27776 74.2384C17.9717 80.0602 28.7608 81.3368 39.0376 82.3747C45.2452 82.9999 51.5252 83.5916 57.7818 83.5927C62.4303 83.5927 67.0665 83.2649 71.6494 82.381C71.8767 82.337 72.0254 82.1171 71.9814 81.8898C71.9374 81.6625 71.7186 81.5138 71.4913 81.5578Z" fill="#9D1C20"/>
<path d="M90.1775 107.403C107.235 93.7167 117.698 72.1868 117.919 50.3196C117.921 50.0882 117.736 49.8986 117.504 49.8965C117.273 49.8944 117.083 50.0798 117.081 50.3112C116.867 71.9166 106.509 93.2297 89.6529 106.749C89.4727 106.894 89.4434 107.156 89.5879 107.338C89.7335 107.518 89.9964 107.547 90.1775 107.403Z" fill="#9D1C20"/>
<path d="M65.7269 60.2981C77.3265 52.6456 86.8704 41.9152 93.1153 29.4997C93.219 29.2934 93.1352 29.0421 92.9289 28.9374C92.7226 28.8337 92.4702 28.9175 92.3665 29.1238C86.1886 41.4052 76.7411 52.0288 65.265 59.5996C65.0723 59.7263 65.0189 59.986 65.1467 60.1797C65.2734 60.3724 65.5331 60.4258 65.7269 60.2981Z" fill="#9D1C20"/>
<path d="M39.8118 81.9935C27.3553 88.1641 13.4601 91.4138 -0.440454 91.4138C-0.798832 91.4138 -1.15721 91.4117 -1.51559 91.4075C-1.74672 91.4043 -1.93659 91.5897 -1.93942 91.8211C-1.94225 92.0526 -1.75699 92.2422 -1.52543 92.2453C-1.16381 92.2495 -0.802184 92.2516 -0.440454 92.2516C13.5906 92.2516 27.6097 88.9726 40.1837 82.7444C40.391 82.6418 40.4757 82.3904 40.3731 82.1831C40.2704 81.9757 40.0192 81.8909 39.8118 81.9935Z" fill="#9D1C20"/>
<path d="M71.1049 95.163C50.7737 112.455 25.0966 123.378 -1.45968 126.036C-1.68998 126.059 -1.85775 126.264 -1.83482 126.494C-1.81188 126.725 -1.60651 126.893 -1.37621 126.87C25.3531 124.194 51.1836 113.204 71.6474 95.8018C71.8234 95.6521 71.8454 95.3871 71.6956 95.2112C71.5448 95.0352 71.2809 95.0133 71.1049 95.1641" fill="#9D1C20"/>
<path d="M67.7795 69.5571C51.8071 66.2948 35.2492 61.3129 24.3783 49.3509C24.2225 49.1791 23.9573 49.1666 23.7864 49.3226C23.6154 49.4787 23.6027 49.7436 23.7585 49.9143C34.8528 62.1067 51.5964 67.1012 67.6119 70.3781C67.8392 70.4242 68.0602 70.2776 68.1062 70.0514C68.1523 69.8252 68.0067 69.6031 67.7795 69.5571Z" fill="#9D1C20"/>
<path d="M29.0013 119.565C26.0456 128.055 21.2891 135.918 15.1387 142.477C14.9805 142.645 14.9891 142.911 15.1576 143.068C15.3265 143.228 15.5917 143.218 15.7499 143.05C21.9808 136.404 26.798 128.442 29.7924 119.84C29.8686 119.621 29.7532 119.382 29.5347 119.306C29.3158 119.23 29.0773 119.346 29.0013 119.565Z" fill="#9D1C20"/>
<path d="M55.0785 106.729C53.5554 107.12 51.9927 107.384 50.4184 107.631C40.2177 109.23 29.8918 110.028 19.5663 110.028C8.79811 110.028 -1.96958 109.159 -12.5962 107.421C-12.8244 107.385 -13.0396 107.54 -13.0769 107.768C-13.1145 107.996 -12.9594 108.211 -12.7312 108.249C-2.05954 109.993 8.75319 110.866 19.5663 110.866C29.9352 110.866 40.304 110.064 50.5486 108.459C52.1285 108.211 53.7177 107.943 55.2867 107.541C55.5108 107.483 55.6459 107.255 55.5882 107.031C55.5309 106.807 55.3022 106.672 55.0785 106.729Z" fill="#9D1C20"/>
<path d="M75.3966 112.463C65.8716 126.095 51.1807 135.191 36.5287 143.276C36.3261 143.388 36.2525 143.643 36.3641 143.846C36.4759 144.048 36.7307 144.122 36.9332 144.01C51.6057 135.909 66.4193 126.766 76.0826 112.944C76.2156 112.754 76.1695 112.492 75.9799 112.36C75.7893 112.227 75.5285 112.273 75.3966 112.463Z" fill="#9D1C20"/>
<path d="M58.5334 67.1504C50.6022 54.737 39.2283 44.5554 26.0158 38.0413C25.8083 37.9387 25.5572 38.0246 25.4549 38.2319C25.3527 38.4393 25.4377 38.6906 25.6456 38.7933C38.7185 45.2372 49.9804 55.3193 57.8273 67.6018C57.9516 67.7966 58.2106 67.8531 58.4057 67.7285C58.6008 67.6039 58.6577 67.3452 58.5334 67.1504Z" fill="#9D1C20"/>
<path d="M61.494 44.9083C62.1548 41.2209 63.3916 37.6339 64.4263 33.9706C66.2381 27.5591 67.4006 20.9644 67.8907 14.3184C67.9075 14.088 67.7347 13.8869 67.5043 13.8701C67.2728 13.8534 67.0728 14.0262 67.055 14.2566C66.5691 20.8461 65.416 27.3853 63.6199 33.7433C62.5957 37.3763 61.3463 40.9873 60.6698 44.7606C60.6289 44.989 60.7797 45.2068 61.008 45.2476C61.2353 45.2885 61.4531 45.1366 61.494 44.9083Z" fill="#9D1C20"/>
<path d="M55.0175 29.9082C47.6787 26.6396 41.251 21.3394 36.6459 14.7551C36.5133 14.5656 36.2523 14.5195 36.0625 14.6525C35.8731 14.7855 35.8268 15.0463 35.9594 15.2358C40.6537 21.9457 47.1968 27.3413 54.6767 30.6737C54.8877 30.7669 55.1356 30.6727 55.2298 30.4611C55.3238 30.2496 55.2285 30.0024 55.0175 29.9082Z" fill="#9D1C20"/>
<path d="M63.8263 37.1333C70.9111 32.8772 76.7465 26.581 80.456 19.1966C80.5597 18.9903 80.4759 18.7379 80.2696 18.6342C80.0622 18.5305 79.8109 18.6143 79.7072 18.8206C76.071 26.0615 70.3414 32.2425 63.3948 36.4159C63.1968 36.5343 63.133 36.7919 63.2513 36.9909C63.3707 37.1888 63.6283 37.2527 63.8263 37.1333Z" fill="#9D1C20"/>
<path d="M49.7333 27.3445C45.5822 28.3278 41.315 28.8211 37.0482 28.8211C33.9165 28.8211 30.7854 28.5551 27.7 28.0231C27.4721 27.9833 27.2553 28.1362 27.2156 28.3645C27.1763 28.5918 27.3294 28.8085 27.5572 28.8483C30.6904 29.3898 33.8695 29.6589 37.0482 29.6589C41.3796 29.6589 45.7111 29.1583 49.9264 28.1603C50.1518 28.1069 50.2909 27.8807 50.2377 27.6555C50.1841 27.4303 49.9587 27.291 49.7333 27.3445Z" fill="#9D1C20"/>
<path d="M73.2812 88.2677C89.3778 74.2677 100.155 54.3108 103.037 33.1736C103.068 32.9442 102.908 32.7337 102.678 32.7023C102.449 32.6709 102.238 32.8322 102.207 33.0605C99.3563 53.9914 88.672 73.7734 72.7313 87.6352C72.5564 87.787 72.5386 88.052 72.6905 88.2258C72.8424 88.4007 73.1063 88.4196 73.2812 88.2677Z" fill="#9D1C20"/>
<path d="M76.986 114.744C80.1864 115.174 83.4445 115.381 86.734 115.381C106.819 115.379 128.018 107.671 143.81 95.9097C143.995 95.7715 144.033 95.5086 143.894 95.3232C143.756 95.1379 143.494 95.0991 143.309 95.2374C127.666 106.894 106.604 114.546 86.734 114.543C83.4801 114.543 80.2587 114.339 77.098 113.913C76.8687 113.882 76.6582 114.043 76.6267 114.273C76.5964 114.502 76.7566 114.713 76.986 114.744Z" fill="#9D1C20"/>
</g>
</svg>
