<svg width="170" height="238" viewBox="0 0 170 238" fill="none" xmlns="http://www.w3.org/2000/svg">
<path d="M34.5827 217.86C41.5454 210.493 45.8881 200.703 46.6734 190.597C47.4587 180.494 43.0227 171.025 38.7107 161.855C36.5507 157.263 34.3907 152.669 32.2307 148.077C36.1774 149.127 40.0201 150.568 43.6841 152.371C37.3481 141.256 32.0401 129.553 27.8521 117.463C30.9681 119.587 34.2574 121.455 37.6787 123.041C32.0307 112.772 31.6081 100.54 31.3174 88.8226C32.9161 90.6027 35.6027 93.5493 38.0547 96.972C37.8894 87.3547 38.0867 82.8507 39.9427 73.412C40.5561 74.3467 45.1507 80.5213 45.9481 82.1546C44.6187 72.0293 45.3507 65.264 47.8187 55.2293C50.0774 57.9973 52.1027 60.5173 54.1467 62.9413C54.84 53.5827 55.6281 44.7213 60.5014 36.7027C61.7921 39.9627 62.9747 42.5653 64.828 46.5027C66.032 38.672 69.0294 31.124 73.5254 24.6C73.7774 28.5747 74.4547 32.5213 75.5414 36.352C77.4827 26.4787 80.9014 21.0173 86.572 12.8213C87.9907 15.2093 89.8467 18.5267 90.9267 20.62C94.3867 13.504 98.3094 6.612 102.661 0.0039978C105.148 5.33467 107.484 11.8213 109.156 17.8667C111.669 14.872 113.301 12.5747 115.281 9.70935C118.063 15.7654 119.701 20.6373 119.577 27.4107C121.355 25.788 123.119 24.0627 125.147 22.1333C128.833 29.6133 129.751 34.9053 129.541 42.6893C131.295 40.264 132.3 38.3053 133.563 36.6533C137.197 41.904 138.017 48.6413 137.631 55.3307C140.015 53.3653 142.356 51.8253 144.807 50.0027C145.704 56.0267 146.183 62.112 146.236 68.2013C149.144 66.6093 150.612 65.5573 153.303 63.9707C153.625 70.4507 152.781 76.3333 151.023 82.6627C153.703 81.504 155.775 80.6107 158.504 79.108C159.477 85.0107 158.54 91.0253 154.657 96.364C157.577 96.056 160.499 95.7493 163.419 95.4413C162.585 100.996 160.459 106.519 156.587 110.612C159.721 112.028 165.736 112.437 168.204 113.081C165.772 122.011 162.32 125.991 156.952 131.749C160.525 132.481 164.328 133.651 169.251 135.017C164.571 140.215 158.728 143.919 152.2 147.637C155.149 148.351 157.748 149.321 160.697 150.036C155.517 156.077 149.6 160.128 141.112 162.803C145.605 164.365 150.099 165.929 154.592 167.491C147.195 172.615 139.224 176.127 130.559 177.98C132.884 178.781 134.508 179.687 136.833 180.488C81.104 220.724 45.4067 217.992 34.5827 217.86Z" fill="#F3AA0E"/>
<path d="M44.6509 217.865C61.2109 217.246 92.5282 212.315 136.235 180.919C92.5042 212.333 61.2015 217.251 44.6509 217.865ZM136.325 180.855C136.393 180.805 136.463 180.756 136.531 180.707C136.461 180.756 136.395 180.804 136.325 180.855ZM136.643 180.625C136.707 180.58 136.768 180.535 136.833 180.488C136.769 180.535 136.706 180.58 136.643 180.625ZM155.056 95.7987C155.288 95.4587 155.508 95.1173 155.716 94.7733C158.706 89.8453 159.382 84.432 158.504 79.1094C158.504 79.1094 158.504 79.108 158.505 79.108C159.443 84.804 158.604 90.6027 155.056 95.7987Z" fill="#F8E095"/>
<path d="M40.3641 217.943C39.3001 217.943 38.3215 217.929 37.4375 217.913C38.4655 217.208 39.4935 216.504 40.5415 215.784C48.1868 210.533 54.9828 204.588 61.0095 198.117C61.0175 198.181 61.0255 198.245 61.0335 198.309C61.0655 198.557 61.2775 198.737 61.5202 198.737C61.5415 198.737 61.5628 198.736 61.5828 198.733C61.8521 198.699 62.0415 198.452 62.0081 198.184C61.9641 197.849 61.9188 197.513 61.8735 197.18C65.3535 193.368 68.5748 189.374 71.5535 185.235C71.6388 185.303 71.7455 185.341 71.8588 185.341C71.8908 185.341 71.9242 185.339 71.9575 185.332C72.2228 185.277 72.3948 185.019 72.3402 184.753C72.3082 184.592 72.2748 184.432 72.2402 184.27C79.3535 174.205 85.0668 163.281 89.6241 151.96C89.6495 151.964 89.6762 151.967 89.7015 151.967C89.7722 151.967 89.8415 151.952 89.9095 151.92C90.1548 151.805 90.2615 151.513 90.1468 151.268C90.1028 151.173 90.0588 151.079 90.0135 150.984C92.1521 145.587 94.0282 140.103 95.6762 134.575C95.8348 135.003 95.9882 135.435 96.1375 135.868C96.2068 136.072 96.3975 136.2 96.6015 136.2C96.6548 136.2 96.7081 136.191 96.7615 136.173C97.0175 136.084 97.1535 135.805 97.0655 135.549C96.7722 134.696 96.4601 133.852 96.1335 133.016C98.3428 125.397 100.117 117.711 101.531 110.076C101.789 110.62 102.04 111.167 102.284 111.717C102.366 111.9 102.545 112.009 102.733 112.009C102.8 112.009 102.867 111.996 102.932 111.968C102.969 111.951 103.004 111.929 103.036 111.905C103.072 111.936 103.112 111.961 103.157 111.981C103.221 112.011 103.289 112.024 103.356 112.024C103.544 112.024 103.724 111.915 103.805 111.732C103.868 111.58 104.123 111.224 104.523 110.784C106.031 109.104 109.565 105.999 113.992 102.124C120.639 96.3067 129.325 88.72 136.441 81.3374C140 77.6454 143.165 74.0054 145.493 70.648C146.236 69.5734 146.895 68.5293 147.454 67.5187C147.075 67.7374 146.672 67.9627 146.236 68.2014C146.235 68.028 146.233 67.8534 146.231 67.68C145.007 69.7707 143.345 72.0467 141.376 74.4067C135.142 81.9053 125.893 90.3387 118.036 97.2693C114.108 100.736 110.527 103.828 107.836 106.249C106.491 107.46 105.369 108.504 104.532 109.348C103.84 110.055 103.349 110.592 103.063 111.052C102.668 110.173 102.256 109.304 101.828 108.447C103.04 101.657 103.972 94.912 104.672 88.312C104.855 88.604 105.035 88.8947 105.213 89.188C105.307 89.3387 105.468 89.4227 105.633 89.4227C105.72 89.4227 105.809 89.3987 105.889 89.3494C106.12 89.208 106.192 88.9067 106.051 88.6747C105.652 88.024 105.247 87.3787 104.835 86.7374C105.595 79.196 106.056 71.8334 106.293 64.8067C106.335 64.8813 106.376 64.956 106.418 65.032C106.507 65.1934 106.675 65.2854 106.848 65.2854C106.928 65.2854 107.01 65.2654 107.084 65.224C107.322 65.0934 107.408 64.7947 107.277 64.5574C106.969 64 106.662 63.4414 106.354 62.8814C107.37 26.9934 102.661 0.00404358 102.661 0.00404358C105.148 5.3347 107.484 11.8214 109.156 17.8667C111.669 14.872 113.302 12.5747 115.282 9.70938C117.782 15.1547 119.359 19.644 119.561 25.4174C116.985 33.624 112.531 41.2414 106.625 47.4934C106.439 47.6894 106.447 48 106.644 48.1867C106.739 48.276 106.86 48.32 106.982 48.32C107.112 48.32 107.241 48.2694 107.339 48.1667C113.055 42.1147 117.432 34.8134 120.101 26.9294C119.927 27.0907 119.752 27.2507 119.577 27.4107C121.355 25.788 123.119 24.0627 125.147 22.1334C128.509 28.956 129.568 33.9587 129.569 40.6907C129.569 40.456 129.568 40.224 129.565 39.9934C124.785 52.1054 117.7 63.5027 107.11 70.7974C106.887 70.952 106.83 71.2574 106.984 71.4814C107.079 71.6187 107.232 71.6934 107.388 71.6934C107.484 71.6934 107.581 71.6654 107.667 71.6067C117.807 64.616 124.742 54.012 129.543 42.644C129.543 42.6587 129.541 42.6747 129.541 42.6893C131.295 40.264 132.3 38.3054 133.563 36.6534C136.665 41.1347 137.717 46.6987 137.719 52.3934C137.719 53.0507 137.704 53.712 137.679 54.372C130.171 67.712 119.441 79.2374 106.644 87.64C106.417 87.788 106.355 88.092 106.504 88.3187C106.597 88.4627 106.755 88.5414 106.915 88.5414C107.007 88.5414 107.1 88.5147 107.183 88.46C120.255 79.8773 131.186 68.0774 138.782 54.4107C138.399 54.708 138.015 55.0147 137.631 55.3307C140.015 53.3654 142.356 51.8253 144.807 50.0027C145.704 56.0267 146.183 62.112 146.236 68.2014C149.144 66.6094 150.612 65.5574 153.303 63.9707C153.348 64.8813 153.371 65.7814 153.371 66.672C153.371 71.956 152.582 76.9267 151.154 82.1907C138.86 97.776 115.159 115.672 101.473 122.017C101.228 122.132 101.121 122.424 101.236 122.669C101.319 122.848 101.496 122.953 101.682 122.953C101.751 122.953 101.82 122.939 101.888 122.908C116.005 116.332 140.263 97.9787 152.532 82.008C154.536 81.132 156.307 80.3187 158.504 79.1094C159.381 84.432 158.705 89.8454 155.716 94.7734C147.613 104.237 136.198 112.369 125.654 118.781C119.099 122.769 112.884 126.097 108.009 128.684C105.574 129.977 103.472 131.085 101.827 132.001C100.179 132.92 99.0001 133.631 98.3468 134.193C98.1428 134.372 98.1202 134.681 98.2988 134.887C98.3962 134.997 98.5321 135.055 98.6695 135.055C98.7828 135.055 98.8975 135.016 98.9908 134.935C99.5081 134.481 100.679 133.761 102.304 132.859C108.012 129.681 119.438 124.076 131.151 116.492C139.928 110.805 148.879 104.008 155.731 96.2507C155.373 96.288 155.015 96.3254 154.657 96.364C157.577 96.056 160.499 95.7494 163.419 95.4414C162.585 100.996 160.459 106.519 156.587 110.612C159.722 112.028 165.736 112.437 168.204 113.081C165.899 121.545 162.677 125.563 157.776 130.861C142.419 135.057 104.363 150.167 92.4548 155.293C92.2068 155.4 92.0922 155.689 92.1988 155.937C92.2788 156.124 92.4601 156.235 92.6495 156.235C92.7148 156.235 92.7801 156.221 92.8441 156.195C99.6855 153.248 115.264 146.967 130.146 141.381C137.587 138.589 144.855 135.971 150.768 134.029C153.371 133.175 155.712 132.452 157.685 131.904C157.44 131.851 157.195 131.799 156.952 131.749C160.525 132.481 164.328 133.651 169.251 135.017C164.79 139.969 159.276 143.565 153.119 147.111C150.589 147.448 147.484 148 143.968 148.741C134.716 150.696 122.661 153.977 111.121 158.187C99.5788 162.397 88.5575 167.527 81.3428 173.229C81.1295 173.397 81.0935 173.705 81.2615 173.917C81.3588 174.04 81.5028 174.104 81.6482 174.104C81.7535 174.104 81.8615 174.069 81.9521 173.999H81.9508C91.3642 166.548 107.707 159.945 122.999 155.239C130.647 152.884 138.035 150.999 144.171 149.703C147.875 148.919 151.129 148.352 153.696 148.027C153.205 147.891 152.708 147.76 152.2 147.637C155.149 148.351 157.748 149.321 160.697 150.036C155.992 155.524 150.677 159.369 143.38 162.032C138.46 162.299 133.611 163.511 128.888 164.796C111.724 169.474 89.6135 179.691 73.3482 186.708C73.0988 186.816 72.9841 187.105 73.0921 187.353C73.1721 187.539 73.3535 187.651 73.5428 187.651C73.6082 187.651 73.6735 187.637 73.7375 187.609C90.0135 180.585 112.112 170.381 129.146 165.743C133.388 164.587 137.695 163.508 142.012 163.116C141.712 163.011 141.412 162.907 141.112 162.803C145.605 164.365 150.099 165.929 154.592 167.491C147.257 172.572 139.359 176.067 130.777 177.932C123.912 179.207 117.2 181.796 110.725 184.365C94.9881 190.616 79.2575 197.032 62.8188 200.864C62.5548 200.925 62.3908 201.189 62.4521 201.453C62.5055 201.68 62.7068 201.832 62.9308 201.832C62.9668 201.832 63.0055 201.828 63.0428 201.82C79.5815 197.964 95.3561 191.525 111.088 185.279C117.999 182.531 125.124 179.8 132.343 178.658C131.782 178.428 131.196 178.2 130.559 177.98C132.884 178.781 134.508 179.687 136.833 180.488C136.768 180.535 136.707 180.58 136.643 180.625C136.605 180.653 136.568 180.68 136.531 180.707C136.463 180.756 136.393 180.805 136.325 180.855C136.297 180.875 136.263 180.899 136.235 180.919C92.5282 212.315 61.2108 217.246 44.6508 217.865C43.0895 217.923 41.6601 217.943 40.3641 217.943ZM156.769 110.692C153.299 113.583 149.839 116.449 146.056 118.819C121.283 134.337 110.385 139.472 95.2921 146.831C95.0481 146.949 94.9481 147.244 95.0668 147.488C95.1508 147.661 95.3255 147.764 95.5081 147.764C95.5801 147.764 95.6535 147.748 95.7228 147.713C110.807 140.359 121.782 135.184 146.576 119.651C150.595 117.132 154.22 114.095 157.835 111.083C157.456 110.961 157.099 110.832 156.769 110.692Z" fill="#F19810"/>
<mask id="mask0_17_18929" style="mask-type:luminance" maskUnits="userSpaceOnUse" x="27" y="0" width="143" height="218">
<path d="M34.5827 217.86C41.5454 210.493 45.8881 200.703 46.6734 190.597C47.4587 180.494 43.0227 171.025 38.7107 161.855C36.5507 157.263 34.3907 152.669 32.2307 148.077C36.1774 149.127 40.0201 150.568 43.6841 152.371C37.3481 141.256 32.0401 129.553 27.8521 117.463C30.9681 119.587 34.2574 121.455 37.6787 123.041C32.0307 112.772 31.6081 100.54 31.3174 88.8226C32.9161 90.6027 35.6027 93.5493 38.0547 96.972C37.8894 87.3547 38.0867 82.8507 39.9427 73.412C40.5561 74.3467 45.1507 80.5213 45.9481 82.1546C44.6187 72.0293 45.3507 65.264 47.8187 55.2293C50.0774 57.9973 52.1027 60.5173 54.1467 62.9413C54.84 53.5827 55.6281 44.7213 60.5014 36.7027C61.7921 39.9627 62.9747 42.5653 64.828 46.5027C66.032 38.672 69.0294 31.124 73.5254 24.6C73.7774 28.5747 74.4547 32.5213 75.5414 36.352C77.4827 26.4787 80.9014 21.0173 86.572 12.8213C87.9907 15.2093 89.8467 18.5267 90.9267 20.62C94.3867 13.504 98.3094 6.612 102.661 0.0039978C105.148 5.33467 107.484 11.8213 109.156 17.8667C111.669 14.872 113.301 12.5747 115.281 9.70935C118.063 15.7654 119.701 20.6373 119.577 27.4107C121.355 25.788 123.119 24.0627 125.147 22.1333C128.833 29.6133 129.751 34.9053 129.541 42.6893C131.295 40.264 132.3 38.3053 133.563 36.6533C137.197 41.904 138.017 48.6413 137.631 55.3307C140.015 53.3653 142.356 51.8253 144.807 50.0027C145.704 56.0267 146.183 62.112 146.236 68.2013C149.144 66.6093 150.612 65.5573 153.303 63.9707C153.625 70.4507 152.781 76.3333 151.023 82.6627C153.703 81.504 155.775 80.6107 158.504 79.108C159.477 85.0107 158.54 91.0253 154.657 96.364C157.577 96.056 160.499 95.7493 163.419 95.4413C162.585 100.996 160.459 106.519 156.587 110.612C159.721 112.028 165.736 112.437 168.204 113.081C165.772 122.011 162.32 125.991 156.952 131.749C160.525 132.481 164.328 133.651 169.251 135.017C164.571 140.215 158.728 143.919 152.2 147.637C155.149 148.351 157.748 149.321 160.697 150.036C155.517 156.077 149.6 160.128 141.112 162.803C145.605 164.365 150.099 165.929 154.592 167.491C147.195 172.615 139.224 176.127 130.559 177.98C132.884 178.781 134.508 179.687 136.833 180.488C81.104 220.724 45.4067 217.992 34.5827 217.86Z" fill="white"/>
</mask>
<g mask="url(#mask0_17_18929)">
<path d="M106.293 64.8066C100.574 54.4386 94.7824 43.8626 92.0837 32.2453C91.0931 27.9786 90.5357 23.6373 90.2197 19.28C90.4784 19.7626 90.717 20.2146 90.9264 20.62C91.0357 20.396 91.145 20.172 91.2544 19.948C91.577 24.02 92.1197 28.0613 93.0397 32.024C95.5717 42.932 100.904 52.9866 106.353 62.8813C106.334 63.5213 106.314 64.1613 106.293 64.8066Z" fill="#CE5C1E"/>
<path d="M106.848 65.2853C106.674 65.2853 106.506 65.1933 106.417 65.032C106.376 64.956 106.334 64.8813 106.293 64.8066C106.314 64.1613 106.334 63.5213 106.353 62.8813C106.661 63.4413 106.969 64 107.277 64.5573C107.408 64.7946 107.321 65.0933 107.084 65.224C107.009 65.2653 106.928 65.2853 106.848 65.2853Z" fill="#CA521F"/>
<path d="M104.672 88.312C98.6319 78.6707 90.9946 70.0333 84.8173 60.3493C79.5306 52.052 75.2773 42.6053 74.6626 32.82C74.9173 34.0067 75.2106 35.1853 75.5412 36.352C75.6372 35.868 75.7359 35.3933 75.8386 34.9293C76.8786 43.7067 80.8053 52.2307 85.6453 59.8213C91.5426 69.0733 98.8519 77.432 104.835 86.7373C104.781 87.2653 104.728 87.7827 104.672 88.312Z" fill="#CE5C1E"/>
<path d="M105.633 89.4227C105.468 89.4227 105.307 89.3387 105.213 89.188C105.035 88.8947 104.855 88.604 104.672 88.312C104.728 87.7827 104.781 87.2653 104.835 86.7373C105.247 87.3787 105.652 88.024 106.051 88.6747C106.192 88.9067 106.12 89.208 105.889 89.3493C105.809 89.3987 105.72 89.4227 105.633 89.4227Z" fill="#CA521F"/>
<path d="M101.531 110.076C95.8492 98.124 86.8106 88.0027 78.9946 77.1267C72.3479 67.8707 66.3852 57.408 64.6919 46.2133C64.7372 46.3093 64.7826 46.4053 64.8279 46.5026C64.9772 45.528 65.1559 44.5573 65.3599 43.5933C66.4439 55.4587 72.6839 66.664 79.7919 76.5533C87.3012 87.0146 96.0452 96.8547 101.828 108.447C101.731 108.991 101.632 109.531 101.531 110.076Z" fill="#CE5C1E"/>
<path d="M102.733 112.009C102.545 112.009 102.365 111.9 102.284 111.717C102.04 111.167 101.789 110.62 101.53 110.076C101.632 109.531 101.73 108.991 101.828 108.447C102.256 109.304 102.668 110.173 103.062 111.052C103.001 111.149 102.95 111.243 102.908 111.333C102.817 111.536 102.876 111.767 103.036 111.905C103.004 111.929 102.969 111.951 102.932 111.968C102.866 111.996 102.8 112.009 102.733 112.009Z" fill="#CA521F"/>
<path d="M95.676 134.575C90.432 120.331 80.3293 108.355 71.2013 96.012C63.6386 85.7786 56.4453 74.5346 53.5439 62.2226C53.7453 62.464 53.9453 62.7026 54.1466 62.9413C54.1933 62.316 54.24 61.6933 54.288 61.072C56.9893 73.52 64.256 84.9706 71.9906 95.4293C80.8306 107.392 90.6933 119.096 96.1333 133.016C95.9826 133.537 95.8306 134.053 95.676 134.575Z" fill="#CE5C1E"/>
<path d="M96.6011 136.2C96.3971 136.2 96.2064 136.072 96.1371 135.868C95.9878 135.435 95.8344 135.003 95.6758 134.575C95.8304 134.053 95.9824 133.537 96.1331 133.016C96.4597 133.852 96.7718 134.696 97.0651 135.549C97.1531 135.805 97.0171 136.084 96.7611 136.173C96.7077 136.191 96.6544 136.2 96.6011 136.2Z" fill="#CA521F"/>
<path d="M89.6237 151.96C89.4691 151.936 89.3277 151.836 89.2557 151.683C85.001 142.553 80.7157 133.389 74.7957 125.319C67.9077 115.917 58.837 108.093 52.425 98.1586C48.7917 92.5253 46.0944 86.2933 44.4624 79.7933C45.1531 80.8066 45.7131 81.676 45.9478 82.1546C45.8984 81.7786 45.8517 81.4053 45.8077 81.0373C47.4384 86.8986 49.9531 92.5146 53.2504 97.6266C59.5518 107.408 68.6037 115.221 75.5877 124.739C81.5197 132.828 85.7997 141.948 90.0131 150.984C89.8851 151.309 89.7544 151.636 89.6237 151.96Z" fill="#CE5C1E"/>
<path d="M89.7014 151.967C89.676 151.967 89.6494 151.964 89.624 151.96C89.7547 151.636 89.8853 151.309 90.0133 150.984C90.0587 151.079 90.1027 151.173 90.1467 151.268C90.2613 151.513 90.1547 151.805 89.9094 151.92C89.8414 151.952 89.772 151.967 89.7014 151.967Z" fill="#CA521F"/>
<path d="M80.5334 170.525C80.284 170.525 80.0707 170.335 80.0467 170.08C78.2067 150.639 65.184 134.208 52.5587 119.053C46.8627 112.203 40.8894 104.752 37.7134 96.5C37.8267 96.656 37.9414 96.8133 38.0547 96.972C38.0387 96.0907 38.0267 95.2507 38.0187 94.448C40.9121 103.168 47.2134 111.107 53.3134 118.424C65.9347 133.592 79.1294 150.149 81.0241 169.988C81.0494 170.257 80.8507 170.497 80.5814 170.523C80.5654 170.524 80.5494 170.525 80.5334 170.525Z" fill="#CE5C1E"/>
<path d="M71.5532 185.235C71.4666 185.165 71.4012 185.065 71.3772 184.948C67.3398 165.072 56.6012 147.036 43.4972 131.477C40.9825 128.487 38.3092 125.473 36.0132 122.243C36.5652 122.516 37.1199 122.783 37.6785 123.041C37.5545 122.817 37.4332 122.592 37.3146 122.365C39.4546 125.283 41.9012 128.061 44.2492 130.844C57.3145 146.361 68.0812 164.364 72.2399 184.27C72.0119 184.595 71.7852 184.912 71.5532 185.235Z" fill="#CE5C1E"/>
<path d="M71.8585 185.341C71.7452 185.341 71.6386 185.303 71.5532 185.235C71.7852 184.912 72.0119 184.595 72.2399 184.27C72.2745 184.432 72.3079 184.592 72.3399 184.753C72.3945 185.019 72.2225 185.277 71.9572 185.332C71.9239 185.339 71.8905 185.341 71.8585 185.341Z" fill="#CA521F"/>
<path d="M61.0091 198.117C58.8184 181.381 52.2597 165.237 42.2197 151.673C42.7104 151.899 43.1997 152.132 43.6837 152.371C43.3917 151.856 43.1011 151.341 42.8117 150.824C52.9011 164.362 59.541 180.455 61.873 197.18C61.585 197.496 61.2997 197.804 61.0091 198.117Z" fill="#CE5C1E"/>
<path d="M61.52 198.737C61.2773 198.737 61.0652 198.557 61.0332 198.309C61.0252 198.245 61.0173 198.181 61.0093 198.117C61.2999 197.804 61.5853 197.496 61.8733 197.18C61.9186 197.513 61.9639 197.849 62.0079 198.184C62.0412 198.452 61.8519 198.699 61.5826 198.733C61.5626 198.736 61.5413 198.737 61.52 198.737Z" fill="#CA521F"/>
<path d="M119.577 27.4106C119.59 26.728 119.584 26.0653 119.561 25.4173C119.561 25.4173 119.561 25.4173 119.562 25.4173C119.577 25.8387 119.584 26.2666 119.584 26.7026C119.584 26.936 119.582 27.172 119.577 27.4106Z" fill="#CE5C1E"/>
<path d="M106.981 48.32C106.86 48.32 106.738 48.276 106.644 48.1866C106.446 48 106.438 47.6893 106.625 47.4933C112.53 41.2413 116.985 33.624 119.561 25.4173C119.584 26.0653 119.59 26.728 119.577 27.4107C119.752 27.2507 119.926 27.0907 120.101 26.9293C117.432 34.8133 113.054 42.1147 107.338 48.1667C107.241 48.2693 107.112 48.32 106.981 48.32Z" fill="#CA521F"/>
<path d="M107.388 71.6933C107.232 71.6933 107.079 71.6187 106.984 71.4813C106.829 71.2573 106.887 70.952 107.109 70.7973C117.7 63.5027 124.785 52.1053 129.565 39.9933C129.568 40.224 129.569 40.456 129.569 40.6907C129.569 41.3267 129.56 41.976 129.543 42.644C124.741 54.012 117.807 64.616 107.667 71.6067C107.581 71.6653 107.484 71.6933 107.388 71.6933Z" fill="#CA521F"/>
<path d="M106.915 88.5413C106.755 88.5413 106.597 88.4626 106.504 88.3186C106.355 88.092 106.417 87.788 106.644 87.64C119.441 79.2373 130.171 67.712 137.679 54.372C137.665 54.692 137.649 55.0107 137.631 55.3307C138.015 55.0147 138.399 54.708 138.781 54.4107C131.185 68.0773 120.255 79.8773 107.183 88.46C107.1 88.5147 107.007 88.5413 106.915 88.5413Z" fill="#CA521F"/>
<path d="M103.356 112.024C103.289 112.024 103.221 112.011 103.157 111.981C103.112 111.961 103.072 111.936 103.036 111.905C102.876 111.767 102.817 111.536 102.908 111.333C102.951 111.243 103.001 111.149 103.063 111.052C103.349 110.592 103.84 110.055 104.532 109.348C105.369 108.504 106.491 107.46 107.836 106.249C110.527 103.828 114.108 100.736 118.036 97.2693C125.893 90.3386 135.141 81.9053 141.376 74.4067C143.345 72.0466 145.007 69.7707 146.231 67.68C146.233 67.8533 146.235 68.028 146.236 68.2013C146.672 67.9627 147.075 67.7373 147.453 67.5186C146.895 68.5293 146.236 69.5733 145.493 70.648C143.165 74.0053 140 77.6453 136.441 81.3373C129.325 88.72 120.639 96.3067 113.992 102.124C109.565 105.999 106.031 109.104 104.523 110.784C104.123 111.224 103.868 111.58 103.805 111.732C103.724 111.915 103.544 112.024 103.356 112.024Z" fill="#CA521F"/>
<path d="M101.681 122.953C101.496 122.953 101.319 122.848 101.236 122.669C101.121 122.424 101.228 122.132 101.473 122.017C115.159 115.672 138.86 97.776 151.153 82.1906C151.111 82.348 151.067 82.5053 151.023 82.6627C151.232 82.572 151.439 82.484 151.64 82.396C151.944 82.264 152.24 82.136 152.532 82.008C140.263 97.9786 116.005 116.332 101.888 122.908C101.82 122.939 101.751 122.953 101.681 122.953Z" fill="#CA521F"/>
<path d="M98.6691 135.055C98.5318 135.055 98.3958 134.997 98.2985 134.887C98.1198 134.681 98.1424 134.372 98.3464 134.193C98.9998 133.631 100.178 132.92 101.826 132.001C103.472 131.085 105.573 129.977 108.009 128.684C112.884 126.097 119.098 122.769 125.653 118.781C136.197 112.369 147.613 104.237 155.716 94.7733C155.39 95.3093 155.038 95.84 154.657 96.364C155.014 96.3253 155.373 96.288 155.73 96.2506C148.878 104.008 139.928 110.805 131.15 116.492C119.437 124.076 108.012 129.681 102.304 132.859C100.678 133.761 99.5078 134.481 98.9905 134.935C98.8971 135.016 98.7824 135.055 98.6691 135.055Z" fill="#CA521F"/>
<path d="M62.9305 201.832C62.7065 201.832 62.5052 201.68 62.4518 201.453C62.3905 201.189 62.5545 200.925 62.8185 200.864C79.2572 197.032 94.9878 190.616 110.725 184.365C117.2 181.796 123.912 179.207 130.777 177.932C130.704 177.948 130.632 177.964 130.558 177.98C131.196 178.2 131.781 178.428 132.343 178.658C125.124 179.8 117.998 182.531 111.088 185.279C95.3558 191.525 79.5812 197.964 63.0425 201.82C63.0052 201.828 62.9665 201.832 62.9305 201.832Z" fill="#CA521F"/>
<path d="M73.5426 187.651C73.3533 187.651 73.1719 187.539 73.0919 187.353C72.9839 187.105 73.0986 186.816 73.348 186.708C89.6133 179.691 111.724 169.474 128.888 164.796C133.611 163.511 138.46 162.299 143.38 162.032C142.645 162.301 141.889 162.557 141.112 162.803C141.412 162.907 141.712 163.011 142.012 163.116C137.695 163.508 133.388 164.587 129.145 165.743C112.112 170.381 90.0133 180.585 73.7373 187.609C73.6733 187.637 73.608 187.651 73.5426 187.651Z" fill="#CA521F"/>
<path d="M81.6477 174.104C81.5023 174.104 81.3583 174.04 81.261 173.917C81.093 173.705 81.129 173.397 81.3423 173.229C88.557 167.527 99.5783 162.397 111.121 158.187C122.661 153.977 134.716 150.696 143.968 148.741C147.484 148 150.589 147.448 153.118 147.111C152.864 147.257 152.609 147.404 152.353 147.549C152.302 147.579 152.25 147.608 152.2 147.637C152.708 147.76 153.205 147.891 153.696 148.027C151.129 148.352 147.874 148.919 144.17 149.703C138.034 150.999 130.646 152.884 122.998 155.239C107.706 159.945 91.3637 166.548 81.9503 173.999H81.9517C81.861 174.069 81.753 174.104 81.6477 174.104Z" fill="#CA521F"/>
<path d="M92.6492 156.235C92.4599 156.235 92.2786 156.124 92.1986 155.937C92.0919 155.689 92.2066 155.4 92.4546 155.293C104.363 150.167 142.419 135.057 157.776 130.861C157.507 131.153 157.231 131.449 156.952 131.749C157.195 131.799 157.44 131.851 157.685 131.904C155.712 132.452 153.371 133.175 150.768 134.029C144.855 135.971 137.587 138.589 130.145 141.381C115.264 146.967 99.6852 153.248 92.8439 156.195C92.7799 156.221 92.7146 156.235 92.6492 156.235Z" fill="#CA521F"/>
<path d="M95.5078 147.764C95.3252 147.764 95.1505 147.661 95.0665 147.488C94.9478 147.244 95.0478 146.949 95.2918 146.831C110.385 139.472 121.282 134.337 146.056 118.819C149.838 116.449 153.299 113.583 156.769 110.692C157.099 110.832 157.456 110.961 157.835 111.083C154.22 114.095 150.595 117.132 146.576 119.651C121.781 135.184 110.806 140.359 95.7225 147.713C95.6532 147.748 95.5798 147.764 95.5078 147.764Z" fill="#CA521F"/>
</g>
<path d="M102.645 0C108.739 63.892 108.229 132.184 68.3908 187.453C52.0774 210.304 26.2414 219.735 2.36276 230.248C2.36276 230.248 -0.0145991 231.519 6.75843e-05 233.701C0.0120676 235.711 2.05475 236.913 2.05475 236.913C3.68009 237.793 5.66945 237.027 7.34811 236.256C8.99878 235.499 10.8374 234.733 12.4667 233.933C35.8921 222.443 61.3161 211.952 76.6708 188.448C114.189 131.579 111.625 64.1973 102.897 0.609344L102.645 0Z" fill="#C25E1E"/>
</svg>
