<svg width="393" height="208" viewBox="0 0 393 208" fill="none" xmlns="http://www.w3.org/2000/svg">
<path d="M183.436 205.235C183.436 205.235 198.663 211.353 209.76 204.473L211.861 194.302L182.887 195.141L183.436 205.235Z" fill="#4A0D15"/>
<path d="M183.436 205.235L183.187 205.854C183.232 205.869 189.527 208.405 197.076 208.407C201.319 208.407 205.976 207.602 210.112 205.04C210.267 204.944 210.376 204.787 210.413 204.609L212.515 194.437C212.556 194.235 212.504 194.03 212.373 193.873C212.241 193.717 212.047 193.629 211.843 193.635L182.867 194.475C182.687 194.481 182.517 194.557 182.396 194.69C182.273 194.823 182.211 194.997 182.22 195.178L182.769 205.271C182.784 205.53 182.947 205.757 183.187 205.854L183.436 205.235L184.101 205.199L183.589 195.787L211.039 194.993L209.108 204.338L209.76 204.473L209.409 203.906C205.556 206.297 201.156 207.075 197.076 207.074C193.451 207.075 190.089 206.459 187.643 205.842C186.42 205.533 185.424 205.225 184.739 204.994C184.395 204.88 184.128 204.783 183.949 204.718C183.771 204.651 183.684 204.617 183.684 204.617L183.436 205.235Z" fill="#4E1A14"/>
<path d="M182.137 203.413L183.356 202.49C183.356 202.49 198.583 208.606 209.68 201.726L211.985 202.317L211.784 191.556L182.807 192.394L182.137 203.413Z" fill="#6B131A"/>
<path d="M182.137 203.413L182.54 203.944L183.757 203.022L183.356 202.49L183.107 203.109C183.152 203.123 189.444 205.658 196.993 205.662C201.237 205.662 205.895 204.856 210.031 202.293L209.68 201.726L209.515 202.371L211.82 202.963C212.021 203.014 212.237 202.969 212.399 202.84C212.561 202.711 212.656 202.511 212.652 202.305L212.451 191.544C212.447 191.365 212.373 191.195 212.244 191.073C212.115 190.95 211.943 190.883 211.764 190.889L182.788 191.728C182.441 191.738 182.163 192.009 182.141 192.354L181.472 203.371C181.456 203.633 181.592 203.877 181.823 203.999C182.053 204.123 182.331 204.102 182.54 203.944L182.137 203.413L182.803 203.453L183.435 193.042L211.129 192.241L211.303 201.454L209.845 201.081C209.671 201.035 209.481 201.065 209.328 201.159C205.475 203.55 201.073 204.329 196.993 204.329C193.368 204.329 190.008 203.713 187.563 203.097C186.339 202.789 185.344 202.48 184.657 202.25C184.315 202.134 184.048 202.04 183.869 201.973C183.691 201.906 183.604 201.871 183.604 201.871C183.387 201.785 183.14 201.818 182.953 201.958L181.735 202.881L182.137 203.413Z" fill="#D73827"/>
<path d="M11.3417 182.969L2.31567 202.859C2.37922 203.21 2.6563 206.451 2.82609 206.75C3.01567 207.087 3.24641 207.341 3.50213 207.542C3.62035 207.57 3.73702 207.599 3.86463 207.613C17.3694 201.919 84.0563 177.659 183.439 205.354L182.875 185.925C159.251 178.698 68.7345 154.168 11.3417 182.969Z" fill="#4A0D15"/>
<path d="M11.3416 182.969L10.7349 182.694L1.70884 202.585C1.65206 202.709 1.6354 202.845 1.65988 202.978C1.66561 203.004 1.69946 203.294 1.7354 203.644C1.79165 204.178 1.86665 204.919 1.94477 205.561C1.98384 205.882 2.02394 206.178 2.06353 206.419C2.08384 206.541 2.10362 206.647 2.12654 206.746C2.1552 206.85 2.16196 206.919 2.24634 207.08L2.24477 207.077C2.47706 207.493 2.77342 207.818 3.08905 208.066L3.35206 208.192C3.45936 208.217 3.60676 208.256 3.79686 208.275L4.12342 208.228C12.8463 204.55 44.0593 193.011 92.124 193.011C117.932 193.011 148.6 196.337 183.26 205.995C183.464 206.053 183.683 206.009 183.849 205.878C184.016 205.749 184.111 205.546 184.105 205.334L183.541 185.906C183.533 185.619 183.343 185.371 183.071 185.287C167.728 180.597 124.305 168.634 79.9265 168.631C55.8052 168.633 31.3912 172.165 11.0427 182.374C10.9078 182.441 10.7974 182.557 10.7349 182.694L11.3416 182.969L11.6406 183.565C31.7125 173.49 55.9328 169.963 79.9265 169.965C124.07 169.962 167.409 181.89 182.68 186.562L182.875 185.925L182.208 185.945L182.772 205.373L183.439 205.354L183.617 204.711C148.837 195.019 118.046 191.678 92.124 191.678C43.8442 191.678 12.4562 203.268 3.60572 206.998L3.86457 207.613L3.93228 206.949C3.86717 206.944 3.78176 206.923 3.65206 206.893L3.50206 207.542L3.91509 207.019C3.71873 206.863 3.55416 206.683 3.40728 206.425L3.40624 206.422L3.04061 206.629L3.4354 206.483L3.40624 206.422L3.04061 206.629L3.4354 206.483L3.43488 206.481C3.41301 206.413 3.36092 206.117 3.31613 205.774C3.24582 205.249 3.17186 204.563 3.11092 203.981C3.0802 203.689 3.0531 203.422 3.0302 203.21C3.00624 202.993 2.99113 202.854 2.97186 202.742L2.31561 202.859L2.9229 203.135L11.9489 183.245L11.3416 182.969Z" fill="#4E1A14"/>
<path d="M11.2583 180.104L2.40259 202.904C2.46613 203.253 2.57291 203.585 2.74373 203.886C2.93228 204.223 3.16249 204.474 3.41873 204.678C3.53696 204.704 3.65311 204.737 3.78176 204.747C17.286 199.057 83.9729 174.794 183.356 202.49L182.792 183.061C159.167 175.833 68.651 151.304 11.2583 180.104Z" fill="#911921"/>
<path d="M11.2585 180.104L10.6371 179.862L1.78087 202.662C1.73659 202.777 1.72462 202.901 1.7465 203.022C1.82045 203.429 1.94806 203.834 2.16369 204.216L2.16211 204.211C2.39389 204.629 2.69129 204.953 3.00431 205.199L3.27566 205.329C3.36837 205.347 3.51889 205.393 3.72826 205.411L4.04077 205.361C12.7632 201.686 43.9756 190.146 92.0397 190.146C117.848 190.146 148.516 193.473 183.176 203.133C183.38 203.189 183.6 203.146 183.767 203.016C183.933 202.885 184.028 202.682 184.021 202.471L183.459 183.041C183.451 182.756 183.261 182.506 182.987 182.423C167.645 177.731 124.221 165.769 79.8428 165.766C55.7215 165.768 31.308 169.299 10.9595 179.507C10.8121 179.582 10.697 179.709 10.6371 179.862L11.2585 180.104L11.5574 180.699C31.6288 170.625 55.8496 167.098 79.8428 167.099C123.987 167.097 167.327 179.025 182.597 183.698L182.792 183.061L182.125 183.08L182.689 202.51L183.356 202.49L183.535 201.849C148.755 192.156 117.963 188.813 92.0397 188.813C43.7605 188.813 12.3731 200.404 3.52306 204.133L3.78191 204.747L3.83555 204.082C3.78711 204.08 3.70587 204.059 3.56211 204.026L3.41889 204.678L3.83347 204.156C3.63451 203.997 3.47045 203.818 3.32514 203.561L3.32358 203.557C3.19806 203.337 3.11211 203.078 3.05847 202.783L2.40274 202.904L3.0241 203.145L11.8798 180.345L11.2585 180.104Z" fill="#D73827"/>
<path d="M380.217 182.969L389.245 202.859C389.18 203.21 388.903 206.451 388.733 206.75C388.544 207.087 388.312 207.341 388.059 207.542C387.94 207.57 387.823 207.599 387.695 207.613C374.192 201.919 307.503 177.659 208.123 205.354L208.685 185.925C232.309 178.698 322.825 154.168 380.217 182.969Z" fill="#4A0D15"/>
<path d="M380.217 182.969L379.611 183.245L388.637 203.135L389.245 202.859L388.589 202.738C388.563 202.892 388.537 203.135 388.499 203.504C388.441 204.042 388.367 204.777 388.291 205.399C388.252 205.71 388.215 205.994 388.18 206.202L388.133 206.442L388.123 206.487L388.456 206.594L388.153 206.422L388.123 206.487L388.456 206.594L388.153 206.422L388.151 206.425C388.007 206.682 387.84 206.863 387.644 207.021L388.059 207.542L387.908 206.893C387.78 206.923 387.693 206.944 387.628 206.949L387.695 207.613L387.955 206.998C379.104 203.268 347.715 191.678 299.436 191.678C273.513 191.678 242.723 195.019 207.944 204.711L208.123 205.354L208.789 205.373L209.351 185.945L208.685 185.925L208.88 186.562C224.149 181.89 267.489 169.962 311.633 169.965C335.627 169.963 359.847 173.49 379.919 183.565L380.217 182.969L380.516 182.374C360.168 172.165 335.755 168.633 311.633 168.631C267.255 168.634 223.832 180.597 208.489 185.287C208.216 185.371 208.027 185.619 208.019 185.906L207.456 205.334C207.449 205.546 207.545 205.749 207.712 205.878C207.879 206.009 208.097 206.053 208.301 205.995C242.96 196.337 273.628 193.011 299.436 193.011C347.5 193.011 378.713 204.55 387.436 208.228L387.763 208.275C387.953 208.256 388.1 208.217 388.208 208.192L388.473 208.065C388.785 207.818 389.083 207.493 389.315 207.077L389.313 207.078L389.408 206.842C389.471 206.611 389.513 206.322 389.565 205.947C389.639 205.395 389.713 204.704 389.775 204.118C389.805 203.825 389.833 203.559 389.855 203.354C389.876 203.154 389.897 202.99 389.9 202.982C389.925 202.847 389.908 202.709 389.852 202.585L380.824 182.694C380.761 182.557 380.652 182.441 380.516 182.374L380.217 182.969Z" fill="#4E1A14"/>
<path d="M380.303 180.104L389.156 202.904C389.093 203.253 388.987 203.585 388.816 203.886C388.628 204.223 388.396 204.474 388.14 204.678C388.023 204.704 387.907 204.737 387.776 204.747C374.273 199.057 307.585 174.794 208.205 202.49L208.768 183.061C232.393 175.833 322.909 151.304 380.303 180.104Z" fill="#911921"/>
<path d="M380.303 180.104L379.68 180.345L388.535 203.145L389.156 202.904L388.5 202.786C388.448 203.08 388.361 203.337 388.236 203.557L388.235 203.561C388.091 203.817 387.925 203.997 387.725 204.157L388.14 204.678L387.997 204.026C387.853 204.059 387.773 204.08 387.723 204.082L387.776 204.747L388.035 204.133C379.185 200.404 347.797 188.813 299.52 188.813C273.597 188.813 242.807 192.156 208.027 201.849L208.205 202.49L208.872 202.51L209.435 183.08L208.768 183.061L208.963 183.698C224.233 179.025 267.573 167.097 311.717 167.099C335.711 167.098 359.932 170.625 380.003 180.699L380.303 180.104L380.601 179.507C360.252 169.299 335.839 165.768 311.717 165.766C267.339 165.769 223.915 177.731 208.573 182.423C208.3 182.506 208.111 182.756 208.101 183.041L207.539 202.471C207.533 202.682 207.628 202.885 207.795 203.016C207.961 203.146 208.181 203.189 208.385 203.133C243.044 193.473 273.712 190.146 299.52 190.146C347.583 190.146 378.796 201.686 387.517 205.361L387.829 205.411C388.04 205.394 388.191 205.347 388.284 205.329L388.556 205.199C388.867 204.953 389.165 204.63 389.399 204.211L389.396 204.216C389.612 203.834 389.74 203.428 389.812 203.021C389.835 202.898 389.823 202.777 389.777 202.662L380.924 179.862C380.864 179.709 380.748 179.582 380.601 179.507L380.303 180.104Z" fill="#D73827"/>
<path d="M0 201.074C0 201.074 1.025 200.242 3.22656 198.94L2.84688 199.917C0.967188 200.64 0 201.074 0 201.074Z" fill="#D3D0CA"/>
<path d="M196.535 202.416H195.631C191.684 201.197 187.776 200.057 183.921 198.994L183.893 198.011C191.571 200.382 195.349 202.058 195.692 202.058C195.701 202.058 195.709 202.057 195.713 202.054C195.713 202.054 195.713 202.054 195.713 202.053C195.713 202.053 195.713 202.053 195.715 202.053L195.717 202.022L207.693 197.118V197.126C200.451 200.165 196.535 202.416 196.535 202.416Z" fill="#580F17"/>
<path d="M183.921 198.994L183.892 198.011H183.893L183.921 198.994Z" fill="#411614"/>
<path d="M4.521 199.29L5.05953 197.904C14.4179 192.833 37.4804 183.463 80.0658 183.463C88.1236 183.463 96.8704 183.798 106.367 184.561C144.26 187.606 168.924 193.501 182.547 197.602L182.576 198.628C147.655 189.141 116.582 185.901 90.3892 185.901C45.8543 185.901 15.4704 195.281 4.521 199.29Z" fill="#78151D"/>
<path d="M2.84692 199.917L3.2266 198.94C3.76619 198.621 4.37608 198.274 5.05942 197.904L4.52088 199.29C3.90108 199.517 3.34119 199.728 2.84692 199.917ZM183.921 198.994C183.472 198.871 183.024 198.749 182.576 198.628L182.547 197.602C183.008 197.741 183.457 197.878 183.892 198.011L183.921 198.994Z" fill="#B32F23"/>
<path d="M207.693 197.126V197.118H207.695V197.126C207.692 197.126 207.696 197.125 207.693 197.126Z" fill="#411614"/>
<path d="M387.905 201.523C352.095 186.193 319.128 181.05 291.009 181.05C264.993 181.05 243.128 185.453 227.008 190.261C251.921 182.639 275.741 179.894 297.128 179.894C340.1 179.894 373.249 190.974 385.689 195.818L387.905 201.523ZM209.044 196.566V196.565L209.144 196.525C209.168 196.516 209.197 196.504 209.221 196.494C209.16 196.518 209.104 196.542 209.044 196.566Z" fill="#78151D"/>
<path d="M388.921 201.962C388.581 201.814 388.245 201.67 387.905 201.523L385.689 195.818C386.28 196.049 386.823 196.263 387.319 196.463L388.921 201.962ZM207.695 197.126V197.118L209.044 196.565V196.566C208.584 196.754 208.131 196.942 207.695 197.126Z" fill="#B32F23"/>
<path d="M0.0090332 201.053L2.1507 196.19C2.31111 196.092 2.49393 195.981 2.69758 195.858C2.27622 196.637 2.04706 197.065 2.05174 197.068C2.05174 197.068 2.11163 197.021 2.23299 196.931C0.919971 199.35 0.103304 200.862 0.0090332 201.053Z" fill="#D3D0CA"/>
<path d="M6.61127e-05 201.074C6.61127e-05 201.074 28.0646 178.269 106.367 184.561C168.895 189.586 195.404 202.366 195.715 202.053L195.939 199.322L194.847 161.877C194.847 161.877 32.4875 125.798 31.3251 143.31C31.3042 143.629 -0.052538 201.045 6.61127e-05 201.074Z" fill="#F3E9DE"/>
<path d="M2.05158 197.068C2.0469 197.065 2.27606 196.637 2.69742 195.858C2.7542 195.825 2.812 195.79 2.8719 195.756C2.64794 196.168 2.4344 196.561 2.23284 196.931C2.11148 197.021 2.05158 197.068 2.05158 197.068Z" fill="#AEABA4"/>
<path d="M195.699 202.057C195.645 202.057 195.476 201.981 195.188 201.837C195.272 201.869 195.355 201.901 195.439 201.933C195.447 201.937 195.452 201.94 195.461 201.942C195.497 201.957 195.528 201.968 195.564 201.982C195.607 201.998 195.652 202.016 195.695 202.031L195.717 202.022L195.715 202.053C195.713 202.053 195.713 202.053 195.713 202.053C195.713 202.054 195.713 202.054 195.713 202.054C195.709 202.057 195.705 202.057 195.699 202.057ZM2.23291 196.931C2.43447 196.561 2.64802 196.168 2.87198 195.756C9.34802 191.93 35.3804 178.473 81.099 178.473C85.2465 178.473 89.5517 178.583 94.0236 178.822C109.463 179.646 125.789 181.587 144.593 185.973C134.332 184.077 122.351 182.425 108.497 181.311C98.7146 180.526 89.7246 180.182 81.4646 180.182C26.6585 180.182 4.42198 195.335 2.23291 196.931Z" fill="#C9BEB4"/>
<path d="M59.5239 80.4656L1.26245 196.758C1.26245 196.758 57.0942 148.574 195.695 202.031L194.46 109.132C194.46 109.132 149.947 70.9141 59.5239 80.4656Z" fill="#F3D8BC"/>
<path d="M66.5135 81.0853L1.26245 196.758C1.26245 196.758 32.0901 175.518 94.0234 178.822C121.901 180.31 152.671 185.438 195.695 202.031L194.46 109.132C194.46 109.132 156.939 71.5328 66.5135 81.0853Z" fill="#F3E9DE"/>
<path d="M195.695 202.031C152.071 184.402 129.757 179.049 98.3204 176.109C90.7594 175.402 83.6564 175.092 77.0007 175.092C29.298 175.092 4.91626 191.035 4.91626 191.035L5.82981 189.405C15.7496 184.29 40.6361 173.881 78.8162 173.881C83.1168 173.881 87.5782 174.013 92.2137 174.299C120.679 176.058 153.692 181.722 195.695 202.031Z" fill="#C9BEB4"/>
<path d="M68.6141 75.264L0.955322 192.174C0.955322 192.174 33.0178 170.642 92.2137 174.299C120.679 176.058 153.692 181.722 195.695 202.031L194.228 104.549C194.228 104.549 130.14 45.1181 68.6141 75.264Z" fill="#F3E9DE"/>
<path d="M195.695 202.031C149.919 176.97 109.091 169.717 77.1427 169.717C33.186 169.717 6.04688 183.459 6.04688 183.459L6.97499 181.854C17.3656 177.134 41.5104 168.238 75.8615 168.238C81.3765 168.238 87.1593 168.469 93.1864 168.981C122.74 171.997 157.909 181.066 195.695 202.031ZM195.695 202.031L195.685 201.511H195.687L195.695 202.031Z" fill="#C9BEB4"/>
<path d="M71.6428 69.4341L1.26416 184.717C1.26416 184.717 80.3225 137.929 195.695 202.031L193.919 88.7C193.919 88.7 122.912 43.6421 71.6428 69.4341Z" fill="#F3E9DE"/>
<path d="M5.66992 177.468L6.06472 176.821C6.07306 176.818 6.08191 176.816 6.09024 176.811L5.69702 177.457C5.67878 177.463 5.66992 177.468 5.66992 177.468Z" fill="#D3D0CA"/>
<path d="M195.695 202.031C157.909 181.066 122.74 171.997 93.1865 168.981C122.159 171.445 156.865 180.458 195.695 202.031Z" fill="#A79D93"/>
<path d="M195.695 202.031C156.865 180.458 122.159 171.445 93.1865 168.981C84.6288 168.107 76.548 167.742 69.0048 167.742C30.86 167.742 6.61473 177.097 5.69702 177.457L6.09025 176.811C14.2731 174.019 39.4871 166.492 73.4903 166.492C95.6741 166.492 121.592 169.693 148.98 179.502C163.901 184.846 179.067 192.794 195.695 202.031Z" fill="#C9BEB4"/>
<path d="M71.6428 69.4341L21.3362 135.019L3.24341 177.839C3.24341 177.839 70.0502 151.231 148.98 179.502C163.902 184.846 179.067 192.794 195.695 202.031L193.919 88.7C193.919 88.7 122.912 43.6421 71.6428 69.4341Z" fill="#F3E9DE"/>
<path d="M195.671 200.48C195.669 200.477 195.672 200.482 195.671 200.48V200.48Z" fill="#A79D93"/>
<path d="M195.687 201.511H195.685L195.669 200.477L195.671 200.48L195.683 201.314L195.684 201.38L195.687 201.511Z" fill="#A79D93"/>
<path d="M192.108 198.997C166.921 181.386 155.212 175.33 127.57 168.797C105.802 163.651 85.5869 161.906 68.1625 161.906C31.3536 161.906 7.02759 169.701 7.02759 169.701L7.39269 168.826C13.9672 166.758 38.6645 159.769 71.9978 159.769C92.677 159.769 116.676 162.457 141.744 170.681C160.039 176.685 169.713 180.268 192.108 198.997Z" fill="#C9BEB4"/>
<path d="M71.6427 69.4341L18.9245 135.321L5.65625 169.395C5.65625 169.395 69.2579 146.902 141.744 170.681C160.987 176.995 170.692 180.633 195.695 202.031L193.919 88.7C193.919 88.7 122.912 43.6421 71.6427 69.4341Z" fill="#F3E9DE"/>
<path d="M5.6604 169.383L17.0625 140.104L5.66144 169.382C5.66092 169.382 5.6604 169.383 5.6604 169.383Z" fill="#D3D0CA"/>
<path d="M195.687 201.54C193.731 198.578 191.769 195.621 189.533 192.859C185.493 187.87 179.169 181.916 173.859 178.37C168.592 174.858 164.695 172.383 158.932 169.777C152.947 167.07 146.264 164.522 139.935 162.765C107.198 153.686 63.2611 155.516 55.9846 154.686C49.6543 153.965 43.2971 153.494 37.0002 152.504C34.3199 152.082 31.6616 151.542 29.0283 150.89C27.3736 150.482 25.696 150.063 23.9908 150.063C23.633 150.063 23.2736 150.082 22.9132 150.123C18.3319 150.641 15.2471 155.334 12.909 158.835C10.5476 162.375 8.46267 166.174 5.66162 169.382L17.0627 140.104C24.9528 144.647 39.0507 149.47 63.9788 150.847C65.9195 150.956 67.8731 151.059 69.8356 151.165C69.8335 151.165 69.8308 151.163 69.8288 151.163C103.488 152.961 140.101 154.806 166.851 170.298C166.841 170.295 166.831 170.292 166.821 170.289C177.992 176.754 187.448 185.593 194.251 197.804V197.805C194.28 197.856 194.308 197.906 194.336 197.958C194.34 197.966 194.345 197.974 194.349 197.982C194.359 197.998 194.367 198.013 194.375 198.028C194.382 198.041 194.388 198.053 194.396 198.066C194.401 198.075 194.407 198.086 194.412 198.095C194.419 198.109 194.431 198.128 194.437 198.142C194.441 198.147 194.443 198.151 194.447 198.158C194.864 198.918 195.272 199.69 195.669 200.477L195.687 201.54Z" fill="#C9BEB4"/>
<path d="M356.85 143.321L391.032 198.042C391.032 198.042 305.709 158.242 209.144 196.525L195.695 202.031L218.153 176.328L356.85 143.321Z" fill="#F3E9DE"/>
<path d="M195.695 202.031C233.877 181.739 270.271 175.302 301.095 175.302C344.885 175.302 377.425 188.304 387.811 193.031L388.257 193.749C388.257 193.749 353.32 176.953 302.209 176.953C274.86 176.953 242.883 181.761 209.144 196.525L209.044 196.565L207.695 197.118H207.693L195.695 202.031Z" fill="#C9BEB4"/>
<path d="M391.334 194.725C391.334 194.725 300.188 146.498 195.695 202.031L196.715 142.147C196.715 142.147 347.956 132.823 359.453 142.456L391.334 194.725Z" fill="#F3E9DE"/>
<path d="M195.695 202.031C195.879 201.898 196.057 201.768 196.243 201.634C196.247 201.642 196.251 201.651 196.255 201.659C196.068 201.783 195.881 201.907 195.695 202.031ZM196.276 201.646V201.609C230.092 177.145 265.816 169.444 297.404 169.444C340.368 169.444 375.678 183.697 388.075 189.394L388.938 190.809C388.938 190.809 350.231 171.283 298.674 171.283C267.351 171.283 231.296 178.483 196.276 201.646Z" fill="#C9BEB4"/>
<path d="M392.843 191.709C392.843 191.709 287.135 135.31 195.695 202.031L197.644 121.017C197.644 121.017 343.348 100.205 362.924 138.114L392.843 191.709Z" fill="#F3E9DE"/>
<path d="M195.695 202.031C195.695 202.031 195.86 201.856 196.191 201.526C196.196 201.538 196.2 201.546 196.206 201.558C196.211 201.568 196.215 201.578 196.22 201.589L196.224 201.595C196.048 201.74 195.869 201.886 195.695 202.031ZM196.276 201.553V201.441C201.108 196.656 235.896 164.418 296.195 164.418C348.099 164.418 377.012 176.663 387.568 182.298L389.161 185.154C389.161 185.154 349.627 165.839 299.671 165.839C266.952 165.839 229.757 174.13 196.276 201.553Z" fill="#C9BEB4"/>
<path d="M195.695 202.031C195.695 202.031 231.063 164.418 296.195 164.418C363.607 164.418 392.239 185.075 392.239 185.075L342.137 59.1795C342.137 59.1795 223.437 48.6154 194.228 101.753L195.695 202.031Z" fill="#F3D8BC"/>
<path d="M195.695 202.031C195.695 202.031 231.063 164.418 296.195 164.418C363.607 164.418 392.239 185.075 392.239 185.075L342.137 59.1795C342.137 59.1795 223.437 48.6154 194.228 101.753L195.695 202.031Z" fill="#F3D8BC"/>
<path d="M195.695 202.031C195.695 202.031 231.063 164.418 296.195 164.418C363.607 164.418 392.239 185.075 392.239 185.075L342.137 59.1795C342.137 59.1795 223.437 48.6154 194.228 101.753L195.695 202.031Z" fill="#F3E9DE"/>
<path d="M195.767 201.295C195.772 201.29 195.777 201.286 195.783 201.281C195.777 201.285 195.772 201.292 195.767 201.295Z" fill="#DED3C8"/>
<path d="M384.623 165.931C384.621 165.931 384.62 165.93 384.62 165.93L378.392 150.28C378.392 150.281 378.392 150.281 378.393 150.281L374.775 141.187L384.623 165.931Z" fill="#E8E7E3"/>
<path d="M201.528 195.807C201.7 195.609 201.869 195.407 202.044 195.21C209.927 186.266 218.915 178.328 228.724 171.549C238.752 164.621 249.64 158.511 260.979 154.001C274.008 148.817 287.801 146.078 301.648 144.192C311.527 142.845 321.516 142.074 331.488 142.074C331.952 142.074 332.416 142.075 332.88 142.08C347.96 142.192 364.351 143.898 378.392 150.28L384.62 165.93C371.999 158.005 356.593 154.571 341.852 153.33C336.969 152.919 332.063 152.725 327.144 152.725C310.736 152.725 294.225 154.885 278.297 158.345C256.288 163.126 234.915 171.356 216.292 184.154C211.141 187.694 206.2 191.595 201.528 195.807Z" fill="#DED3C8"/>
<path d="M195.684 201.38C195.712 201.351 195.739 201.323 195.767 201.295C195.74 201.323 195.712 201.351 195.684 201.38ZM197.624 199.463C197.629 199.457 197.632 199.454 197.636 199.447C198.912 198.21 200.209 196.997 201.528 195.807C201.512 195.825 201.497 195.842 201.481 195.859C200.176 197.04 198.888 198.24 197.624 199.463Z" fill="#C2B8AC"/>
<path d="M195.684 201.38L195.683 201.314L195.671 200.48L195.672 200.481L195.684 201.38Z" fill="#7B7168"/>
<path d="M195.684 201.38L195.672 200.481C195.732 200.602 195.796 200.729 195.857 200.851V201.205C195.832 201.23 195.808 201.256 195.783 201.281C195.777 201.286 195.772 201.29 195.767 201.295C195.739 201.323 195.712 201.351 195.684 201.38Z" fill="#B1A69D"/>
<path d="M378.393 150.281C378.392 150.281 378.392 150.281 378.392 150.28L374.773 141.186L374.775 141.187L378.393 150.281Z" fill="#BAB6B0"/>
<path d="M197.636 199.447C199.003 197.746 200.415 196.053 201.872 194.378C204.652 191.183 207.605 188.042 210.751 184.973L210.744 184.977C229.88 166.306 256.177 150.321 294.401 141.281L294.557 141.245C294.556 141.245 294.555 141.245 294.553 141.245C307.568 138.175 319.097 136.511 329.212 135.85C329.199 135.851 329.185 135.854 329.172 135.857C332.769 135.621 336.189 135.511 339.432 135.511C355.243 135.511 366.891 138.099 374.773 141.186L378.392 150.28C364.351 143.898 347.96 142.192 332.88 142.08C332.416 142.075 331.952 142.074 331.488 142.074C321.516 142.074 311.527 142.845 301.648 144.192C287.801 146.078 274.008 148.817 260.979 154.001C249.64 158.511 238.752 164.621 228.724 171.549C218.915 178.328 209.927 186.266 202.044 195.21C201.869 195.407 201.7 195.609 201.528 195.807C200.209 196.997 198.912 198.21 197.636 199.447Z" fill="#B1A69D"/>
<path d="M53.337 13.4955C60.1787 40.4021 109.712 39.4568 146.944 45.8181C178.719 51.2474 193.876 76.9588 196.276 81.3952V201.704C173.561 154.707 114.51 153.638 63.9787 150.847C13.3308 148.05 7.38965 131.024 7.38965 131.024L53.337 13.4955Z" fill="#F3E9DE"/>
<path d="M196.276 201.704C196.269 201.689 196.261 201.674 196.255 201.659C196.261 201.674 196.269 201.69 196.276 201.704Z" fill="#E1D3C7"/>
<path d="M196.243 201.634C196.241 201.633 196.241 201.631 196.24 201.63C196.241 201.633 196.241 201.631 196.243 201.634Z" fill="#E1D3C7"/>
<path d="M196.22 201.589C196.215 201.578 196.211 201.568 196.205 201.558C196.211 201.569 196.215 201.577 196.22 201.589Z" fill="#B9AEA2"/>
<path d="M196.181 201.507C196.177 201.501 196.175 201.494 196.171 201.487C196.173 201.493 196.179 201.502 196.181 201.507ZM196.143 201.43C196.143 201.429 196.141 201.428 196.141 201.426L196.143 201.43Z" fill="#E1D3C7"/>
<path d="M194.447 198.158C194.443 198.151 194.441 198.147 194.437 198.142C194.44 198.147 194.444 198.153 194.447 198.158ZM194.412 198.095C194.407 198.086 194.401 198.075 194.396 198.066C194.401 198.077 194.405 198.083 194.412 198.095ZM194.375 198.028C194.367 198.013 194.359 197.998 194.349 197.982C194.357 197.997 194.367 198.014 194.375 198.028ZM194.336 197.958C194.308 197.906 194.28 197.856 194.251 197.805C194.28 197.857 194.307 197.906 194.336 197.958ZM194.251 197.804C187.448 185.593 177.992 176.754 166.821 170.289C166.831 170.292 166.841 170.295 166.851 170.298C178.011 176.762 187.452 185.601 194.251 197.804Z" fill="#B9AEA2"/>
<path d="M196.276 201.704C196.269 201.69 196.261 201.674 196.255 201.659C196.251 201.652 196.247 201.642 196.243 201.634C196.241 201.631 196.242 201.633 196.24 201.63C196.234 201.617 196.227 201.602 196.22 201.589C196.215 201.577 196.211 201.569 196.205 201.558C196.198 201.541 196.189 201.525 196.181 201.507C196.179 201.502 196.173 201.493 196.171 201.487C196.161 201.469 196.152 201.449 196.143 201.43L196.142 201.426C196.132 201.409 196.124 201.39 196.115 201.373C196.168 201.304 196.223 201.234 196.276 201.166V201.646V201.704ZM195.858 200.852C195.402 199.937 194.931 199.038 194.447 198.158C194.444 198.153 194.44 198.147 194.437 198.142C194.429 198.126 194.42 198.11 194.412 198.095C194.405 198.083 194.401 198.077 194.396 198.066C194.388 198.053 194.382 198.041 194.375 198.028C194.367 198.014 194.357 197.997 194.349 197.982C194.345 197.974 194.34 197.966 194.336 197.958C194.307 197.906 194.28 197.857 194.251 197.805V197.804C187.452 185.601 178.011 176.762 166.851 170.298C168.593 170.889 170.327 171.517 172.037 172.195C174.937 173.35 177.803 175.077 180.863 175.756C181.284 175.85 181.688 175.894 182.072 175.894C185.354 175.894 187.301 172.689 188.18 169.737C189.369 165.735 189.425 161.39 189.444 157.249C189.5 144.858 190.265 132.475 190.551 120.084C190.721 112.625 190.791 105.162 190.704 97.7015C190.629 91.2687 190.83 84.6307 189.608 78.2875C188.887 74.5341 187.644 70.7915 185.909 67.2968C191.517 73.3141 194.817 78.7697 196.055 80.9916C196.056 80.9948 196.057 80.9968 196.059 80.9995C196.06 81.0015 196.061 81.0031 196.061 81.0047C196.063 81.0061 196.063 81.0072 196.064 81.0083C195.975 81.1771 195.906 81.3061 195.858 81.3952V200.852Z" fill="#E1D3C7"/>
<path d="M73.4552 32.8608C73.4506 32.8581 73.4459 32.8581 73.4412 32.8568C63.3402 28.8328 55.9646 22.9981 53.4672 13.9848C55.9651 23.0021 63.3464 28.8354 73.4552 32.8608ZM53.4662 13.9821C53.4594 13.9568 53.4522 13.9301 53.4459 13.9061C53.4527 13.9314 53.4594 13.9568 53.4662 13.9821ZM53.4438 13.8995C53.4422 13.8928 53.4396 13.8834 53.4375 13.8781C53.4402 13.8848 53.4418 13.8915 53.4438 13.8995ZM53.4126 13.7835C53.4099 13.7755 53.4088 13.7688 53.4063 13.7608C53.4084 13.7688 53.4104 13.7755 53.4126 13.7835ZM53.4 13.7368C53.399 13.7328 53.397 13.7261 53.3959 13.7208C53.3974 13.7261 53.3984 13.7314 53.4 13.7368ZM53.3787 13.6568C53.3776 13.6514 53.3771 13.6501 53.3755 13.6448C53.3766 13.6488 53.3776 13.6528 53.3787 13.6568ZM53.3698 13.6208C53.3683 13.6154 53.3678 13.6141 53.3662 13.6088C53.3672 13.6128 53.3688 13.6168 53.3698 13.6208Z" fill="#ECE8E2"/>
<path d="M69.8354 151.165C67.8729 151.059 65.9193 150.956 63.9786 150.847C65.9182 150.954 67.8661 151.058 69.8286 151.163C69.8306 151.163 69.8333 151.165 69.8354 151.165Z" fill="#B9AEA2"/>
<path d="M69.8287 151.163C67.8662 151.058 65.9183 150.954 63.9787 150.847C39.0506 149.47 24.9527 144.647 17.0626 140.104C8.92194 135.416 7.38965 131.024 7.38965 131.024L53.337 13.4955C53.3402 13.5061 53.3433 13.5181 53.3465 13.5301C53.347 13.5341 53.3479 13.5368 53.349 13.5408C53.3511 13.5501 53.3531 13.5581 53.3558 13.5688C53.3563 13.5701 53.3574 13.5741 53.3579 13.5768C53.361 13.5875 53.3637 13.5968 53.3662 13.6088C53.3678 13.6141 53.3683 13.6154 53.3698 13.6208C53.3714 13.6288 53.3735 13.6368 53.3755 13.6448C53.3771 13.6501 53.3777 13.6515 53.3787 13.6568C53.3813 13.6661 53.3845 13.6781 53.387 13.6875C53.3881 13.6928 53.3897 13.6981 53.3913 13.7034C53.3927 13.7088 53.3943 13.7141 53.3959 13.7208C53.397 13.7261 53.399 13.7328 53.4001 13.7368C53.4022 13.7448 53.4042 13.7541 53.4063 13.7608C53.4089 13.7688 53.4099 13.7755 53.4126 13.7835C53.4137 13.7888 53.4151 13.7941 53.4167 13.7995C53.4183 13.8061 53.4198 13.8114 53.4214 13.8181C53.423 13.8235 53.4241 13.8275 53.4255 13.8328C53.4287 13.8435 53.4318 13.8555 53.435 13.8674C53.4361 13.8701 53.437 13.8741 53.4375 13.8781C53.4397 13.8835 53.4422 13.8928 53.4438 13.8995C53.4443 13.9021 53.4454 13.9035 53.4459 13.9061C53.4522 13.9301 53.4594 13.9568 53.4662 13.9821C53.4667 13.9821 53.4667 13.9834 53.4673 13.9848C55.9646 22.9981 63.3402 28.8328 73.4413 32.8568C71.2214 32.3701 68.9803 32.0115 66.7006 31.9501C66.5459 31.9461 66.3922 31.9435 66.2386 31.9435C62.0579 31.9435 58.3042 33.4675 55.4506 36.5915C53.5813 38.6395 52.2433 41.1635 50.8771 43.5541C49.2454 46.4088 47.7517 49.3395 46.3418 52.3061C40.6698 64.2461 36.5574 76.8473 32.2027 89.3025C30.1183 95.264 27.6886 101.123 25.8361 107.161C24.0605 112.942 22.9303 119.071 23.9115 125.106C24.7501 130.261 27.3334 134.692 31.4891 137.839C35.5141 140.886 40.5105 142.868 45.1651 144.735C53.0933 147.914 61.5074 149.365 69.8287 151.163Z" fill="#E1D3C7"/>
<path d="M112.719 150.93C68.3902 148.231 67.4427 146.918 53.3235 144.106C53.6407 144.118 53.9568 144.123 54.2703 144.123C54.986 144.123 55.688 144.095 56.3584 144.054C59.4746 143.866 65.3803 140.871 67.0344 138.116C72.9151 128.315 90.897 55.7834 91.5006 50.3474C92.1631 44.3861 87.8584 44.3861 87.8584 44.3861C73.95 41.0741 70.3079 37.1008 70.3079 37.1008C81.8979 42.0688 108.72 44.7168 125.277 45.7101C141.835 46.7034 151.769 52.3341 151.769 52.3341C136.537 48.0274 106.733 47.0354 106.733 47.0354C94.8125 47.0354 93.4875 58.6274 93.4875 58.6274C93.4875 58.6274 77.5057 126.588 75.9369 131.147C72.9151 139.922 77.5891 140.678 77.5891 140.678C82.8656 143.392 112.719 150.93 112.719 150.93Z" fill="#F8F0E8"/>
<path d="M342.348 7.84615C252.789 -29.2432 198.255 76.9588 195.857 81.3952V201.704C215.697 176.109 245.151 152.928 294.401 141.281C361.344 125.45 388.979 146.766 387.58 150.78L342.348 7.84615Z" fill="#F3E9DE"/>
<path d="M377.431 142.306C377.429 142.306 377.428 142.306 377.425 142.306C376.595 141.929 375.711 141.554 374.775 141.187L374.773 141.185C375.712 141.553 376.599 141.928 377.431 142.306Z" fill="#ECE8E2"/>
<path d="M374.775 141.187L374.773 141.186L374.772 141.183L374.773 141.185L374.775 141.187Z" fill="#ADA6A0"/>
<path d="M374.773 141.186C366.891 138.099 355.243 135.511 339.432 135.511C336.189 135.511 332.769 135.621 329.172 135.857C329.185 135.854 329.199 135.851 329.212 135.85C332.793 135.616 336.196 135.507 339.427 135.507C355.241 135.507 366.889 138.095 374.772 141.183L374.773 141.186Z" fill="#A4988D"/>
<path d="M379.091 142.449C378.621 142.449 378.073 142.405 377.431 142.306C376.599 141.928 375.712 141.553 374.773 141.185L374.772 141.183C366.889 138.095 355.241 135.507 339.427 135.507C336.196 135.507 332.793 135.616 329.212 135.85C333.663 135.158 338.161 134.657 342.633 134.425C343.289 134.392 343.957 134.38 344.636 134.38C345.407 134.38 346.189 134.395 346.976 134.41C347.764 134.425 348.557 134.441 349.349 134.441C352.581 134.441 355.801 134.189 358.591 132.658C362.405 130.568 361.877 125.683 361.004 122.119C360.44 119.823 359.588 117.617 358.895 115.36C357.827 111.887 356.716 108.428 355.593 104.972C351.068 91.0686 331.764 18.8355 328.475 14.6301C325.943 11.3901 319.62 9.59412 315.969 7.75412C309.539 4.51144 302.224 3.41412 295.032 3.41412C293.401 3.41412 291.777 3.47011 290.172 3.57144C283.461 3.99011 276.793 5.23946 270.312 7.09145C280.851 2.69012 292.399 0.000778198 304.895 0.000778198C316.535 0.000778198 328.997 2.33545 342.223 7.79411C337.621 5.89545 333.117 4.38345 328.705 3.20612C330.497 3.75679 338.2 6.44478 340.989 12.8221L381.247 139.245C381.247 139.245 383.099 142.447 379.091 142.449Z" fill="#E1D3C7"/>
<path d="M195.857 81.3952C196.137 80.8776 197.129 78.9703 198.805 76.0645C197.129 78.9703 196.137 80.8771 195.857 81.3952Z" fill="#E1D3C7"/>
<path d="M195.857 201.704C197.769 199.237 199.771 196.792 201.872 194.378C199.925 196.616 198.061 198.882 196.276 201.166C196.223 201.234 196.168 201.304 196.115 201.373C196.028 201.483 195.944 201.593 195.857 201.704Z" fill="#E1D3C7"/>
<path d="M294.401 141.281C294.451 141.269 294.504 141.257 294.553 141.245C294.555 141.245 294.556 141.245 294.557 141.245L294.401 141.281Z" fill="#A4988D"/>
<path d="M204.934 187.569C204.752 187.569 204.571 187.558 204.388 187.534C202.979 187.356 202.106 185.839 201.675 184.633C201.002 182.742 200.8 180.694 200.722 178.698C200.644 176.762 200.7 174.828 200.752 172.892C200.832 169.889 200.672 166.869 200.586 163.866C200.375 156.475 199.88 90.0047 200.02 86.3369C200.151 82.8995 200.255 79.3755 201.031 76.0124C201.64 73.3741 202.504 70.8275 203.511 68.3355C209.188 59.4608 217.911 47.3088 229.412 35.7101C218.946 47.9075 209.927 61.4301 208.667 77.7285C208.41 81.0724 208.536 84.45 208.571 87.7989C208.607 91.4489 208.678 95.0984 208.771 98.7468C208.962 106.088 209.268 113.425 209.656 120.76C210.044 128.067 210.526 135.369 211.072 142.666C211.343 146.273 211.634 149.877 211.935 153.481C212.146 155.98 212.227 158.492 212.482 160.985C212.902 165.058 214.538 169.486 219.308 169.553C219.343 169.553 219.376 169.554 219.409 169.554C221.743 169.554 224.028 168.404 226.015 167.297C228.212 166.071 230.323 164.67 232.482 163.377C238.367 159.854 244.552 156.844 250.887 154.222C257.248 151.585 263.776 149.542 270.328 147.45C278.22 144.93 286.32 142.313 294.553 141.245C294.504 141.257 294.451 141.269 294.401 141.281C256.178 150.321 229.88 166.306 210.744 184.977L210.391 185.205C208.823 186.253 206.912 187.569 204.934 187.569Z" fill="#E1D3C7"/>
<path d="M201.872 194.378C204.649 191.185 207.6 188.045 210.744 184.977L210.751 184.973C207.605 188.042 204.652 191.183 201.872 194.378Z" fill="#A4988D"/>
<path d="M202.646 69.6968C202.927 69.2501 203.216 68.7941 203.514 68.3288L203.512 68.3301C203.216 68.7941 202.926 69.2514 202.646 69.6968Z" fill="#ECE8E2"/>
<path d="M198.805 76.0645C199.832 74.2861 201.113 72.1328 202.645 69.6968C202.925 69.2514 203.216 68.7941 203.512 68.3301C203.512 68.3328 203.511 68.3328 203.511 68.3354C201.591 71.3354 200.019 73.9621 198.805 76.0645Z" fill="#E1D3C7"/>
<path d="M195.857 201.704V81.3952C196.137 80.8771 197.129 78.9703 198.805 76.0645C200.019 73.9621 201.591 71.3355 203.511 68.3355C202.504 70.8275 201.64 73.3741 201.031 76.0124C200.255 79.3755 200.151 82.8995 200.02 86.3369C199.88 90.0047 200.375 156.475 200.585 163.866C200.672 166.869 200.832 169.889 200.752 172.892C200.7 174.828 200.644 176.762 200.721 178.698C200.8 180.694 201.001 182.742 201.675 184.633C202.105 185.839 202.979 187.356 204.388 187.534C204.571 187.558 204.752 187.569 204.933 187.569C206.912 187.569 208.823 186.253 210.391 185.205L210.744 184.977C207.6 188.045 204.649 191.185 201.872 194.378C199.771 196.792 197.769 199.237 195.857 201.704Z" fill="#D0C1B3"/>
<path d="M251.888 151.506C252.245 151.051 252.568 150.59 252.849 150.275C253.984 149.007 255.063 147.683 256.219 146.435C260.861 141.431 260.257 136.246 259.495 129.936C257.487 113.27 256.089 96.2301 254.447 79.7719C253.063 65.9181 251.117 52.0501 249.117 38.2768C248.74 35.6728 247.701 30.9115 244.347 30.9115C244.319 30.9115 244.291 30.9115 244.263 30.9128C240.912 30.9902 238.755 33.1235 236.229 35.0248C231.483 38.5968 228.123 43.3688 224.005 47.6168C223.796 47.8328 223.625 47.9195 223.5 47.9195C223.288 47.9195 223.203 47.6728 223.273 47.3715C230.908 37.8195 239.773 29.2222 249.995 22.4662C258.752 16.6795 268.203 11.5995 278.237 8.44615C281.352 7.46748 284.495 6.55548 287.667 5.77014C287.944 5.77948 288.22 5.78748 288.497 5.79282C289.037 5.80081 288.203 7.18881 287.765 7.22748C283.82 7.57681 279.467 8.75148 275.84 10.3701C271.897 12.1315 267.52 14.2315 264.352 17.2568C261.895 19.6075 258.717 23.1422 258.609 26.7621C258.508 30.0928 259.053 33.3968 259.468 36.6888C259.928 40.3341 260.396 43.9781 260.839 47.6248C261.223 50.7848 261.401 54.0101 261.871 57.1448C265.527 81.54 268.117 106.079 270.532 130.623C270.651 131.808 270.789 133.275 272.031 133.809C273.148 134.287 274.361 134.39 275.564 134.39C275.816 134.39 276.069 134.386 276.32 134.38C279.607 134.292 282.588 134.098 285.748 133.101C288.849 132.121 291.985 131.468 295.185 130.932C299.401 130.222 303.683 129.205 307.951 129.098C302.683 130.189 297.472 131.562 292.352 133.168C285.933 135.181 279.66 137.644 273.495 140.326C266.901 143.198 260.607 146.642 254.321 150.123C253.505 150.575 252.695 151.039 251.888 151.506Z" fill="#F8F0E8"/>
<path d="M386.993 148.928C385.735 147.146 382.599 144.657 377.424 142.306C377.425 142.306 377.425 142.306 377.425 142.306C382.6 144.657 385.736 147.146 386.993 148.928ZM342.348 7.84613C342.325 7.83679 342.309 7.83012 342.288 7.82079C342.308 7.82878 342.328 7.83679 342.348 7.84613Z" fill="#ECE8E2"/>
<path d="M342.348 7.84615C342.325 7.83681 342.304 7.82745 342.283 7.81812C342.284 7.81946 342.285 7.82079 342.288 7.82079C342.309 7.83012 342.325 7.83681 342.348 7.84615Z" fill="#E1D3C7"/>
<path d="M386.995 148.929C386.993 148.928 386.993 148.928 386.993 148.926L342.348 7.84615L386.995 148.929ZM386.993 148.928C385.736 147.146 382.6 144.657 377.425 142.306C377.428 142.306 377.429 142.306 377.431 142.306C382.604 144.658 385.736 147.146 386.993 148.926V148.928Z" fill="#DBD3CA"/>
<path d="M386.995 148.929L386.993 148.928V148.926C386.993 148.928 386.993 148.928 386.995 148.929ZM386.993 148.926C385.736 147.146 382.604 144.658 377.431 142.306C378.073 142.405 378.621 142.449 379.091 142.449C383.099 142.447 381.247 139.245 381.247 139.245L340.989 12.8221C338.2 6.44479 330.497 3.75681 328.705 3.20615C333.117 4.38347 337.621 5.89546 342.223 7.79413C342.232 7.79813 342.241 7.80214 342.252 7.80614C342.261 7.81013 342.272 7.81412 342.283 7.81812C342.304 7.82745 342.325 7.83681 342.348 7.84615L386.993 148.926Z" fill="#D0C1B3"/>
</svg>
