<svg width="163" height="2" viewBox="0 0 163 2" fill="none" xmlns="http://www.w3.org/2000/svg">
<path d="M3.39756 1.48492L0.0356174 1.49082L0.0351259 1.14363L3.39707 1.13773L3.39756 1.48492ZM10.1219 1.47313L6.75999 1.47903L6.75999 1.13187L10.1214 1.12594L10.1219 1.47313ZM16.8468 1.46138L13.4848 1.46728L13.4844 1.12009L16.8463 1.11418L16.8468 1.46138ZM23.5716 1.44961L20.2087 1.45547L20.2082 1.10828L23.5712 1.10242L23.5716 1.44961ZM30.2955 1.4378L26.9336 1.44371L26.9331 1.09652L30.295 1.09061L30.2955 1.4378ZM37.0204 1.42604L33.658 1.43193L33.658 1.08476L37.0199 1.07885L37.0204 1.42604ZM43.7448 1.41426L40.3828 1.42016L40.3821 1.07785L43.744 1.07195L43.7448 1.41426ZM50.4696 1.4025L47.1067 1.40835L47.106 1.06604L50.4689 1.06019L50.4696 1.4025ZM57.1932 1.39557L53.8313 1.40147L53.8308 1.05428L57.1928 1.04837L57.1932 1.39557ZM63.9181 1.3838L60.5562 1.38971L60.5557 1.04252L63.9176 1.03661L63.9181 1.3838ZM70.6425 1.37202L67.2805 1.37793L67.28 1.03074L70.642 1.02483L70.6425 1.37202ZM77.3673 1.36026L74.0044 1.36612L74.0039 1.01892L77.3668 1.01307L77.3673 1.36026ZM84.0922 1.3485L80.7293 1.35435L80.7288 1.00716L84.0917 1.00131L84.0922 1.3485ZM90.8161 1.33669L87.4541 1.3426L87.4536 0.995406L90.8156 0.989499L90.8161 1.33669ZM97.5404 1.3249L94.179 1.33084L94.1785 0.983649L97.5399 0.977715L97.5404 1.3249ZM104.265 1.31315L100.902 1.319L100.902 0.976714L104.265 0.970831L104.265 1.31315ZM110.99 1.30136L107.627 1.30724L107.626 0.96493L110.989 0.959074L110.99 1.30136ZM117.713 1.29443L114.352 1.29546L114.351 0.95314L117.713 0.947264L117.713 1.29443ZM124.438 1.28267L121.076 1.28857L121.076 0.941382L124.438 0.93548L124.438 1.28267ZM131.163 1.27091L127.8 1.27676L127.8 0.929572L131.163 0.923717L131.163 1.27091ZM137.887 1.25912L134.525 1.265L134.524 0.917815L137.887 0.911958L137.887 1.25912ZM144.612 1.24734L141.25 1.25325L141.249 0.906057L144.611 0.900149L144.612 1.24734ZM151.336 1.23555L147.974 1.24146L147.974 0.894267L151.336 0.888365L151.336 1.23555ZM158.061 1.2238L154.699 1.2297L154.699 0.882509L158.06 0.876606L158.061 1.2238ZM162.733 1.21465L161.423 1.21789L161.422 0.870699L162.732 0.872334L162.733 1.21465Z" fill="#F4F4F4"/>
</svg>
